<svg xmlns="http://www.w3.org/2000/svg" width="20" height="12.987" viewBox="0 0 20 12.987">
  <g id="Group_54266" data-name="Group 54266" transform="translate(-255 -399.238)">
    <g id="noun-eye-108713" transform="translate(163.718 287.238)">
      <path id="Path_169675" data-name="Path 169675" d="M101.282,112c-5.281,0-9.372,5.628-9.545,5.866l-.454.628.455.628c.173.238,4.264,5.866,9.545,5.866s9.372-5.628,9.545-5.866l.455-.628-.455-.628c-.173-.238-4.264-5.866-9.545-5.866Zm0,10.822c-3.247,0-6.147-2.987-7.273-4.329,1.126-1.342,4-4.329,7.273-4.329,3.247,0,6.147,2.987,7.273,4.329C107.429,119.835,104.55,122.822,101.282,122.822Z" transform="translate(0)" fill="#4a5162"/>
    </g>
    <circle id="Ellipse_8529" data-name="Ellipse 8529" cx="2.5" cy="2.5" r="2.5" transform="translate(262 403)" fill="#4a5162"/>
  </g>
</svg>
