<svg xmlns="http://www.w3.org/2000/svg" width="20" height="20.303" viewBox="0 0 20 20.303">
  <g id="noun-eye-closed-108706" transform="translate(-91.281 -17.359)">
    <path id="Path_169635" data-name="Path 169635" d="M105.588,22.208l2.164-3.766-1.883-1.082-2.294,4a8.061,8.061,0,0,0-2.294-.346c-5.281,0-9.372,5.628-9.545,5.866l-.454.628.455.628a17.681,17.681,0,0,0,5.238,4.675L94.809,36.58l1.883,1.082,2.294-3.983a8.061,8.061,0,0,0,2.294.346c5.281,0,9.372-5.628,9.545-5.866l.455-.628-.455-.628a17.307,17.307,0,0,0-5.238-4.7Zm-11.58,5.3c1.126-1.342,4-4.329,7.273-4.329a5.232,5.232,0,0,1,1.169.13l-.584,1.017a3.232,3.232,0,0,0-3.052,5.281l-.758,1.32a15.119,15.119,0,0,1-4.047-3.42Zm7.273,4.329a5.232,5.232,0,0,1-1.169-.13l2.662-4.589,1.082-1.883.671-1.147a15.317,15.317,0,0,1,4.026,3.42c-1.126,1.342-4,4.329-7.273,4.329Z" fill="#4a5162"/>
  </g>
</svg>
