<svg id="Group_55111" data-name="Group 55111" xmlns="http://www.w3.org/2000/svg" width="25.52" height="28.092" viewBox="0 0 25.52 28.092">
  <path id="Path_16359" data-name="Path 16359" d="M837.4,512.82c-1.884,0-3.992,1.549-3.992,3.437v24.655l4.157-4.147H855.5a3.445,3.445,0,0,0,3.427-3.437V516.257a3.445,3.445,0,0,0-3.427-3.437Z" transform="translate(-833.41 -512.82)" fill="#61a7db" fill-rule="evenodd"/>
  <path id="Path_16360" data-name="Path 16360" d="M844.567,522.468h11.806v4.117l-7.849.015c-.954-.01-1.864.53-1.844,1.439a1.694,1.694,0,0,0,1.844,1.684l9.957-.03s1.014-.095,1.014-1.679v-6.42a2.534,2.534,0,0,0-1.659-2.088l-14.863,0h-.01a2.522,2.522,0,0,0-1.7,2.378v12.49a2.519,2.519,0,0,0,1.774,2.4h14.323c2.783.03,2.463-3.327.15-3H844.572Z" transform="translate(-837.338 -516.163)" fill="#fff" fill-rule="evenodd"/>
</svg>
