<svg xmlns="http://www.w3.org/2000/svg" width="26.662" height="26.67" viewBox="0 0 26.662 26.67">
  <g id="noun-global-setting-3007994" transform="translate(307.33 -1041.667)">
    <path id="Path_169074" data-name="Path 169074" d="M143.019,57.646l-3.213-.589a9.571,9.571,0,0,0-.7-1.714l1.874-2.731a.567.567,0,0,0-.054-.7l-2.624-2.624a.561.561,0,0,0-.7-.054l-2.731,1.874a9.575,9.575,0,0,0-1.714-.7l-.589-3.213c-.161-.375-.375-.535-.643-.535h-3.749a.521.521,0,0,0-.535.428l-.589,3.213a9.571,9.571,0,0,0-1.714.7l-2.731-1.874a.567.567,0,0,0-.7.054l-2.624,2.624a.561.561,0,0,0-.054.7l1.874,2.731a9.576,9.576,0,0,0-.7,1.714l-3.213.589c-.375.161-.536.375-.536.643V61.93a.521.521,0,0,0,.428.535l3.213.589a16.346,16.346,0,0,0,.7,1.714L119.133,67.5a.567.567,0,0,0,.054.7l2.624,2.624a.561.561,0,0,0,.7.054L125.239,69a9.575,9.575,0,0,0,1.714.7l.589,3.213a.521.521,0,0,0,.535.428h3.749a.521.521,0,0,0,.535-.428l.589-3.213a16.351,16.351,0,0,0,1.714-.7l2.731,1.874a.567.567,0,0,0,.7-.054l2.624-2.624a.561.561,0,0,0,.054-.7l-1.874-2.731a6.781,6.781,0,0,0,.7-1.714l3.213-.589a.521.521,0,0,0,.428-.535V58.181c.215-.268.054-.482-.214-.535ZM137.5,59.52h-3.535c-.107-3.32-1.232-6-2.785-6.855a7.465,7.465,0,0,1,6.32,6.855Zm-6.908-5.945c1.125.535,2.2,2.838,2.356,5.945h-2.356Zm-1.66-.91c-1.553.91-2.678,3.535-2.785,6.855h-3.535a7.465,7.465,0,0,1,6.32-6.855Zm-6.319,7.926h3.535c.107,3.32,1.232,6,2.785,6.855a7.465,7.465,0,0,1-6.32-6.855Zm6.909,5.945c-1.125-.535-2.2-2.838-2.356-5.945h2.356Zm0-7.016h-2.356c.107-3.106,1.178-5.409,2.356-5.945Zm1.071,1.071h2.356c-.16,3.106-1.232,5.356-2.356,5.945Zm.589,6.855c1.553-.857,2.678-3.535,2.838-6.855h3.535a7.52,7.52,0,0,1-6.373,6.855Z" transform="translate(-424 995)" fill="#ebebed"/>
  </g>
</svg>
