<svg xmlns="http://www.w3.org/2000/svg" width="7" height="23" viewBox="0 0 7 23">
  <g id="Group_54213" data-name="Group 54213" transform="translate(6.837 0.045) rotate(90)">
    <rect id="Rectangle_12288" data-name="Rectangle 12288" width="3" height="3" rx="1.5" transform="translate(22.955 3.837) rotate(90)" fill="#cdd5db"/>
    <rect id="Rectangle_12345" data-name="Rectangle 12345" width="3" height="3" rx="1.5" transform="translate(22.955 -0.163) rotate(90)" fill="#cdd5db"/>
    <rect id="Rectangle_12346" data-name="Rectangle 12346" width="3" height="3" rx="1.5" transform="translate(18.955 3.837) rotate(90)" fill="#cdd5db"/>
    <rect id="Rectangle_12347" data-name="Rectangle 12347" width="3" height="3" rx="1.5" transform="translate(18.955 -0.163) rotate(90)" fill="#cdd5db"/>
    <rect id="Rectangle_12348" data-name="Rectangle 12348" width="3" height="3" rx="1.5" transform="translate(14.955 3.837) rotate(90)" fill="#cdd5db"/>
    <rect id="Rectangle_12349" data-name="Rectangle 12349" width="3" height="3" rx="1.5" transform="translate(14.955 -0.163) rotate(90)" fill="#cdd5db"/>
    <rect id="Rectangle_12350" data-name="Rectangle 12350" width="3" height="3" rx="1.5" transform="translate(10.955 3.837) rotate(90)" fill="#cdd5db"/>
    <rect id="Rectangle_12351" data-name="Rectangle 12351" width="3" height="3" rx="1.5" transform="translate(10.955 -0.163) rotate(90)" fill="#cdd5db"/>
    <rect id="Rectangle_12352" data-name="Rectangle 12352" width="3" height="3" rx="1.5" transform="translate(6.955 3.837) rotate(90)" fill="#cdd5db"/>
    <rect id="Rectangle_12353" data-name="Rectangle 12353" width="3" height="3" rx="1.5" transform="translate(6.955 -0.163) rotate(90)" fill="#cdd5db"/>
    <rect id="Rectangle_12354" data-name="Rectangle 12354" width="3" height="3" rx="1.5" transform="translate(2.955 3.837) rotate(90)" fill="#cdd5db"/>
    <rect id="Rectangle_12355" data-name="Rectangle 12355" width="3" height="3" rx="1.5" transform="translate(2.955 -0.163) rotate(90)" fill="#cdd5db"/>
  </g>
</svg>
