<svg width="7" height="23" xmlns="http://www.w3.org/2000/svg">
 <g>
  <title>Layer 1</title>
  <g id="Group_54213" data-name="Group 54213" transform="rotate(90 6.837 0.0449999)">
   <rect id="Rectangle_12288" data-name="Rectangle 12288" width="3" height="3" rx="1.5" fill="#ffffff" y="3.882" x="29.792" transform="rotate(90 29.792 3.882)"/>
   <rect id="Rectangle_12345" data-name="Rectangle 12345" width="3" height="3" rx="1.5" fill="#ffffff" y="-0.118" x="29.792" transform="rotate(90 29.792 -0.118001)"/>
   <rect id="Rectangle_12346" data-name="Rectangle 12346" width="3" height="3" rx="1.5" fill="#ffffff" y="3.882" x="25.792" transform="rotate(90 25.792 3.882)"/>
   <rect id="Rectangle_12347" data-name="Rectangle 12347" width="3" height="3" rx="1.5" fill="#ffffff" y="-0.118" x="25.792" transform="rotate(90 25.792 -0.118001)"/>
   <rect id="Rectangle_12348" data-name="Rectangle 12348" width="3" height="3" rx="1.5" fill="#ffffff" y="3.882" x="21.792" transform="rotate(90 21.792 3.882)"/>
   <rect id="Rectangle_12349" data-name="Rectangle 12349" width="3" height="3" rx="1.5" fill="#ffffff" y="-0.118" x="21.792" transform="rotate(90 21.792 -0.118)"/>
   <rect id="Rectangle_12350" data-name="Rectangle 12350" width="3" height="3" rx="1.5" fill="#ffffff" y="3.882" x="17.792" transform="rotate(90 17.792 3.882)"/>
   <rect id="Rectangle_12351" data-name="Rectangle 12351" width="3" height="3" rx="1.5" fill="#ffffff" y="-0.118" x="17.792" transform="rotate(90 17.792 -0.118)"/>
   <rect id="Rectangle_12352" data-name="Rectangle 12352" width="3" height="3" rx="1.5" fill="#ffffff" y="3.882" x="13.792" transform="rotate(90 13.792 3.882)"/>
   <rect id="Rectangle_12353" data-name="Rectangle 12353" width="3" height="3" rx="1.5" fill="#ffffff" y="-0.118" x="13.792" transform="rotate(90 13.792 -0.118)"/>
   <rect id="Rectangle_12354" data-name="Rectangle 12354" width="3" height="3" rx="1.5" fill="#ffffff" y="3.882" x="9.792" transform="rotate(90 9.792 3.882)"/>
   <rect id="Rectangle_12355" data-name="Rectangle 12355" width="3" height="3" rx="1.5" fill="#ffffff" y="-0.118" x="9.792" transform="rotate(90 9.792 -0.118)"/>
  </g>
 </g>

</svg>