<svg id="noun_Image_777906" xmlns="http://www.w3.org/2000/svg" width="27.787" height="23.455" viewBox="0 0 27.787 23.455">
  <g id="Layer_2" data-name="Layer 2">
    <g id="Layer_2-2" data-name="Layer 2">
      <path id="Path_33104" data-name="Path 33104" d="M25.549,23.455H2.239A2.274,2.274,0,0,1,0,21.147V2.308A2.274,2.274,0,0,1,2.239,0h23.31a2.274,2.274,0,0,1,2.239,2.308V21.147a2.274,2.274,0,0,1-2.238,2.308ZM2.239,1.8a.5.5,0,0,0-.493.508V21.147a.5.5,0,0,0,.493.508h23.31a.5.5,0,0,0,.489-.508V2.308a.5.5,0,0,0-.489-.508Z" fill="#7c8189"/>
      <path id="Path_33105" data-name="Path 33105" d="M11.021,32.606H26.393a.659.659,0,0,0,.6-.484,1.192,1.192,0,0,0-.053-.954l-2.12-3.956a.647.647,0,0,0-.476-.371.565.565,0,0,0-.516.253L21.65,29.944l-5.058-9.435a.617.617,0,0,0-.549-.368.647.647,0,0,0-.533.411l-5.058,10.66a1.2,1.2,0,0,0-.022.933A.652.652,0,0,0,11.021,32.606Z" transform="translate(-4.816 -12.459)" fill="#7c8189"/>
      <circle id="Ellipse_626" data-name="Ellipse 626" cx="3.17" cy="3.17" r="3.17" transform="translate(15.81 3.906)" fill="#7c8189"/>
    </g>
  </g>
</svg>
