<svg xmlns="http://www.w3.org/2000/svg" width="21.764" height="18.301" viewBox="0 0 21.764 18.301">
  <g id="noun-collection-2355498" transform="translate(-84.001 -56.555)">
    <path id="Path_170079" data-name="Path 170079" d="M104.182,56.555H85.606A1.6,1.6,0,0,0,84,58.16V73.25a1.6,1.6,0,0,0,1.605,1.605h18.553a1.6,1.6,0,0,0,1.605-1.605V58.16a1.576,1.576,0,0,0-1.582-1.605Zm-13.3,1.651a.688.688,0,1,1-.688.688A.676.676,0,0,1,90.881,58.206Zm-2.11,0a.688.688,0,1,1,0,1.376.705.705,0,0,1-.688-.688A.69.69,0,0,1,88.771,58.206Zm-2.11,0a.688.688,0,1,1-.688.688A.69.69,0,0,1,86.661,58.206Zm17.108,14.516a.108.108,0,0,1-.115.115H86.134a.108.108,0,0,1-.115-.115V61.256h17.727V72.723Z" fill="#4a5162"/>
    <path id="Path_170080" data-name="Path 170080" d="M249.887,215.907h2.293a.69.69,0,0,0,.688-.688v-2.293a.69.69,0,0,0-.688-.688h-2.293a.69.69,0,0,0-.688.688v2.316a.671.671,0,0,0,.688.665Z" transform="translate(-158.433 -149.308)" fill="#4a5162"/>
    <path id="Path_170081" data-name="Path 170081" d="M361.887,215.907h2.293a.69.69,0,0,0,.688-.688v-2.293a.69.69,0,0,0-.688-.688h-2.293a.69.69,0,0,0-.688.688v2.316a.671.671,0,0,0,.688.665Z" transform="translate(-265.846 -149.308)" fill="#4a5162"/>
    <path id="Path_170082" data-name="Path 170082" d="M249.887,327.931h2.293a.69.69,0,0,0,.688-.688v-2.316a.69.69,0,0,0-.688-.688h-2.293a.69.69,0,0,0-.688.688v2.316A.69.69,0,0,0,249.887,327.931Z" transform="translate(-158.433 -256.722)" fill="#4a5162"/>
    <path id="Path_170083" data-name="Path 170083" d="M361.887,327.931h2.293a.69.69,0,0,0,.688-.688v-2.316a.69.69,0,0,0-.688-.688h-2.293a.69.69,0,0,0-.688.688v2.316A.69.69,0,0,0,361.887,327.931Z" transform="translate(-265.846 -256.722)" fill="#4a5162"/>
  </g>
</svg>
