<svg xmlns="http://www.w3.org/2000/svg" width="22" height="22" viewBox="0 0 22 22">
  <g id="noun_Upload_3836137" transform="translate(-1 -1)">
    <path id="Path_167721" data-name="Path 167721" d="M22,16a1,1,0,0,0-1,1v4H3V17a1,1,0,1,0-2,0v5a1,1,0,0,0,1,1H22a1,1,0,0,0,1-1V17A1,1,0,0,0,22,16Z" fill="#7c8189"/>
    <path id="Path_167722" data-name="Path 167722" d="M6.707,8.707,11,4.414V17a1,1,0,0,0,2,0V4.414l4.293,4.293a1,1,0,1,0,1.414-1.414l-6-6a1,1,0,0,0-1.414,0l-6,6A1,1,0,1,0,6.707,8.707Z" fill="#7c8189"/>
  </g>
</svg>
