<svg xmlns="http://www.w3.org/2000/svg" width="15.881" height="20.248" viewBox="0 0 15.881 20.248">
  <g id="noun-upload-icon-2418327" transform="translate(-226.01 -121.752)">
    <path id="Path_170127" data-name="Path 170127" d="M231.415,142a1.028,1.028,0,0,1-.566-.172,10.975,10.975,0,0,1,6.132-20.075,11.4,11.4,0,0,1,1.91.165,1.019,1.019,0,0,1,.814,1.183,1,1,0,0,1-1.169.81,9.339,9.339,0,0,0-1.559-.133,8.947,8.947,0,0,0-5,16.373,1.017,1.017,0,0,1,.269,1.405.987.987,0,0,1-.835.445Z" fill="#4a5162"/>
    <path id="Path_170128" data-name="Path 170128" d="M341.925,223.268l-3.463-4.036a1.109,1.109,0,0,0-1.613,0l-3.462,4.036a1.018,1.018,0,0,0,.108,1.43,1.039,1.039,0,0,0,.656.237,1,1,0,0,0,.767-.351l1.728-2.014v6.821a1.011,1.011,0,1,0,2.021,0v-6.817l1.728,2.014a1.009,1.009,0,0,0,.767.351,1.056,1.056,0,0,0,.66-.237,1.03,1.03,0,0,0,.1-1.434Z" transform="translate(-100.277 -90.914)" fill="#4a5162"/>
  </g>
</svg>
