<svg xmlns="http://www.w3.org/2000/svg" width="78.576" height="74.885" viewBox="0 0 78.576 74.885">
  <g id="ZJE27B.tif" transform="translate(535.211 -1346.566)">
    <g id="Group_54858" data-name="Group 54858" transform="translate(-535.211 1346.566)">
      <path id="Path_170183" data-name="Path 170183" d="M-496.028,1346.566a2.84,2.84,0,0,1,2.794,1.775c3.342,6.817,6.721,13.616,10.063,20.433a1.383,1.383,0,0,0,1.2.884c7.435,1.054,14.865,2.151,22.3,3.224,2.148.31,3.3,1.442,2.987,3.2a3.8,3.8,0,0,1-1.062,1.892q-8.151,8.038-16.38,16a1.242,1.242,0,0,0-.419,1.272c1.324,7.595,2.608,15.2,3.913,22.8a2.711,2.711,0,0,1-1.1,2.886,2.753,2.753,0,0,1-3.092.095q-10.153-5.349-20.311-10.691a1.4,1.4,0,0,0-1.5-.021q-10.067,5.329-20.158,10.612a3.084,3.084,0,0,1-2.642.352,2.717,2.717,0,0,1-1.759-3.1q1.7-10.041,3.428-20.076c.16-.936.263-1.885.488-2.8a1.244,1.244,0,0,0-.428-1.35c-5.355-5.193-10.683-10.414-16.044-15.6-1.013-.98-1.8-2-1.311-3.478.5-1.53,1.8-1.82,3.209-2.02,7.35-1.04,14.693-2.136,22.042-3.183a1.323,1.323,0,0,0,1.141-.844c3.358-6.841,6.746-13.668,10.1-20.51A2.747,2.747,0,0,1-496.028,1346.566Z" transform="translate(535.211 -1346.566)" fill="#159576"/>
    </g>
  </g>
</svg>
