<svg xmlns="http://www.w3.org/2000/svg" width="20" height="18.607" viewBox="0 0 20 18.607">
  <g id="Group_55576" data-name="Group 55576" transform="translate(-589 -2347.393)">
    <path id="ic_card_membership_24px" d="M20,2H4A1.993,1.993,0,0,0,2,4V15a1.993,1.993,0,0,0,2,2H20a1.993,1.993,0,0,0,2-2V4A1.993,1.993,0,0,0,20,2Zm0,13H4V10H20Zm0-5H4V4H20Z" transform="translate(587 2345.393)" fill="#f1f3f5"/>
    <g id="Rectangle_36202" data-name="Rectangle 36202" transform="translate(593 2364)" fill="#f1f3f5" stroke="#f1f3f5" stroke-width="1">
      <rect width="12" height="2" stroke="none"/>
      <rect x="0.5" y="0.5" width="11" height="1" fill="none"/>
    </g>
    <g id="Rectangle_36203" data-name="Rectangle 36203" transform="translate(598 2362)" fill="#f1f3f5" stroke="#f1f3f5" stroke-width="1">
      <rect width="2" height="2" stroke="none"/>
      <rect x="0.5" y="0.5" width="1" height="1" fill="none"/>
    </g>
  </g>
</svg>
