<svg xmlns="http://www.w3.org/2000/svg" xmlns:xlink="http://www.w3.org/1999/xlink" width="461" height="332" viewBox="0 0 461 332">
  <defs>
    <filter id="Rectangle_33814" x="0" y="0" width="461" height="332" filterUnits="userSpaceOnUse">
      <feOffset dy="3" input="SourceAlpha"/>
      <feGaussianBlur stdDeviation="3" result="blur"/>
      <feFlood flood-opacity="0.161"/>
      <feComposite operator="in" in2="blur"/>
      <feComposite in="SourceGraphic"/>
    </filter>
    <linearGradient id="linear-gradient" x1="0.5" x2="0.5" y2="1" gradientUnits="objectBoundingBox">
      <stop offset="0" stop-color="#eaecee"/>
      <stop offset="1" stop-color="#e8eaec"/>
    </linearGradient>
  </defs>
  <g id="Group_55290" data-name="Group 55290" transform="translate(-1420 -651)">
    <g id="Group_55280" data-name="Group 55280" transform="translate(1035 401)">
      <g id="Group_50661" data-name="Group 50661" transform="translate(394 256)">
        <g transform="matrix(1, 0, 0, 1, -9, -6)" filter="url(#Rectangle_33814)">
          <g id="Rectangle_33814-2" data-name="Rectangle 33814" transform="translate(9 6)" fill="#fff" stroke="#d3dbe2" stroke-width="1" opacity="0.44">
            <rect width="443" height="314" rx="8" stroke="none"/>
            <rect x="0.5" y="0.5" width="442" height="313" rx="7.5" fill="none"/>
          </g>
        </g>
        <path id="Rectangle_33815" data-name="Rectangle 33815" d="M7,0H436a7,7,0,0,1,7,7V22a0,0,0,0,1,0,0H0a0,0,0,0,1,0,0V7A7,7,0,0,1,7,0Z" fill="url(#linear-gradient)"/>
        <circle id="Ellipse_8468" data-name="Ellipse 8468" cx="4.5" cy="4.5" r="4.5" transform="translate(16 8)" fill="#fff"/>
        <circle id="Ellipse_8469" data-name="Ellipse 8469" cx="4.5" cy="4.5" r="4.5" transform="translate(28 8)" fill="#fff"/>
        <circle id="Ellipse_8470" data-name="Ellipse 8470" cx="4.5" cy="4.5" r="4.5" transform="translate(40 8)" fill="#fff"/>
        <path id="Path_170651" data-name="Path 170651" d="M0,0H443V45.154H0Z" transform="translate(0 49)" fill="#a0c9ea"/>
        <rect id="Rectangle_33818" data-name="Rectangle 33818" width="19" height="5" rx="2.5" transform="translate(327 35)" fill="#d1dbe3" opacity="0.797"/>
        <rect id="Rectangle_33819" data-name="Rectangle 33819" width="19" height="5" rx="2.5" transform="translate(354 35)" fill="#d1dbe3" opacity="0.797"/>
        <rect id="Rectangle_33820" data-name="Rectangle 33820" width="19" height="5" rx="2.5" transform="translate(382 35)" fill="#d1dbe3" opacity="0.797"/>
        <rect id="Rectangle_33859" data-name="Rectangle 33859" width="53" height="11" rx="5.5" transform="translate(40 30)" fill="#d3dbe2" opacity="0.803"/>
      </g>
      <g id="noun_Arrow_55902" transform="translate(524.51 484.866)">
        <g id="Group_51823" data-name="Group 51823" transform="translate(0)">
          <path id="Path_167682" data-name="Path 167682" d="M60.248,45.9a.387.387,0,0,1-.312-.144.42.42,0,0,1,.024-.6l1.247-1.151L59.961,42.86a.424.424,0,1,1,.575-.623L62.118,43.7a.41.41,0,0,1,0,.623l-1.582,1.462A.442.442,0,0,1,60.248,45.9Z" transform="translate(-52.674 -42.122)" fill="#d1dbe3"/>
          <path id="Path_167683" data-name="Path 167683" d="M38.51,48.963H30.431a.431.431,0,0,1,0-.863H38.51a.431.431,0,0,1,0,.863Z" transform="translate(-30 -46.667)" fill="#d1dbe3"/>
        </g>
        <g id="Group_51824" data-name="Group 51824" transform="translate(42.097)">
          <path id="Path_167682-2" data-name="Path 167682" d="M60.248,45.9a.387.387,0,0,1-.312-.144.42.42,0,0,1,.024-.6l1.247-1.151L59.961,42.86a.424.424,0,1,1,.575-.623L62.118,43.7a.41.41,0,0,1,0,.623l-1.582,1.462A.442.442,0,0,1,60.248,45.9Z" transform="translate(-52.674 -42.122)" fill="#d1dbe3"/>
          <path id="Path_167683-2" data-name="Path 167683" d="M38.51,48.963H30.431a.431.431,0,0,1,0-.863H38.51a.431.431,0,0,1,0,.863Z" transform="translate(-30 -46.667)" fill="#d1dbe3"/>
        </g>
      </g>
    </g>
    <rect id="Rectangle_36126" data-name="Rectangle 36126" width="368" height="42" rx="5" transform="translate(1471 775)" fill="#8ac297" opacity="0.722"/>
    <g id="Group_55281" data-name="Group 55281" transform="translate(964 20)">
      <g id="Rectangle_36006" data-name="Rectangle 36006" transform="translate(602 768)" fill="#fff" stroke="#d1dbe3" stroke-width="1">
        <rect width="189" height="20" rx="3" stroke="none"/>
        <rect x="0.5" y="0.5" width="188" height="19" rx="2.5" fill="none"/>
      </g>
    </g>
    <path id="Rectangle_36135" data-name="Rectangle 36135" d="M0,0H34a3,3,0,0,1,3,3V17a3,3,0,0,1-3,3H0a0,0,0,0,1,0,0V0A0,0,0,0,1,0,0Z" transform="translate(1718 788)" fill="#86c2e6"/>
    <rect id="Rectangle_36136" data-name="Rectangle 36136" width="103" height="35" rx="6" transform="translate(1466 857.268)" fill="#cde3f5" opacity="0.802"/>
    <rect id="Rectangle_36137" data-name="Rectangle 36137" width="102" height="6" rx="3" transform="translate(1467 924.268)" fill="#d1dbe3" opacity="0.802"/>
    <rect id="Rectangle_36138" data-name="Rectangle 36138" width="102" height="5" rx="2.5" transform="translate(1467 912.268)" fill="#d1dbe3" opacity="0.802"/>
    <rect id="Rectangle_36139" data-name="Rectangle 36139" width="102" height="6" rx="3" transform="translate(1467 900.268)" fill="#d1dbe3" opacity="0.802"/>
    <rect id="Rectangle_36140" data-name="Rectangle 36140" width="163" height="9" rx="4.5" transform="translate(1563 837.268)" fill="#cde3f5" opacity="0.804"/>
    <rect id="Rectangle_36141" data-name="Rectangle 36141" width="103" height="35" rx="6" transform="translate(1599 857.268)" fill="#cde3f5" opacity="0.802"/>
    <rect id="Rectangle_36142" data-name="Rectangle 36142" width="102" height="6" rx="3" transform="translate(1600 924.268)" fill="#d1dbe3" opacity="0.802"/>
    <rect id="Rectangle_36143" data-name="Rectangle 36143" width="102" height="5" rx="2.5" transform="translate(1600 912.268)" fill="#d1dbe3" opacity="0.802"/>
    <rect id="Rectangle_36144" data-name="Rectangle 36144" width="102" height="6" rx="3" transform="translate(1600 900.268)" fill="#d1dbe3" opacity="0.802"/>
    <rect id="Rectangle_36145" data-name="Rectangle 36145" width="103" height="35" rx="6" transform="translate(1726 857.268)" fill="#cde3f5" opacity="0.802"/>
    <rect id="Rectangle_36146" data-name="Rectangle 36146" width="102" height="6" rx="3" transform="translate(1727 924.268)" fill="#d1dbe3" opacity="0.802"/>
    <rect id="Rectangle_36147" data-name="Rectangle 36147" width="102" height="5" rx="2.5" transform="translate(1727 912.268)" fill="#d1dbe3" opacity="0.802"/>
    <rect id="Rectangle_36148" data-name="Rectangle 36148" width="102" height="6" rx="3" transform="translate(1727 900.268)" fill="#d1dbe3" opacity="0.802"/>
  </g>
</svg>
