<svg xmlns="http://www.w3.org/2000/svg" xmlns:xlink="http://www.w3.org/1999/xlink" width="461" height="332" viewBox="0 0 461 332">
  <defs>
    <filter id="Rectangle_33814" x="0" y="0" width="461" height="332" filterUnits="userSpaceOnUse">
      <feOffset dy="3" input="SourceAlpha"/>
      <feGaussianBlur stdDeviation="3" result="blur"/>
      <feFlood flood-opacity="0.161"/>
      <feComposite operator="in" in2="blur"/>
      <feComposite in="SourceGraphic"/>
    </filter>
    <linearGradient id="linear-gradient" x1="0.5" x2="0.5" y2="1" gradientUnits="objectBoundingBox">
      <stop offset="0" stop-color="#eaecee"/>
      <stop offset="1" stop-color="#e8eaec"/>
    </linearGradient>
  </defs>
  <g id="Group_56087" data-name="Group 56087" transform="translate(-1120 -1049)">
    <g id="Group_55241" data-name="Group 55241" transform="translate(727 770)">
      <g id="Group_50661" data-name="Group 50661" transform="translate(402 285)">
        <g transform="matrix(1, 0, 0, 1, -9, -6)" filter="url(#Rectangle_33814)">
          <g id="Rectangle_33814-2" data-name="Rectangle 33814" transform="translate(9 6)" fill="#fff" stroke="#d3dbe2" stroke-width="1" opacity="0.44">
            <rect width="443" height="314" rx="8" stroke="none"/>
            <rect x="0.5" y="0.5" width="442" height="313" rx="7.5" fill="none"/>
          </g>
        </g>
        <path id="Rectangle_33815" data-name="Rectangle 33815" d="M7,0H436a7,7,0,0,1,7,7V22a0,0,0,0,1,0,0H0a0,0,0,0,1,0,0V7A7,7,0,0,1,7,0Z" fill="url(#linear-gradient)"/>
        <circle id="Ellipse_8468" data-name="Ellipse 8468" cx="4.5" cy="4.5" r="4.5" transform="translate(16 8)" fill="#fff"/>
        <circle id="Ellipse_8469" data-name="Ellipse 8469" cx="4.5" cy="4.5" r="4.5" transform="translate(28 8)" fill="#fff"/>
        <circle id="Ellipse_8470" data-name="Ellipse 8470" cx="4.5" cy="4.5" r="4.5" transform="translate(40 8)" fill="#fff"/>
        <path id="Path_170651" data-name="Path 170651" d="M0,0H443V150.15H0Z" transform="translate(0 89)" fill="#f0f3f5"/>
      </g>
      <g id="noun_Arrow_55902" transform="translate(524.51 484.866)">
        <g id="Group_51823" data-name="Group 51823" transform="translate(0)">
          <path id="Path_167682" data-name="Path 167682" d="M60.248,45.9a.387.387,0,0,1-.312-.144.42.42,0,0,1,.024-.6l1.247-1.151L59.961,42.86a.424.424,0,1,1,.575-.623L62.118,43.7a.41.41,0,0,1,0,.623l-1.582,1.462A.442.442,0,0,1,60.248,45.9Z" transform="translate(-52.674 -42.122)" fill="#d1dbe3"/>
          <path id="Path_167683" data-name="Path 167683" d="M38.51,48.963H30.431a.431.431,0,0,1,0-.863H38.51a.431.431,0,0,1,0,.863Z" transform="translate(-30 -46.667)" fill="#d1dbe3"/>
        </g>
        <g id="Group_51824" data-name="Group 51824" transform="translate(42.097)">
          <path id="Path_167682-2" data-name="Path 167682" d="M60.248,45.9a.387.387,0,0,1-.312-.144.42.42,0,0,1,.024-.6l1.247-1.151L59.961,42.86a.424.424,0,1,1,.575-.623L62.118,43.7a.41.41,0,0,1,0,.623l-1.582,1.462A.442.442,0,0,1,60.248,45.9Z" transform="translate(-52.674 -42.122)" fill="#d1dbe3"/>
          <path id="Path_167683-2" data-name="Path 167683" d="M38.51,48.963H30.431a.431.431,0,0,1,0-.863H38.51a.431.431,0,0,1,0,.863Z" transform="translate(-30 -46.667)" fill="#d1dbe3"/>
        </g>
      </g>
      <text id="_404_" data-name="404 " transform="translate(533 394)" fill="#a0c9ea" font-size="100" font-family="SegoeUI-Bold, Segoe UI" font-weight="700"><tspan x="0" y="108">404 </tspan></text>
    </g>
    <text id="Page_not_found" data-name="Page not found" transform="translate(1284 1128.999)" fill="#a1a5ad" font-size="20" font-family="SegoeUI, Segoe UI"><tspan x="0" y="0">Page not found</tspan></text>
  </g>
</svg>
