<svg xmlns="http://www.w3.org/2000/svg" xmlns:xlink="http://www.w3.org/1999/xlink" width="460" height="334" viewBox="0 0 460 334">
  <defs>
    <filter id="Rectangle_33814" x="0" y="0" width="460" height="334" filterUnits="userSpaceOnUse">
      <feOffset dy="3" input="SourceAlpha"/>
      <feGaussianBlur stdDeviation="3" result="blur"/>
      <feFlood flood-opacity="0.161"/>
      <feComposite operator="in" in2="blur"/>
      <feComposite in="SourceGraphic"/>
    </filter>
    <linearGradient id="linear-gradient" x1="0.5" x2="0.5" y2="1" gradientUnits="objectBoundingBox">
      <stop offset="0" stop-color="#eaecee"/>
      <stop offset="1" stop-color="#e8eaec"/>
    </linearGradient>
  </defs>
  <g id="Group_55235" data-name="Group 55235" transform="translate(-1419 -559)">
    <g transform="matrix(1, 0, 0, 1, 1419, 559)" filter="url(#Rectangle_33814)">
      <g id="Rectangle_33814-2" data-name="Rectangle 33814" transform="translate(9 6)" fill="#fff" stroke="#d3dbe2" stroke-width="1" opacity="0.44">
        <rect width="442" height="316" rx="8" stroke="none"/>
        <rect x="0.5" y="0.5" width="441" height="315" rx="7.5" fill="none"/>
      </g>
    </g>
    <path id="Rectangle_33815" data-name="Rectangle 33815" d="M7,0H435a7,7,0,0,1,7,7V22a0,0,0,0,1,0,0H0a0,0,0,0,1,0,0V7A7,7,0,0,1,7,0Z" transform="translate(1428 565)" fill="url(#linear-gradient)"/>
    <circle id="Ellipse_8468" data-name="Ellipse 8468" cx="4" cy="4" r="4" transform="translate(1444 573)" fill="#fff"/>
    <circle id="Ellipse_8469" data-name="Ellipse 8469" cx="4" cy="4" r="4" transform="translate(1457 573)" fill="#fff"/>
    <circle id="Ellipse_8470" data-name="Ellipse 8470" cx="4" cy="4" r="4" transform="translate(1469 573)" fill="#fff"/>
    <path id="Path_170654" data-name="Path 170654" d="M0,0H442V125H0Z" transform="translate(1428 614)" fill="#98d8af"/>
    <rect id="Rectangle_33818" data-name="Rectangle 33818" width="20" height="5" rx="2.5" transform="translate(1753 600)" fill="#d1dbe3" opacity="0.797"/>
    <rect id="Rectangle_33819" data-name="Rectangle 33819" width="19" height="5" rx="2.5" transform="translate(1781 600)" fill="#d1dbe3" opacity="0.797"/>
    <rect id="Rectangle_33820" data-name="Rectangle 33820" width="19" height="5" rx="2.5" transform="translate(1809 600)" fill="#d1dbe3" opacity="0.797"/>
    <rect id="Rectangle_33830" data-name="Rectangle 33830" width="41" height="35" rx="6" transform="translate(1471 830)" fill="#d1dbe3" opacity="0.802"/>
    <rect id="Rectangle_33831" data-name="Rectangle 33831" width="41" height="35" rx="6" transform="translate(1524 830)" fill="#d1dbe3" opacity="0.802"/>
    <rect id="Rectangle_33832" data-name="Rectangle 33832" width="41" height="35" rx="6" transform="translate(1577 830)" fill="#d1dbe3" opacity="0.802"/>
    <rect id="Rectangle_33833" data-name="Rectangle 33833" width="41" height="35" rx="6" transform="translate(1684 830)" fill="#d1dbe3" opacity="0.802"/>
    <rect id="Rectangle_33834" data-name="Rectangle 33834" width="41" height="35" rx="6" transform="translate(1737 830)" fill="#d1dbe3" opacity="0.802"/>
    <rect id="Rectangle_33835" data-name="Rectangle 33835" width="42" height="35" rx="6" transform="translate(1790 830)" fill="#d1dbe3" opacity="0.802"/>
    <rect id="Rectangle_33846" data-name="Rectangle 33846" width="95" height="5" rx="2.5" transform="translate(1469 767)" fill="#d1dbe3" opacity="0.802"/>
    <rect id="Rectangle_33847" data-name="Rectangle 33847" width="95" height="6" rx="3" transform="translate(1469 755)" fill="#d1dbe3" opacity="0.802"/>
    <rect id="Rectangle_33848" data-name="Rectangle 33848" width="96" height="5" rx="2.5" transform="translate(1603 779)" fill="#d1dbe3" opacity="0.802"/>
    <rect id="Rectangle_33849" data-name="Rectangle 33849" width="96" height="5" rx="2.5" transform="translate(1603 767)" fill="#d1dbe3" opacity="0.802"/>
    <rect id="Rectangle_33850" data-name="Rectangle 33850" width="96" height="6" rx="3" transform="translate(1603 755)" fill="#d1dbe3" opacity="0.802"/>
    <rect id="Rectangle_33852" data-name="Rectangle 33852" width="96" height="5" rx="2.5" transform="translate(1737 767)" fill="#d1dbe3" opacity="0.802"/>
    <rect id="Rectangle_33853" data-name="Rectangle 33853" width="96" height="6" rx="3" transform="translate(1737 755)" fill="#d1dbe3" opacity="0.802"/>
    <rect id="Rectangle_33854" data-name="Rectangle 33854" width="41" height="35" rx="6" transform="translate(1631 830)" fill="#d1dbe3" opacity="0.802"/>
    <rect id="Rectangle_33855" data-name="Rectangle 33855" width="165" height="9" rx="4.5" transform="translate(1571 809)" fill="#c2def4" opacity="0.804"/>
    <rect id="Rectangle_33866" data-name="Rectangle 33866" width="204" height="16" rx="8" transform="translate(1547 649)" fill="#d9e1e7"/>
    <path id="Path_170655" data-name="Path 170655" d="M4.5,0h104a4.5,4.5,0,0,1,0,9H4.5a4.5,4.5,0,0,1,0-9Z" transform="translate(1593 674)" fill="#d6e7f6"/>
    <rect id="Rectangle_33868" data-name="Rectangle 33868" width="52" height="11" rx="5.5" transform="translate(1469 595)" fill="#d3dbe2" opacity="0.803"/>
  </g>
</svg>
