<svg xmlns="http://www.w3.org/2000/svg" xmlns:xlink="http://www.w3.org/1999/xlink" width="461" height="332" viewBox="0 0 461 332">
  <defs>
    <filter id="Rectangle_33814" x="0" y="0" width="461" height="332" filterUnits="userSpaceOnUse">
      <feOffset dy="3" input="SourceAlpha"/>
      <feGaussianBlur stdDeviation="3" result="blur"/>
      <feFlood flood-opacity="0.161"/>
      <feComposite operator="in" in2="blur"/>
      <feComposite in="SourceGraphic"/>
    </filter>
    <linearGradient id="linear-gradient" x1="0.5" x2="0.5" y2="1" gradientUnits="objectBoundingBox">
      <stop offset="0" stop-color="#eaecee"/>
      <stop offset="1" stop-color="#e8eaec"/>
    </linearGradient>
  </defs>
  <g id="Group_56086" data-name="Group 56086" transform="translate(-840.746 -820.824)">
    <g id="Group_55240" data-name="Group 55240" transform="translate(455.746 570.824)">
      <g id="Group_50661" data-name="Group 50661" transform="translate(394 256)">
        <g transform="matrix(1, 0, 0, 1, -9, -6)" filter="url(#Rectangle_33814)">
          <g id="Rectangle_33814-2" data-name="Rectangle 33814" transform="translate(9 6)" fill="#fff" stroke="#d3dbe2" stroke-width="1" opacity="0.44">
            <rect width="443" height="314" rx="8" stroke="none"/>
            <rect x="0.5" y="0.5" width="442" height="313" rx="7.5" fill="none"/>
          </g>
        </g>
        <path id="Rectangle_33815" data-name="Rectangle 33815" d="M7,0H436a7,7,0,0,1,7,7V22a0,0,0,0,1,0,0H0a0,0,0,0,1,0,0V7A7,7,0,0,1,7,0Z" fill="url(#linear-gradient)"/>
        <circle id="Ellipse_8468" data-name="Ellipse 8468" cx="4.5" cy="4.5" r="4.5" transform="translate(16 8)" fill="#fff"/>
        <circle id="Ellipse_8469" data-name="Ellipse 8469" cx="4.5" cy="4.5" r="4.5" transform="translate(28 8)" fill="#fff"/>
        <circle id="Ellipse_8470" data-name="Ellipse 8470" cx="4.5" cy="4.5" r="4.5" transform="translate(40 8)" fill="#fff"/>
        <path id="Path_170651" data-name="Path 170651" d="M0,0H443V45.154H0Z" transform="translate(0 49)" fill="#a0c9ea"/>
        <rect id="Rectangle_33818" data-name="Rectangle 33818" width="19" height="5" rx="2.5" transform="translate(327 35)" fill="#d1dbe3" opacity="0.797"/>
        <rect id="Rectangle_33819" data-name="Rectangle 33819" width="19" height="5" rx="2.5" transform="translate(354 35)" fill="#d1dbe3" opacity="0.797"/>
        <rect id="Rectangle_33820" data-name="Rectangle 33820" width="19" height="5" rx="2.5" transform="translate(382 35)" fill="#d1dbe3" opacity="0.797"/>
        <rect id="Rectangle_33859" data-name="Rectangle 33859" width="53" height="11" rx="5.5" transform="translate(40 30)" fill="#d3dbe2" opacity="0.803"/>
      </g>
      <g id="noun_Arrow_55902" transform="translate(524.51 484.866)">
        <g id="Group_51823" data-name="Group 51823" transform="translate(0)">
          <path id="Path_167682" data-name="Path 167682" d="M60.248,45.9a.387.387,0,0,1-.312-.144.42.42,0,0,1,.024-.6l1.247-1.151L59.961,42.86a.424.424,0,1,1,.575-.623L62.118,43.7a.41.41,0,0,1,0,.623l-1.582,1.462A.442.442,0,0,1,60.248,45.9Z" transform="translate(-52.674 -42.122)" fill="#d1dbe3"/>
          <path id="Path_167683" data-name="Path 167683" d="M38.51,48.963H30.431a.431.431,0,0,1,0-.863H38.51a.431.431,0,0,1,0,.863Z" transform="translate(-30 -46.667)" fill="#d1dbe3"/>
        </g>
        <g id="Group_51824" data-name="Group 51824" transform="translate(42.097)">
          <path id="Path_167682-2" data-name="Path 167682" d="M60.248,45.9a.387.387,0,0,1-.312-.144.42.42,0,0,1,.024-.6l1.247-1.151L59.961,42.86a.424.424,0,1,1,.575-.623L62.118,43.7a.41.41,0,0,1,0,.623l-1.582,1.462A.442.442,0,0,1,60.248,45.9Z" transform="translate(-52.674 -42.122)" fill="#d1dbe3"/>
          <path id="Path_167683-2" data-name="Path 167683" d="M38.51,48.963H30.431a.431.431,0,0,1,0-.863H38.51a.431.431,0,0,1,0,.863Z" transform="translate(-30 -46.667)" fill="#d1dbe3"/>
        </g>
      </g>
    </g>
    <g id="Group_56085" data-name="Group 56085">
      <g id="Group_56081" data-name="Group 56081">
        <rect id="Rectangle_36116" data-name="Rectangle 36116" width="255.983" height="4.732" rx="2.366" transform="translate(867.746 904.586)" fill="#fff" opacity="0.709"/>
        <rect id="Rectangle_36117" data-name="Rectangle 36117" width="255.983" height="4.732" rx="2.366" transform="translate(867.746 895.121)" fill="#fff" opacity="0.709"/>
      </g>
      <g id="Group_56084" data-name="Group 56084">
        <g id="Group_56082" data-name="Group 56082">
          <rect id="Rectangle_36110" data-name="Rectangle 36110" width="255" height="7" rx="3.5" transform="translate(874.746 958.824)" fill="#d1dbe3"/>
          <rect id="Rectangle_36111" data-name="Rectangle 36111" width="255" height="7" rx="3.5" transform="translate(874.746 971.824)" fill="#d1dbe3"/>
          <rect id="Rectangle_36112" data-name="Rectangle 36112" width="119" height="7" rx="3.5" transform="translate(875.746 986.824)" fill="#d1dbe3"/>
          <rect id="Rectangle_36113" data-name="Rectangle 36113" width="255" height="7" rx="3.5" transform="translate(874.746 1010.824)" fill="#d1dbe3"/>
          <rect id="Rectangle_36114" data-name="Rectangle 36114" width="255" height="7" rx="3.5" transform="translate(874.746 1025.824)" fill="#d1dbe3"/>
          <rect id="Rectangle_36115" data-name="Rectangle 36115" width="119" height="7" rx="3.5" transform="translate(874.746 1056.824)" fill="#d1dbe3"/>
          <rect id="Rectangle_36118" data-name="Rectangle 36118" width="255" height="7" rx="3.5" transform="translate(874.746 1040.824)" fill="#d1dbe3"/>
        </g>
        <g id="Group_56083" data-name="Group 56083">
          <g id="Path_170660" data-name="Path 170660" transform="translate(1156.746 951.824)" fill="#fff">
            <path d="M 94 142 L 29.65811920166016 142 L 8 142 C 6.193359851837158 142 4.472559928894043 140.9922790527344 3.154580116271973 139.1624450683594 C 1.765179991722107 137.2334747314453 1 134.6518859863281 1 131.8932037353516 L 1 11.1068000793457 C 1 8.348119735717773 1.765179991722107 5.766520023345947 3.154580116271973 3.837559938430786 C 4.472559928894043 2.007740020751953 6.193359851837158 1 8 1 L 94 1 C 95.806640625 1 97.52744293212891 2.007740020751953 98.84542083740234 3.837559938430786 C 100.2348175048828 5.766520023345947 101 8.348119735717773 101 11.1068000793457 L 101 131.8932037353516 C 101 134.6518859863281 100.2348175048828 137.2334747314453 98.84542083740234 139.1624450683594 C 97.52744293212891 140.9922790527344 95.806640625 142 94 142 Z" stroke="none"/>
            <path d="M 8 2 C 6.523597717285156 2 5.090980529785156 2.860153198242188 3.96600341796875 4.422027587890625 C 2.698196411132812 6.182159423828125 2 8.556198120117188 2 11.10679626464844 L 2 131.8932037353516 C 2 134.4438018798828 2.698196411132812 136.8178405761719 3.96600341796875 138.5779724121094 C 5.090980529785156 140.1398468017578 6.523597717285156 141 8 141 L 94 141 C 95.47640228271484 141 96.90901947021484 140.1398468017578 98.03399658203125 138.5779724121094 C 99.30180358886719 136.8178405761719 100 134.4438018798828 100 131.8932037353516 L 100 11.10679626464844 C 100 8.556198120117188 99.30180358886719 6.182159423828125 98.03399658203125 4.422027587890625 C 96.90901947021484 2.860153198242188 95.47640228271484 2 94 2 L 8 2 M 8 0 L 94 0 C 98.41828155517578 0 102 4.972686767578125 102 11.10679626464844 L 102 131.8932037353516 C 102 138.0273132324219 98.41828155517578 143 94 143 L 8 143 C 3.581718444824219 143 0 138.0273132324219 0 131.8932037353516 L 0 11.10679626464844 C 0 4.972686767578125 3.581718444824219 0 8 0 Z" stroke="none" fill="#d1dbe3"/>
          </g>
          <rect id="Rectangle_36023" data-name="Rectangle 36023" width="59" height="4" rx="2" transform="translate(1187.746 983.824)" fill="#d1dbe3" opacity="0.709"/>
          <rect id="Rectangle_36024" data-name="Rectangle 36024" width="59" height="4" rx="2" transform="translate(1187.746 975.824)" fill="#dee5eb" opacity="0.709"/>
          <circle id="Ellipse_8571" data-name="Ellipse 8571" cx="5" cy="5" r="5" transform="translate(1170.744 973.824)" fill="#86c2e6" opacity="0.463"/>
          <rect id="Rectangle_36119" data-name="Rectangle 36119" width="59" height="4" rx="2" transform="translate(1187.746 1021.824)" fill="#d1dbe3" opacity="0.709"/>
          <rect id="Rectangle_36120" data-name="Rectangle 36120" width="59" height="4" rx="2" transform="translate(1187.746 1010.824)" fill="#dee5eb" opacity="0.709"/>
          <rect id="Rectangle_36121" data-name="Rectangle 36121" width="59" height="4" rx="2" transform="translate(1187.746 1036.824)" fill="#d1dbe3" opacity="0.709"/>
          <circle id="Ellipse_8572" data-name="Ellipse 8572" cx="5" cy="5" r="5" transform="translate(1170.744 1008.824)" fill="#d7c5dc" opacity="0.463"/>
          <rect id="Rectangle_36122" data-name="Rectangle 36122" width="59" height="4" rx="2" transform="translate(1187.746 1056.824)" fill="#d1dbe3" opacity="0.709"/>
          <rect id="Rectangle_36123" data-name="Rectangle 36123" width="59" height="4" rx="2" transform="translate(1187.746 1046.824)" fill="#d1dbe3" opacity="0.709"/>
          <circle id="Ellipse_8573" data-name="Ellipse 8573" cx="5" cy="5" r="5" transform="translate(1170.744 1035.824)" fill="#98d8af" opacity="0.463"/>
          <rect id="Rectangle_36124" data-name="Rectangle 36124" width="41" height="4" rx="2" transform="translate(1187.746 993.824)" fill="#d1dbe3" opacity="0.709"/>
        </g>
      </g>
    </g>
  </g>
</svg>
