<svg xmlns="http://www.w3.org/2000/svg" xmlns:xlink="http://www.w3.org/1999/xlink" width="461.618" height="339.853" viewBox="0 0 461.618 339.853">
  <defs>
    <filter id="Path_170652" x="0" y="0" width="461.618" height="339.853" filterUnits="userSpaceOnUse">
      <feOffset dy="3" input="SourceAlpha"/>
      <feGaussianBlur stdDeviation="3" result="blur"/>
      <feFlood flood-opacity="0.161"/>
      <feComposite operator="in" in2="blur"/>
      <feComposite in="SourceGraphic"/>
    </filter>
    <linearGradient id="linear-gradient" x1="0.5" x2="0.5" y2="1" gradientUnits="objectBoundingBox">
      <stop offset="0" stop-color="#eaecee"/>
      <stop offset="1" stop-color="#e8eaec"/>
    </linearGradient>
  </defs>
  <g id="Group_55289" data-name="Group 55289" transform="translate(-832.191 -1014.5)">
    <g id="Group_55288" data-name="Group 55288" transform="translate(-586.809 364)">
      <g id="Group_55286" data-name="Group 55286">
        <g id="Group_55284" data-name="Group 55284">
          <g id="Group_55236" data-name="Group 55236" transform="translate(1041 404.5)">
            <g transform="matrix(1, 0, 0, 1, 378, 246)" filter="url(#Path_170652)">
              <g id="Path_170652-2" data-name="Path 170652" transform="translate(9 6)" fill="#fff" opacity="0.44">
                <path d="M 435.267578125 321.35302734375 L 219.4830322265625 321.35302734375 L 8.350481033325195 321.35302734375 C 4.021702766418457 321.35302734375 0.4999806880950928 317.8870239257812 0.4999806880950928 313.6267395019531 L 0.4999806880950928 8.226291656494141 C 0.4999806880950928 3.966013669967651 4.021702766418457 0.5000136494636536 8.350481033325195 0.5000136494636536 L 435.267578125 0.5000136494636536 C 439.5963745117188 0.5000136494636536 443.1181030273438 3.966013669967651 443.1181030273438 8.226291656494141 L 443.1181030273438 313.6267395019531 C 443.1181030273438 317.8870239257812 439.5963745117188 321.35302734375 435.267578125 321.35302734375 Z" stroke="none"/>
                <path d="M 8.350494384765625 1 C 4.29742431640625 1 0.999969482421875 4.241729736328125 0.999969482421875 8.226287841796875 L 0.999969482421875 313.6267395019531 C 0.999969482421875 317.6112976074219 4.29742431640625 320.85302734375 8.350494384765625 320.85302734375 L 435.267578125 320.85302734375 C 439.3206481933594 320.85302734375 442.6181030273438 317.6112976074219 442.6181030273438 313.6267395019531 L 442.6181030273438 8.226287841796875 C 442.6181030273438 4.241729736328125 439.3206481933594 1 435.267578125 1 L 8.350494384765625 1 M 8.350494384765625 0 L 435.267578125 0 C 439.8794250488281 0 443.6181030273438 3.683013916015625 443.6181030273438 8.226287841796875 L 443.6181030273438 313.6267395019531 C 443.6181030273438 318.1699523925781 439.8794250488281 321.85302734375 435.267578125 321.85302734375 C 435.267578125 321.85302734375 326.2123107910156 321.85302734375 219.4830322265625 321.85302734375 C 112.7537536621094 321.85302734375 8.350494384765625 321.85302734375 8.350494384765625 321.85302734375 C 3.73858642578125 321.85302734375 -3.0517578125e-05 318.1699523925781 -3.0517578125e-05 313.6267395019531 L -3.0517578125e-05 8.226287841796875 C -3.0517578125e-05 3.683013916015625 3.73858642578125 0 8.350494384765625 0 Z" stroke="none" fill="#d3dbe2"/>
              </g>
            </g>
            <path id="Rectangle_33815" data-name="Rectangle 33815" d="M7,0H436a7,7,0,0,1,7,7V21a0,0,0,0,1,0,0H0a0,0,0,0,1,0,0V7A7,7,0,0,1,7,0Z" transform="translate(387 252.122)" fill="url(#linear-gradient)"/>
            <ellipse id="Ellipse_8468" data-name="Ellipse 8468" cx="4" cy="4.5" rx="4" ry="4.5" transform="translate(403 259.122)" fill="#fff"/>
            <ellipse id="Ellipse_8469" data-name="Ellipse 8469" cx="3.5" cy="4.5" rx="3.5" ry="4.5" transform="translate(415 259.122)" fill="#fff"/>
            <ellipse id="Ellipse_8470" data-name="Ellipse 8470" cx="5" cy="4.5" rx="5" ry="4.5" transform="translate(426 259.122)" fill="#fff"/>
            <rect id="Rectangle_33818" data-name="Rectangle 33818" width="19" height="4" rx="2" transform="translate(714 287.122)" fill="#d1dbe3" opacity="0.797"/>
            <rect id="Rectangle_33819" data-name="Rectangle 33819" width="19" height="4" rx="2" transform="translate(742 287.122)" fill="#d1dbe3" opacity="0.797"/>
            <rect id="Rectangle_33820" data-name="Rectangle 33820" width="19" height="4" rx="2" transform="translate(769 287.122)" fill="#d1dbe3" opacity="0.797"/>
            <rect id="Rectangle_33847" data-name="Rectangle 33847" width="251.263" height="6" rx="3" transform="translate(426 461.5)" fill="#d1dbe3" opacity="0.802"/>
            <rect id="Rectangle_33855" data-name="Rectangle 33855" width="163" height="9" rx="4.5" transform="translate(422 438.122)" fill="#cde3f5" opacity="0.804"/>
            <rect id="Rectangle_33868" data-name="Rectangle 33868" width="52" height="11" rx="5.5" transform="translate(416 287.122)" fill="#d3dbe2" opacity="0.803"/>
            <g id="Path_170658" data-name="Path 170658" transform="translate(695 311.5)" fill="#fff">
              <path d="M 94 102 L 29.65811347961426 102 L 8 102 C 4.140185832977295 102 1 98.85981750488281 1 95 L 1 8 C 1 4.140185832977295 4.140185832977295 1 8 1 L 94 1 C 97.85981750488281 1 101 4.140185832977295 101 8 L 101 95 C 101 98.85981750488281 97.85981750488281 102 94 102 Z" stroke="none"/>
              <path d="M 8 2 C 4.691581726074219 2 2 4.691581726074219 2 8 L 2 95 C 2 98.30841827392578 4.691581726074219 101 8 101 L 94 101 C 97.30841827392578 101 100 98.30841827392578 100 95 L 100 8 C 100 4.691581726074219 97.30841827392578 2 94 2 L 8 2 M 8 0 L 94 0 C 98.41827392578125 0 102 3.58172607421875 102 8 L 102 95 C 102 99.41827392578125 98.41827392578125 103 94 103 L 8 103 C 3.58172607421875 103 0 99.41827392578125 0 95 L 0 8 C 0 3.58172607421875 3.58172607421875 0 8 0 Z" stroke="none" fill="#d1dbe3"/>
            </g>
            <rect id="Rectangle_36081" data-name="Rectangle 36081" width="66.5" height="6" rx="3" transform="translate(712 363.122)" fill="#d1dbe3" opacity="0.802"/>
            <rect id="Rectangle_36082" data-name="Rectangle 36082" width="66.5" height="5" rx="2.5" transform="translate(712 351.122)" fill="#d1dbe3" opacity="0.802"/>
            <rect id="Rectangle_36083" data-name="Rectangle 36083" width="66.5" height="6" rx="3" transform="translate(712 339.122)" fill="#d1dbe3" opacity="0.802"/>
            <rect id="Rectangle_36084" data-name="Rectangle 36084" width="270" height="103" rx="6" transform="translate(419 311.5)" fill="#98d8af"/>
            <rect id="Rectangle_36104" data-name="Rectangle 36104" width="251.263" height="6" rx="3" transform="translate(426 476.5)" fill="#d1dbe3" opacity="0.802"/>
            <rect id="Rectangle_36105" data-name="Rectangle 36105" width="251.263" height="6" rx="3" transform="translate(426 492.5)" fill="#d1dbe3" opacity="0.802"/>
            <rect id="Rectangle_36106" data-name="Rectangle 36106" width="251.263" height="6" rx="3" transform="translate(426 507.5)" fill="#d1dbe3" opacity="0.802"/>
            <rect id="Rectangle_36107" data-name="Rectangle 36107" width="251.263" height="6" rx="3" transform="translate(426 523.5)" fill="#d1dbe3" opacity="0.802"/>
            <rect id="Rectangle_36108" data-name="Rectangle 36108" width="167" height="6.069" rx="3.034" transform="translate(426 539.5)" fill="#d1dbe3" opacity="0.802"/>
          </g>
        </g>
      </g>
      <g id="Group_55283" data-name="Group 55283">
        <rect id="Rectangle_36085" data-name="Rectangle 36085" width="110.724" height="6.625" rx="3.312" transform="translate(1480.252 739.495)" fill="#7fbee4" opacity="0.709"/>
      </g>
      <rect id="Rectangle_36086" data-name="Rectangle 36086" width="155.203" height="4.732" rx="2.366" transform="translate(1480.252 772.315)" fill="#fff" opacity="0.709"/>
      <rect id="Rectangle_36087" data-name="Rectangle 36087" width="155.203" height="4.732" rx="2.366" transform="translate(1480.252 762.851)" fill="#fff" opacity="0.709"/>
      <rect id="Rectangle_36088" data-name="Rectangle 36088" width="155.203" height="4.732" rx="2.366" transform="translate(1480.252 782.315)" fill="#fff" opacity="0.709"/>
    </g>
    <g id="Group_55287" data-name="Group 55287" transform="translate(-586.809 364)">
      <g id="Group_55282" data-name="Group 55282">
        <g id="Path_170659" data-name="Path 170659" transform="translate(1737 830)" fill="#fff">
          <path d="M 94 133.587646484375 L 29.65812683105469 133.587646484375 L 8 133.587646484375 C 6.181654453277588 133.587646484375 4.454690933227539 132.6396026611328 3.137272834777832 130.9181671142578 C 1.759036421775818 129.1172485351562 1 126.7080078125 1 124.1342391967773 L 1 10.45340538024902 C 1 7.879641532897949 1.759036421775818 5.470405101776123 3.137272834777832 3.669477701187134 C 4.454690933227539 1.948041439056396 6.181654453277588 1.000005006790161 8 1.000005006790161 L 94 1.000005006790161 C 95.81836700439453 1.000005006790161 97.54531097412109 1.948041439056396 98.86272430419922 3.669477701187134 C 100.240966796875 5.470405101776123 101 7.879641532897949 101 10.45340538024902 L 101 124.1342391967773 C 101 126.7080078125 100.240966796875 129.1172485351562 98.86272430419922 130.9181671142578 C 97.54531097412109 132.6396026611328 95.81836700439453 133.587646484375 94 133.587646484375 Z" stroke="none"/>
          <path d="M 8 2 C 6.500160217285156 2 5.05523681640625 2.808731079101562 3.931396484375 4.2772216796875 C 2.685905456542969 5.904678344726562 2 8.098075866699219 2 10.45340728759766 L 2 124.1342391967773 C 2 126.4895706176758 2.685905456542969 128.6829681396484 3.931396484375 130.3104248046875 C 5.05523681640625 131.7789154052734 6.500160217285156 132.587646484375 8 132.587646484375 L 94 132.587646484375 C 95.49983978271484 132.587646484375 96.94474792480469 131.7789154052734 98.068603515625 130.3104248046875 C 99.31407165527344 128.6829681396484 100 126.4895706176758 100 124.1342391967773 L 100 10.45340728759766 C 100 8.098075866699219 99.31407165527344 5.904678344726562 98.068603515625 4.2772216796875 C 96.94474792480469 2.808731079101562 95.49983978271484 2 94 2 L 8 2 M 8 0 L 94 0 C 98.41827392578125 0 102 4.680145263671875 102 10.45340728759766 L 102 124.1342391967773 C 102 129.9075012207031 98.41827392578125 134.587646484375 94 134.587646484375 L 8 134.587646484375 C 3.581710815429688 134.587646484375 0 129.9075012207031 0 124.1342391967773 L 0 10.45340728759766 C 0 4.680145263671875 3.581710815429688 0 8 0 Z" stroke="none" fill="#d1dbe3"/>
        </g>
        <rect id="Rectangle_36089" data-name="Rectangle 36089" width="22.5" height="20.089" rx="3" transform="translate(1753 845.622)" fill="#cde3f5" opacity="0.802"/>
        <rect id="Rectangle_36090" data-name="Rectangle 36090" width="22.5" height="20.089" rx="3" transform="translate(1753 878.622)" fill="#cde3f5" opacity="0.802"/>
        <rect id="Rectangle_36091" data-name="Rectangle 36091" width="22.5" height="20.089" rx="3" transform="translate(1753 911.622)" fill="#cde3f5" opacity="0.802"/>
        <rect id="Rectangle_36092" data-name="Rectangle 36092" width="45.693" height="2" rx="1" transform="translate(1780.117 852)" fill="#d1dbe3" opacity="0.802"/>
        <rect id="Rectangle_36093" data-name="Rectangle 36093" width="45.693" height="2" rx="1" transform="translate(1780.117 858)" fill="#d1dbe3" opacity="0.802"/>
        <rect id="Rectangle_36094" data-name="Rectangle 36094" width="45.693" height="2" rx="1" transform="translate(1780.117 847)" fill="#d1dbe3" opacity="0.802"/>
        <rect id="Rectangle_36095" data-name="Rectangle 36095" width="33.384" height="2" rx="1" transform="translate(1780.117 864)" fill="#d1dbe3" opacity="0.802"/>
        <rect id="Rectangle_36096" data-name="Rectangle 36096" width="45.693" height="2" rx="1" transform="translate(1780.117 884)" fill="#d1dbe3" opacity="0.802"/>
        <rect id="Rectangle_36097" data-name="Rectangle 36097" width="45.693" height="2" rx="1" transform="translate(1780.117 890)" fill="#d1dbe3" opacity="0.802"/>
        <rect id="Rectangle_36098" data-name="Rectangle 36098" width="45.693" height="2" rx="1" transform="translate(1780.117 879)" fill="#d1dbe3" opacity="0.802"/>
        <rect id="Rectangle_36099" data-name="Rectangle 36099" width="33.384" height="2" rx="1" transform="translate(1780.117 896)" fill="#d1dbe3" opacity="0.802"/>
        <rect id="Rectangle_36100" data-name="Rectangle 36100" width="45.693" height="2" rx="1" transform="translate(1780.117 918)" fill="#d1dbe3" opacity="0.802"/>
        <rect id="Rectangle_36101" data-name="Rectangle 36101" width="45.693" height="2" rx="1" transform="translate(1780.117 924)" fill="#d1dbe3" opacity="0.802"/>
        <rect id="Rectangle_36102" data-name="Rectangle 36102" width="45.693" height="2" rx="1" transform="translate(1780.117 913)" fill="#d1dbe3" opacity="0.802"/>
        <rect id="Rectangle_36103" data-name="Rectangle 36103" width="33.384" height="2" rx="1" transform="translate(1780.117 930)" fill="#d1dbe3" opacity="0.802"/>
      </g>
    </g>
  </g>
</svg>
