<svg width="21.621" height="18.25" xmlns="http://www.w3.org/2000/svg">
 <g>
  <title>Layer 1</title>
  <g id="Group_54519" data-name="Group 54519">
   <path id="Path_33104" data-name="Path 33104" d="m19.879,18.25l-18.137,0a1.769,1.769 0 0 1 -1.742,-1.796l0,-14.654a1.769,1.769 0 0 1 1.742,-1.8l18.137,0a1.769,1.769 0 0 1 1.742,1.8l0,14.654a1.769,1.769 0 0 1 -1.742,1.8l0,-0.004zm-18.137,-16.85a0.39,0.39 0 0 0 -0.384,0.4l0,14.654a0.39,0.39 0 0 0 0.384,0.4l18.137,0a0.39,0.39 0 0 0 0.38,-0.4l0,-14.654a0.39,0.39 0 0 0 -0.38,-0.4l-18.137,0z" fill="#a0a8b7"/>
   <path id="Path_33105" data-name="Path 33105" d="m4.82799,15.67801l11.96,0a0.513,0.513 0 0 0 0.468,-0.376a0.928,0.928 0 0 0 -0.041,-0.743l-1.65,-3.078a0.5,0.5 0 0 0 -0.371,-0.289a0.44,0.44 0 0 0 -0.4,0.2l-1.7,2.217l-3.935,-7.342a0.48,0.48 0 0 0 -0.427,-0.287a0.5,0.5 0 0 0 -0.414,0.32l-3.932,8.292a0.933,0.933 0 0 0 -0.017,0.726a0.507,0.507 0 0 0 0.459,0.36z" fill="#a0a8b7"/>
   <circle id="Ellipse_626" data-name="Ellipse 626" cx="14.76799" cy="5.506" r="2.467" fill="#a0a8b7"/>
  </g>
 </g>

</svg>