<svg xmlns="http://www.w3.org/2000/svg" width="27" height="18.25" viewBox="0 0 27 18.25">
  <g id="Group_54523" data-name="Group 54523" transform="translate(-273 -274.76)">
    <g id="Group_54522" data-name="Group 54522" transform="translate(108.621 -362.813)">
      <path id="Path_33104" data-name="Path 33104" d="M19.879,18.25H1.742A1.769,1.769,0,0,1,0,16.454V1.8A1.769,1.769,0,0,1,1.742,0H19.879a1.769,1.769,0,0,1,1.742,1.8V16.454a1.769,1.769,0,0,1-1.742,1.8ZM1.742,1.4a.39.39,0,0,0-.384.4V16.454a.39.39,0,0,0,.384.4H19.879a.39.39,0,0,0,.38-.4V1.8a.39.39,0,0,0-.38-.4Z" transform="translate(167 637.573)" fill="#a1a8b6"/>
      <path id="Path_33105" data-name="Path 33105" d="M10.872,29.84h11.96a.513.513,0,0,0,.468-.376.928.928,0,0,0-.041-.743l-1.65-3.078a.5.5,0,0,0-.371-.289.44.44,0,0,0-.4.2l-1.7,2.217-3.935-7.342a.48.48,0,0,0-.427-.287.5.5,0,0,0-.414.32L10.43,28.754a.933.933,0,0,0-.017.726A.507.507,0,0,0,10.872,29.84Z" transform="translate(160.956 623.411)" fill="#a1a8b6"/>
      <circle id="Ellipse_626" data-name="Ellipse 626" cx="2.467" cy="2.467" r="2.467" transform="translate(179.301 640.612)" fill="#a1a8b6"/>
    </g>
    <path id="Path_170060" data-name="Path 170060" d="M0,0,2,1V14L0,15Z" transform="translate(298 276)" fill="#a1a8b6"/>
    <path id="Path_170061" data-name="Path 170061" d="M0,1,2,0V15L0,14Z" transform="translate(273 276)" fill="#a1a8b6"/>
  </g>
</svg>
