<svg width="21.698" height="17.593" xmlns="http://www.w3.org/2000/svg">
 <g>
  <title>Layer 1</title>
  <path id="Path_167835" data-name="Path 167835" d="m19.185,0l-16.672,0a2.513,2.513 0 0 0 -2.513,2.513l0,12.567a2.513,2.513 0 0 0 2.513,2.513l16.672,0a2.513,2.513 0 0 0 2.513,-2.513l0,-12.567a2.513,2.513 0 0 0 -2.513,-2.513zm-4.04,9.96l-6.511,3.759a1.278,1.278 0 0 1 -0.636,0.177a1.146,1.146 0 0 1 -1.139,-1.2l0,-7.521a1.146,1.146 0 0 1 1.139,-1.2a1.28,1.28 0 0 1 0.635,0.177l6.511,3.759a1.154,1.154 0 0 1 0,2.05l0.001,-0.001z" fill="#4ba4da"/>
 </g>

</svg>