<svg xmlns="http://www.w3.org/2000/svg" width="21.698" height="17.593" viewBox="0 0 21.698 17.593">
  <path id="Path_167835" data-name="Path 167835" d="M26.557,7.763H9.885a2.513,2.513,0,0,0-2.513,2.513V22.843a2.513,2.513,0,0,0,2.513,2.513H26.557a2.513,2.513,0,0,0,2.513-2.513V10.276A2.513,2.513,0,0,0,26.557,7.763Zm-4.04,9.96-6.511,3.759a1.278,1.278,0,0,1-.636.177,1.146,1.146,0,0,1-1.139-1.2V12.938a1.146,1.146,0,0,1,1.139-1.2,1.28,1.28,0,0,1,.635.177l6.511,3.759a1.154,1.154,0,0,1,0,2.05Z" transform="translate(-7.372 -7.763)" fill="#a0a8b7"/>
</svg>
