<svg xmlns="http://www.w3.org/2000/svg" width="20.75" height="20.611" viewBox="0 0 20.75 20.611">
  <g id="noun-color-picker-601138" transform="translate(-105.266 -35.291)">
    <path id="Path_169090" data-name="Path 169090" d="M263.351,189.971a3.893,3.893,0,0,0-.475.416l-7.781,7.781a4.779,4.779,0,0,0-1.307,2.079,5.4,5.4,0,0,1-.653,1.307c-.059.059-.119.119-.119.178a1.28,1.28,0,0,0,.119,1.722l.059.059a1.268,1.268,0,0,0,1.663.119,3.164,3.164,0,0,1,1.188-.713,4.574,4.574,0,0,0,2.376-1.366c2.673-2.554,5.227-5.168,7.9-7.781a2.7,2.7,0,0,0,.416-.416,2.524,2.524,0,0,0,.3.416,1.038,1.038,0,0,0,1.6,0l.832-.832c.653-.653.832-1.01.237-1.782.534-.535,1.129-1.069,1.663-1.6A6.56,6.56,0,0,0,273.389,187a1.334,1.334,0,0,0,.059-.832,3.537,3.537,0,0,0-1.485-2.435,2.358,2.358,0,0,0-2.257-.3,5.373,5.373,0,0,0-1.96,1.485l-2.138,2.138a1.1,1.1,0,0,0-1.663.119c-.356.356-.713.653-1.01,1.01a.934.934,0,0,0-.059,1.307c0,.178.238.3.476.475Zm.535.772,2.019,2.019a.842.842,0,0,1-.119.178c-2.673,2.673-5.346,5.346-8.078,8.019a3.791,3.791,0,0,1-1.782,1.01,5.071,5.071,0,0,0-1.485.772.128.128,0,0,0-.119.119.336.336,0,0,1-.475-.475c.178-.178.3-.416.475-.594a3.035,3.035,0,0,0,.416-1.01,3.057,3.057,0,0,1,.891-1.663c2.733-2.851,5.524-5.643,8.257-8.375Z" transform="translate(-147.471 -147.984)" fill="#4a5162"/>
  </g>
</svg>
