<svg xmlns="http://www.w3.org/2000/svg" width="23.304" height="17.768" viewBox="0 0 23.304 17.768">
  <g id="Group_55521" data-name="Group 55521" transform="translate(-40.347 -1128.116)">
    <g id="noun-image-align-left-1661927" transform="translate(26.199 1082.089)">
      <path id="Path_169420" data-name="Path 169420" d="M243.041,383.56h7.137c.241,0,.437.483.437.874,0,.483-.2.874-.437.874h-7.137c-.241,0-.437-.483-.437-.874C242.6,383.951,242.8,383.56,243.041,383.56Z" transform="translate(-213.162 -324.717)" fill="#4a5162"/>
      <path id="Path_169422" data-name="Path 169422" d="M358.265,299.18h6.809c.332,0,.6.483.6.874,0,.483-.269.874-.6.874h-6.809c-.332,0-.6-.483-.6-.874C357.664,299.571,357.933,299.18,358.265,299.18Z" transform="translate(-328.222 -243.541)" fill="#4a5162"/>
      <path id="Path_169423" data-name="Path 169423" d="M51.694,383.56h4.078a.939.939,0,0,1,.874.874.874.874,0,0,1-.874.874H51.694a.939.939,0,0,1-.874-.874A.874.874,0,0,1,51.694,383.56Z" transform="translate(-36.67 -324.717)" fill="#4a5162"/>
      <path id="Path_169424" data-name="Path 169424" d="M358.265,214.79h6.809c.332,0,.6.483.6.874,0,.483-.269.874-.6.874h-6.809c-.332,0-.6-.483-.6-.874C357.664,215.181,357.933,214.79,358.265,214.79Z" transform="translate(-328.222 -162.356)" fill="#4a5162"/>
      <path id="Path_169425" data-name="Path 169425" d="M358.265,130.41h6.809c.332,0,.6.483.6.874,0,.483-.269.874-.6.874h-6.809c-.332,0-.6-.483-.6-.874C357.664,130.8,357.933,130.41,358.265,130.41Z" transform="translate(-328.222 -81.18)" fill="#4a5162"/>
      <path id="Path_169426" data-name="Path 169426" d="M51.694,46.027H73.248a.939.939,0,0,1,.874.874.874.874,0,0,1-.874.874H51.694a.939.939,0,0,1-.874-.874A.874.874,0,0,1,51.694,46.027Z" transform="translate(-36.67)" fill="#4a5162"/>
      <path id="Path_169427" data-name="Path 169427" d="M51.694,467.95H73.248a.939.939,0,0,1,.874.874.874.874,0,0,1-.874.874H51.694a.939.939,0,0,1-.874-.874A.874.874,0,0,1,51.694,467.95Z" transform="translate(-36.67 -405.903)" fill="#4a5162"/>
    </g>
    <path id="Path_169428" data-name="Path 169428" d="M52.385,130.41H62.918a1.749,1.749,0,0,1,1.56,1.683v8.417a1.625,1.625,0,0,1-1.56,1.683H52.385a1.749,1.749,0,0,1-1.561-1.683v-8.417A1.625,1.625,0,0,1,52.385,130.41Z" transform="translate(-10.477 1000.934)" fill="#4a5162"/>
    <g id="noun-layout-47703_1_" data-name="noun-layout-47703 (1)" transform="translate(-49.754 924.043)">
      <g id="Group_54215" data-name="Group 54215" transform="translate(92.941 210.188)">
        <path id="Path_169419" data-name="Path 169419" d="M160.787,214.606H163.4L161.319,211l-1.307,2.264-1.906-3.3-2.682,4.645h5.364Zm-.929-3.941a.8.8,0,1,0-.8-.8.8.8,0,0,0,.8.8" transform="translate(-155.423 -209.07)" fill="#ebebed"/>
      </g>
    </g>
  </g>
</svg>
