<svg xmlns="http://www.w3.org/2000/svg" width="21.181" height="18.72" viewBox="0 0 21.181 18.72">
  <g id="noun-job-search-787437" transform="translate(-84.002 -49.277)">
    <path id="Path_169435" data-name="Path 169435" d="M95.947,63.955a5.279,5.279,0,0,1,9.236-3.5v-7a1.214,1.214,0,0,0-1.219-1.219H99.244v-.723a2.241,2.241,0,0,0-2.236-2.236H92.131A2.241,2.241,0,0,0,89.9,51.513v.723H85.221A1.214,1.214,0,0,0,84,53.454v13.3a1.214,1.214,0,0,0,1.219,1.219h12.6A5.176,5.176,0,0,1,95.947,63.955ZM91.273,51.513a.858.858,0,0,1,.858-.858h4.855a.858.858,0,0,1,.858.858v.723H91.273Z" fill="#4a5162"/>
    <path id="Path_169436" data-name="Path 169436" d="M428.291,325.92a3.252,3.252,0,0,0,0,6.5,3.3,3.3,0,0,0,1.581-.406l.09-.045,1.31,1.31a.7.7,0,0,0,.474.2.615.615,0,0,0,.474-.2.65.65,0,0,0,.2-.474.615.615,0,0,0-.2-.474l-1.264-1.264.068-.09a3.373,3.373,0,0,0,.542-1.784,3.277,3.277,0,0,0-3.274-3.274Zm0,5.306a2.055,2.055,0,1,1,2.055-2.055A2.062,2.062,0,0,1,428.291,331.226Z" transform="translate(-327.285 -265.488)" fill="#4a5162"/>
  </g>
</svg>
