<svg xmlns="http://www.w3.org/2000/svg" width="24.769" height="22.106" viewBox="0 0 24.769 22.106">
  <g id="Group_53875" data-name="Group 53875" transform="translate(-40 -743.699)">
    <g id="Group_53874" data-name="Group 53874" transform="translate(0.272 0.503)">
      <g id="noun-website-1440662" transform="translate(-49.874 695.595)">
        <path id="Path_169139" data-name="Path 169139" d="M114.371,51.33a3.728,3.728,0,0,0-3.729-3.729H93.331A3.728,3.728,0,0,0,89.6,51.33V65.978a3.728,3.728,0,0,0,3.729,3.729h17.312a3.728,3.728,0,0,0,3.729-3.729Zm-1.6,14.649h0a2.131,2.131,0,0,1-2.131,2.131H93.331A2.131,2.131,0,0,1,91.2,65.978V55.058h21.573Zm0-12.518H91.2V51.33A2.131,2.131,0,0,1,93.331,49.2h17.312a2.131,2.131,0,0,1,2.131,2.131Z" transform="translate(0)" fill="#4b5161"/>
        <path id="Path_169140" data-name="Path 169140" d="M220.173,98.886a.886.886,0,1,1-.886-.886.886.886,0,0,1,.886.886" transform="translate(-123.83 -47.591)" fill="#4b5161"/>
        <path id="Path_169141" data-name="Path 169141" d="M292.973,98.886a.886.886,0,1,1-.886-.886.886.886,0,0,1,.886.886" transform="translate(-194.326 -47.591)" fill="#4b5161"/>
        <path id="Path_169142" data-name="Path 169142" d="M147.373,98.886a.886.886,0,1,1-.886-.886.886.886,0,0,1,.886.886" transform="translate(-53.335 -47.591)" fill="#4b5161"/>
      </g>
      <rect id="Rectangle_35035" data-name="Rectangle 35035" width="2" height="15" transform="translate(46.728 749.497)" fill="#4b5161"/>
    </g>
    <rect id="Rectangle_35036" data-name="Rectangle 35036" width="15" height="2" transform="translate(49 757)" fill="#4b5161"/>
  </g>
</svg>
