<svg id="noun-links-2751245" xmlns="http://www.w3.org/2000/svg" width="27.463" height="27.463" viewBox="0 0 27.463 27.463">
  <path id="Path_169237" data-name="Path 169237" d="M101.231,44.963a13.731,13.731,0,1,1,13.731-13.731A13.747,13.747,0,0,1,101.231,44.963Zm0-25.632a11.9,11.9,0,1,0,11.9,11.9A11.914,11.914,0,0,0,101.231,19.331Z" transform="translate(-87.5 -17.5)" fill="#4a5162"/>
  <path id="Path_169238" data-name="Path 169238" d="M325.441,174.214a3.168,3.168,0,0,1-2.24-5.408l2.24-2.239a3.168,3.168,0,0,1,4.481,4.479l-2.242,2.241A3.144,3.144,0,0,1,325.441,174.214Zm2.24-6.463a1.057,1.057,0,0,0-.748.308l-2.24,2.239a1.058,1.058,0,0,0,0,1.494,1.08,1.08,0,0,0,1.492,0l2.242-2.241a1.055,1.055,0,0,0-.746-1.8Z" transform="translate(-310.299 -158.726)" fill="#4a5162"/>
  <path id="Path_169239" data-name="Path 169239" d="M238.823,261.294a3.158,3.158,0,0,1-2.241-.926h0a3.173,3.173,0,0,1,0-4.479l2.242-2.241a3.244,3.244,0,0,1,4.479,0,3.171,3.171,0,0,1,0,4.48l-2.239,2.239a3.158,3.158,0,0,1-2.239.926Zm-.748-2.419a1.057,1.057,0,0,0,1.494,0l2.239-2.239a1.058,1.058,0,0,0,0-1.494,1.08,1.08,0,0,0-1.492,0l-2.242,2.241A1.059,1.059,0,0,0,238.076,258.875Z" transform="translate(-228.906 -240.581)" fill="#4a5162"/>
</svg>
