<svg xmlns="http://www.w3.org/2000/svg" width="23.049" height="22.102" viewBox="0 0 23.049 22.102">
  <g id="Group_54808" data-name="Group 54808" transform="translate(-43 -598.05)">
    <g id="Group_53871" data-name="Group 53871" transform="translate(3 8)">
      <g id="Group_53870" data-name="Group 53870">
        <g id="Group_53869" data-name="Group 53869">
          <g id="Group_53868" data-name="Group 53868" transform="translate(-2.221 124)">
            <g id="Layer_2" data-name="Layer 2" transform="translate(42.221 466.05)">
              <g id="Layer_2-2" data-name="Layer 2" transform="translate(0 0)">
                <g id="Group_53866" data-name="Group 53866">
                  <path id="Path_33104" data-name="Path 33104" d="M21.192,22.1H1.857A2.035,2.035,0,0,1,0,19.927V2.175A2.035,2.035,0,0,1,1.857,0H21.192a2.035,2.035,0,0,1,1.857,2.175V19.927A2.035,2.035,0,0,1,21.192,22.1ZM1.857,1.7a.448.448,0,0,0-.409.479V19.927a.448.448,0,0,0,.409.479H21.192a.449.449,0,0,0,.405-.479V2.175a.449.449,0,0,0-.405-.479Z" transform="translate(0 0)" fill="#4a5162"/>
                </g>
              </g>
            </g>
          </g>
        </g>
      </g>
    </g>
    <g id="Ellipse_8546" data-name="Ellipse 8546" transform="translate(48 603)" fill="#4a5162" stroke="#4a5162" stroke-width="1">
      <circle cx="2.5" cy="2.5" r="2.5" stroke="none"/>
      <circle cx="2.5" cy="2.5" r="2" fill="none"/>
    </g>
    <g id="Ellipse_8547" data-name="Ellipse 8547" transform="translate(56 603)" fill="#4a5162" stroke="#4a5162" stroke-width="1">
      <circle cx="2.5" cy="2.5" r="2.5" stroke="none"/>
      <circle cx="2.5" cy="2.5" r="2" fill="none"/>
    </g>
    <g id="Ellipse_8548" data-name="Ellipse 8548" transform="translate(56 611)" fill="#4a5162" stroke="#4a5162" stroke-width="1">
      <circle cx="2.5" cy="2.5" r="2.5" stroke="none"/>
      <circle cx="2.5" cy="2.5" r="2" fill="none"/>
    </g>
    <g id="Ellipse_8549" data-name="Ellipse 8549" transform="translate(48 611)" fill="#4a5162" stroke="#4a5162" stroke-width="1">
      <circle cx="2.5" cy="2.5" r="2.5" stroke="none"/>
      <circle cx="2.5" cy="2.5" r="2" fill="none"/>
    </g>
    <g id="Ellipse_8550" data-name="Ellipse 8550" transform="translate(52 607)" fill="#4a5162" stroke="#4a5162" stroke-width="1">
      <circle cx="2.5" cy="2.5" r="2.5" stroke="none"/>
      <circle cx="2.5" cy="2.5" r="2" fill="none"/>
    </g>
  </g>
</svg>
