<svg xmlns="http://www.w3.org/2000/svg" width="17.744" height="14.505" viewBox="0 0 17.744 14.505">
  <path id="Path_170242" data-name="Path 170242" d="M106.547,71.271h-2.2V69.444a.555.555,0,0,0-.565-.565H90.16a.555.555,0,0,0-.565.565V80.124a.555.555,0,0,0,.565.565h2.015v1.827a.555.555,0,0,0,.565.565h13.787a.555.555,0,0,0,.565-.565V71.836a.551.551,0,0,0-.546-.565Zm-7.911-.546A1.676,1.676,0,1,1,96.96,72.4,1.68,1.68,0,0,1,98.636,70.725Zm-6.253,7.93a.594.594,0,0,1-.509-.3.588.588,0,0,1,.038-.584l3.315-4.822a.575.575,0,0,1,.942,0l2.2,3.2.942-1.168a.563.563,0,0,1,.433-.207.536.536,0,0,1,.433.207l2.2,2.75a.58.58,0,0,1,.075.6.589.589,0,0,1-.509.32H92.383Zm13.6,3.3H93.306V80.689h10.453a.555.555,0,0,0,.565-.565V72.4h1.639v9.549Z" transform="matrix(1, 0.017, -0.017, 1, -88.131, -70.432)" fill="#7c8189"/>
</svg>
