<svg width="17.744" height="14.505" xmlns="http://www.w3.org/2000/svg">
 <g>
  <title>Layer 1</title>
  <path id="Path_170242" data-name="Path 170242" d="m17.2044,2.6503l-2.2,-0.0374l0.03106,-1.827a0.555,0.555 0 0 0 -0.55539,-0.57461l-13.622,-0.23157a0.555,0.555 0 0 0 -0.57461,0.55539l-0.18156,10.68a0.555,0.555 0 0 0 0.55539,0.57461l2.015,0.03426l-0.03106,1.827a0.555,0.555 0 0 0 0.55539,0.57461l13.787,0.23438a0.555,0.555 0 0 0 0.57461,-0.55539l0.18156,-10.68a0.551,0.551 0 0 0 -0.53639,-0.57428l0.001,0.00002l0,-0.00002zm-7.90172,-0.68049a1.676,1.676 0 1 1 -1.70448,1.64651a1.68,1.68 0 0 1 1.70448,-1.64651zm-6.38781,7.8237a0.594,0.594 0 0 1 -0.5039,-0.30865a0.588,0.588 0 0 1 0.04793,-0.58335l3.39697,-4.76564a0.575,0.575 0 0 1 0.942,0.01601l2.1456,3.2374l0.96186,-1.15199a0.563,0.563 0 0 1 0.43652,-0.19964a0.536,0.536 0 0 1 0.42948,0.21436l2.15325,2.7874a0.58,0.58 0 0 1 0.0648,0.60128a0.589,0.589 0 0 1 -0.51444,0.31135l-9.56,-0.16252l-0.00007,0.004l0,-0.00001zm13.5439,3.5312l-12.677,-0.21551l0.02152,-1.266l10.453,0.1777a0.555,0.555 0 0 0 0.57461,-0.55539l0.13131,-7.724l1.639,0.02786l-0.16233,9.549l0.0199,0.00634l-0.00001,0z" fill="#fff"/>
 </g>

</svg>