<svg width="13.005" height="16.159" xmlns="http://www.w3.org/2000/svg">
 <g>
  <title>Layer 1</title>
  <path id="Path_170246" data-name="Path 170246" d="m12.77,4.192l-3.9,-3.955a0.785,0.785 0 0 0 -0.553,-0.237l-7.525,0a0.79,0.79 0 0 0 -0.788,0.794l0,14.57a0.79,0.79 0 0 0 0.788,0.794l11.429,0a0.79,0.79 0 0 0 0.788,-0.794l0,-10.614a0.8,0.8 0 0 0 -0.235,-0.558l-0.004,0zm-5.514,2.388l4.173,0l0,7.99l-9.849,0l0,-12.981l4.91,0l0,4.175a0.8,0.8 0 0 0 0.771,0.811l-0.005,0.005z" fill="#fff"/>
 </g>

</svg>