<svg width="18.607" height="18.607" xmlns="http://www.w3.org/2000/svg">
 <g>
  <title>Layer 1</title>
  <g id="Group_56049" data-name="Group 56049">
   <g id="noun-website-4632097">
    <path id="Path_170602" data-name="Path 170602" d="m18.607,1.55099l0,15.506a1.551,1.551 0 0 1 -1.551,1.551l-15.505,0a1.551,1.551 0 0 1 -1.551,-1.551l0,-15.506a1.551,1.551 0 0 1 1.551,-1.553l15.506,0a1.551,1.551 0 0 1 1.551,1.551l-0.001,0.002zm-13.025,0.31a0.31,0.31 0 1 0 0.31,-0.31a0.31,0.31 0 0 0 -0.31,0.31zm-1.861,0a0.31,0.31 0 1 0 0.31,-0.31a0.31,0.31 0 0 0 -0.31,0.31zm-1.861,0a0.31,0.31 0 1 0 0.31,-0.31a0.31,0.31 0 0 0 -0.309,0.31l-0.001,0zm16.126,1.861l-17.366,0l0,13.335a0.933,0.933 0 0 0 0.93,0.93l15.506,0a0.933,0.933 0 0 0 0.93,-0.93l0,-13.335zm-12.094,6.025l0,-1.861a0.311,0.311 0 0 1 0.31,-0.31a4.455,4.455 0 0 0 2.881,-1.151a0.312,0.312 0 0 1 0.44,0a4.469,4.469 0 0 0 2.877,1.151a0.311,0.311 0 0 1 0.31,0.31l0,1.861c0,3.107 -3.275,4.311 -3.306,4.323a0.309,0.309 0 0 1 -0.211,0c-0.031,-0.012 -3.306,-1.216 -3.306,-4.323l0.005,0z" fill="#fff"/>
   </g>
   <path id="Path_170603" data-name="Path 170603" d="m4.753,10.29803l0,-2.482a0.415,0.415 0 0 1 0.414,-0.414a5.942,5.942 0 0 0 3.843,-1.535a0.417,0.417 0 0 1 0.587,0a5.961,5.961 0 0 0 3.843,1.535a0.415,0.415 0 0 1 0.414,0.414l0,2.482c0,4.145 -4.368,5.75 -4.41,5.767a0.412,0.412 0 0 1 -0.281,0c-0.041,-0.017 -4.41,-1.622 -4.41,-5.767z" fill="#fff"/>
  </g>
 </g>

</svg>