<svg xmlns="http://www.w3.org/2000/svg" width="18.607" height="18.607" viewBox="0 0 18.607 18.607">
  <g id="Group_56049" data-name="Group 56049" transform="translate(-18 -719.998)">
    <g id="noun-website-4632097" transform="translate(-69.5 702.496)">
      <path id="Path_170602" data-name="Path 170602" d="M106.107,19.053V34.559a1.551,1.551,0,0,1-1.551,1.551H89.051A1.551,1.551,0,0,1,87.5,34.559V19.053A1.551,1.551,0,0,1,89.051,17.5h15.506a1.551,1.551,0,0,1,1.551,1.551Zm-13.025.31a.31.31,0,1,0,.31-.31A.31.31,0,0,0,93.082,19.363Zm-1.861,0a.31.31,0,1,0,.31-.31A.31.31,0,0,0,91.221,19.363Zm-1.861,0a.31.31,0,1,0,.31-.31A.31.31,0,0,0,89.361,19.363Zm16.126,1.861H88.12V34.559a.933.933,0,0,0,.93.93h15.506a.933.933,0,0,0,.93-.93ZM93.392,27.249V25.388a.311.311,0,0,1,.31-.31,4.455,4.455,0,0,0,2.881-1.151.312.312,0,0,1,.44,0A4.469,4.469,0,0,0,99.9,25.078a.311.311,0,0,1,.31.31v1.861c0,3.107-3.275,4.311-3.306,4.323a.309.309,0,0,1-.211,0c-.031-.012-3.306-1.216-3.306-4.323Z" fill="#7c8189"/>
    </g>
    <path id="Path_170603" data-name="Path 170603" d="M93.392,28.388V25.906a.415.415,0,0,1,.414-.414,5.942,5.942,0,0,0,3.843-1.535.417.417,0,0,1,.587,0,5.961,5.961,0,0,0,3.843,1.535.415.415,0,0,1,.414.414v2.482c0,4.145-4.368,5.75-4.41,5.767a.412.412,0,0,1-.281,0c-.041-.017-4.41-1.622-4.41-5.767Z" transform="translate(-70.639 701.908)" fill="#7c8189"/>
  </g>
</svg>
