<svg width="20.988" height="20.994" xmlns="http://www.w3.org/2000/svg">
 <g>
  <title>Layer 1</title>
  <path id="Path_169074" data-name="Path 169074" d="m20.741,8.643l-2.529,-0.464a7.535,7.535 0 0 0 -0.548,-1.349l1.476,-2.15a0.446,0.446 0 0 0 -0.042,-0.548l-2.068,-2.066a0.442,0.442 0 0 0 -0.548,-0.042l-2.152,1.475a7.537,7.537 0 0 0 -1.349,-0.548l-0.464,-2.529c-0.127,-0.3 -0.3,-0.422 -0.506,-0.422l-2.951,0a0.41,0.41 0 0 0 -0.422,0.337l-0.464,2.529a7.534,7.534 0 0 0 -1.349,0.548l-2.15,-1.476a0.446,0.446 0 0 0 -0.548,0.042l-2.066,2.066a0.442,0.442 0 0 0 -0.042,0.548l1.476,2.15a7.538,7.538 0 0 0 -0.548,1.349l-2.529,0.464c-0.3,0.127 -0.422,0.3 -0.422,0.506l0,2.951a0.41,0.41 0 0 0 0.337,0.422l2.529,0.464a12.868,12.868 0 0 0 0.548,1.349l-1.476,2.15a0.446,0.446 0 0 0 0.042,0.548l2.066,2.066a0.442,0.442 0 0 0 0.548,0.042l2.15,-1.476a7.538,7.538 0 0 0 1.349,0.548l0.464,2.529a0.41,0.41 0 0 0 0.422,0.337l2.955,0a0.41,0.41 0 0 0 0.422,-0.337l0.464,-2.529a12.873,12.873 0 0 0 1.349,-0.548l2.15,1.476a0.446,0.446 0 0 0 0.548,-0.042l2.066,-2.066a0.442,0.442 0 0 0 0.042,-0.548l-1.476,-2.15a5.338,5.338 0 0 0 0.548,-1.349l2.529,-0.464a0.41,0.41 0 0 0 0.337,-0.422l0,-2.95c0.169,-0.211 0.042,-0.379 -0.168,-0.422l0,0.001zm-4.342,1.476l-2.782,0c-0.084,-2.614 -0.97,-4.722 -2.192,-5.4a5.876,5.876 0 0 1 4.975,5.4l-0.001,0zm-5.438,-4.679c0.885,0.422 1.728,2.234 1.855,4.679l-1.855,0l0,-4.679zm-1.307,-0.717c-1.223,0.717 -2.108,2.782 -2.192,5.4l-2.782,0a5.876,5.876 0 0 1 4.975,-5.4l-0.001,0zm-4.974,6.239l2.782,0c0.084,2.614 0.97,4.722 2.192,5.4a5.876,5.876 0 0 1 -4.975,-5.4l0.001,0zm5.438,4.679c-0.885,-0.422 -1.728,-2.234 -1.855,-4.679l1.855,0l0,4.679zm0,-5.523l-1.855,0c0.084,-2.445 0.928,-4.258 1.855,-4.679l0,4.679zm0.843,0.843l1.855,0c-0.126,2.445 -0.97,4.216 -1.855,4.679l0,-4.679zm0.464,5.4c1.223,-0.675 2.108,-2.782 2.234,-5.4l2.782,0a5.92,5.92 0 0 1 -5.017,5.4l0.001,0z" fill="#fff"/>
 </g>

</svg>