<svg xmlns="http://www.w3.org/2000/svg" width="20.988" height="20.994" viewBox="0 0 20.988 20.994">
  <path id="Path_169074" data-name="Path 169074" d="M137.411,55.31l-2.529-.464a7.535,7.535,0,0,0-.548-1.349l1.476-2.15a.446.446,0,0,0-.042-.548L133.7,48.733a.442.442,0,0,0-.548-.042L131,50.166a7.537,7.537,0,0,0-1.349-.548l-.464-2.529c-.127-.3-.3-.422-.506-.422h-2.951a.41.41,0,0,0-.422.337l-.464,2.529a7.534,7.534,0,0,0-1.349.548l-2.15-1.476a.446.446,0,0,0-.548.042l-2.066,2.066a.442.442,0,0,0-.042.548l1.476,2.15a7.538,7.538,0,0,0-.548,1.349l-2.529.464c-.3.127-.422.3-.422.506v2.951a.41.41,0,0,0,.337.422l2.529.464a12.868,12.868,0,0,0,.548,1.349l-1.476,2.15a.446.446,0,0,0,.042.548l2.066,2.066a.442.442,0,0,0,.548.042l2.15-1.476a7.538,7.538,0,0,0,1.349.548l.464,2.529a.41.41,0,0,0,.422.337H128.6a.41.41,0,0,0,.422-.337l.464-2.529a12.873,12.873,0,0,0,1.349-.548l2.15,1.476a.446.446,0,0,0,.548-.042l2.066-2.066a.442.442,0,0,0,.042-.548l-1.476-2.15a5.338,5.338,0,0,0,.548-1.349l2.529-.464a.41.41,0,0,0,.337-.422V55.731c.169-.211.042-.379-.168-.422Zm-4.342,1.476h-2.782c-.084-2.614-.97-4.722-2.192-5.4a5.876,5.876,0,0,1,4.975,5.4Zm-5.438-4.679c.885.422,1.728,2.234,1.855,4.679h-1.855Zm-1.307-.717c-1.223.717-2.108,2.782-2.192,5.4h-2.782a5.876,5.876,0,0,1,4.975-5.4Zm-4.974,6.239h2.782c.084,2.614.97,4.722,2.192,5.4a5.876,5.876,0,0,1-4.975-5.4Zm5.438,4.679c-.885-.422-1.728-2.234-1.855-4.679h1.855Zm0-5.523h-1.855c.084-2.445.928-4.258,1.855-4.679Zm.843.843h1.855c-.126,2.445-.97,4.216-1.855,4.679Zm.464,5.4c1.223-.675,2.108-2.782,2.234-5.4h2.782a5.92,5.92,0,0,1-5.017,5.4Z" transform="translate(-116.67 -46.667)" fill="#7c8189"/>
</svg>
