<svg width="20.348" height="14.206" xmlns="http://www.w3.org/2000/svg" data-name="Group 55333">
 <g>
  <title>Layer 1</title>
  <path id="Path_167709" data-name="Path 167709" d="m10.177,6.171a1.759,1.759 0 1 1 1.759,-1.759a1.759,1.759 0 0 1 -1.759,1.759zm-7.916,-2.2l5.277,0l0,0.812l-5.276,0l-0.001,-0.812zm10.554,0l5.28,0l0,0.812l-5.279,0l-0.001,-0.812z" fill="#fff"/>
  <text id="H" fill="#fff" font-size="1" font-family="SegoeUI-Semibold, Segoe UI" font-weight="600" y="8.038" x="8.481">
   <tspan x="-0.368" y="0" id="svg_1">H</tspan>
  </text>
  <path id="Path_33104" data-name="Path 33104" d="m18.927,14.206l-17.506,0a1.459,1.459 0 0 1 -1.375,-1.1a1.307,1.307 0 0 1 -0.046,-0.365l0,-11.276a1.443,1.443 0 0 1 1.421,-1.465l17.506,0a1.443,1.443 0 0 1 1.421,1.465l0,11.276a1.443,1.443 0 0 1 -1.421,1.465zm-17.506,-13.064c-0.173,0 -0.313,0.323 -0.313,0.323l0,11.276c0,0.178 0.819,0.323 0.991,0.323l16.828,0a0.318,0.318 0 0 0 0.31,-0.323l0,-11.276a0.318,0.318 0 0 0 -0.31,-0.323l-17.506,0z" fill="#fff"/>
 </g>

</svg>