<svg id="Group_55333" data-name="Group 55333" xmlns="http://www.w3.org/2000/svg" width="20.348" height="14.206" viewBox="0 0 20.348 14.206">
  <path id="Path_167709" data-name="Path 167709" d="M34.582,48.592a1.759,1.759,0,1,1,1.759-1.759A1.759,1.759,0,0,1,34.582,48.592Zm-7.916-2.2h5.277v.812H26.667Zm10.554,0H42.5v.812H37.221Z" transform="translate(-24.405 -42.421)" fill="#90959f"/>
  <text id="H" transform="translate(8.481 8.038)" fill="#90959f" font-size="1" font-family="SegoeUI-Semibold, Segoe UI" font-weight="600"><tspan x="-0.368" y="0">H</tspan></text>
  <path id="Path_33104" data-name="Path 33104" d="M14.927,14.206H-2.579a1.459,1.459,0,0,1-1.375-1.1A1.307,1.307,0,0,1-4,12.741V1.465A1.443,1.443,0,0,1-2.579,0H14.927a1.443,1.443,0,0,1,1.421,1.465V12.741a1.443,1.443,0,0,1-1.421,1.465ZM-2.579,1.142c-.173,0-.313.323-.313.323V12.741c0,.178.819.323.991.323H14.927a.318.318,0,0,0,.31-.323V1.465a.318.318,0,0,0-.31-.323Z" transform="translate(4)" fill="#90959f"/>
</svg>
