<svg width="21.917" height="16.562" xmlns="http://www.w3.org/2000/svg">
 <g>
  <title>Layer 1</title>
  <g id="noun-speedometer-98276_1_" data-name="noun-speedometer-98276 (1)">
   <path id="Path_170254" data-name="Path 170254" d="m10.958,0a10.954,10.954 0 0 1 9.414,16.562l-0.7,0a0.952,0.952 0 0 1 -0.8,-0.448a0.935,0.935 0 0 1 -0.025,-0.921a8.979,8.979 0 0 0 1.046,-3.537l-0.971,0a0.473,0.473 0 0 1 -0.473,-0.473l0,-0.473a0.473,0.473 0 0 1 0.473,-0.473l0.971,0a9.017,9.017 0 0 0 -0.847,-3.163l-0.847,0.473a0.481,0.481 0 0 1 -0.648,-0.174l-0.224,-0.4a0.481,0.481 0 0 1 0.174,-0.648l0.847,-0.473a10.114,10.114 0 0 0 -1.046,-1.27a7.28,7.28 0 0 0 -1.27,-1.046l-0.473,0.847a0.482,0.482 0 0 1 -0.647,0.174l-0.4,-0.224a0.482,0.482 0 0 1 -0.174,-0.648l0.473,-0.847a9.017,9.017 0 0 0 -3.163,-0.847l0,0.971a0.473,0.473 0 0 1 -0.473,0.473l-0.473,0a0.473,0.473 0 0 1 -0.473,-0.473l0,-0.97a8.516,8.516 0 0 0 -3.163,0.847l0.473,0.847a0.481,0.481 0 0 1 -0.174,0.648l-0.4,0.224a0.481,0.481 0 0 1 -0.648,-0.174l-0.473,-0.847a12.891,12.891 0 0 0 -1.27,1.046a7.279,7.279 0 0 0 -1.046,1.27l0.847,0.473a0.482,0.482 0 0 1 0.174,0.648l-0.224,0.4a0.482,0.482 0 0 1 -0.648,0.174l-0.847,-0.473a9.016,9.016 0 0 0 -0.847,3.163l1,0a0.473,0.473 0 0 1 0.473,0.473l0,0.473a0.473,0.473 0 0 1 -0.473,0.473l-0.971,0a8.978,8.978 0 0 0 1.046,3.537a0.936,0.936 0 0 1 -0.025,0.921a0.871,0.871 0 0 1 -0.8,0.448l-0.7,0a11.019,11.019 0 0 1 -1.544,-5.628a10.927,10.927 0 0 1 10.958,-10.934l0.011,-0.001z" fill="#fff" fill-rule="evenodd"/>
   <path id="Path_170255" data-name="Path 170255" d="m9.56399,11.806a1.878,1.878 0 0 1 0.523,-2.266c0.05,-0.025 3.611,-1.021 5.13,-1.469a0.167,0.167 0 0 1 0.2,0.075a0.151,0.151 0 0 1 -0.025,0.2c-1.071,1.171 -3.512,3.935 -3.561,3.96a1.826,1.826 0 0 1 -2.267,-0.5z" fill="#fff" fill-rule="evenodd"/>
  </g>
 </g>

</svg>