<svg xmlns="http://www.w3.org/2000/svg" width="21.917" height="16.562" viewBox="0 0 21.917 16.562">
  <g id="noun-speedometer-98276_1_" data-name="noun-speedometer-98276 (1)" transform="translate(-103.597 -94.078)">
    <path id="Path_170254" data-name="Path 170254" d="M114.555,94.078a10.954,10.954,0,0,1,9.414,16.562h-.7a.952.952,0,0,1-.8-.448.935.935,0,0,1-.025-.921,8.979,8.979,0,0,0,1.046-3.537h-.971a.473.473,0,0,1-.473-.473v-.473a.473.473,0,0,1,.473-.473h.971a9.017,9.017,0,0,0-.847-3.163l-.847.473a.481.481,0,0,1-.648-.174l-.224-.4a.481.481,0,0,1,.174-.648l.847-.473a10.114,10.114,0,0,0-1.046-1.27,7.28,7.28,0,0,0-1.27-1.046l-.473.847a.482.482,0,0,1-.647.174l-.4-.224a.482.482,0,0,1-.174-.648l.473-.847a9.017,9.017,0,0,0-3.163-.847v.971a.473.473,0,0,1-.473.473h-.473a.473.473,0,0,1-.473-.473V96.07a8.516,8.516,0,0,0-3.163.847l.473.847a.481.481,0,0,1-.174.648l-.4.224a.481.481,0,0,1-.648-.174l-.473-.847a12.891,12.891,0,0,0-1.27,1.046,7.279,7.279,0,0,0-1.046,1.27l.847.473a.482.482,0,0,1,.174.648l-.224.4a.482.482,0,0,1-.648.174l-.847-.473a9.016,9.016,0,0,0-.847,3.163h1a.473.473,0,0,1,.473.473v.473a.473.473,0,0,1-.473.473h-.971a8.978,8.978,0,0,0,1.046,3.537.936.936,0,0,1-.025.921.871.871,0,0,1-.8.448h-.7a11.019,11.019,0,0,1-1.544-5.628,10.927,10.927,0,0,1,10.958-10.934Z" fill="#7c8189" fill-rule="evenodd"/>
    <path id="Path_170255" data-name="Path 170255" d="M314.455,279.056a1.878,1.878,0,0,1,.523-2.266c.05-.025,3.611-1.021,5.13-1.469a.167.167,0,0,1,.2.075.151.151,0,0,1-.025.2c-1.071,1.171-3.512,3.935-3.561,3.96a1.826,1.826,0,0,1-2.267-.5Z" transform="translate(-201.294 -173.172)" fill="#7c8189" fill-rule="evenodd"/>
  </g>
</svg>
