<svg xmlns="http://www.w3.org/2000/svg" width="20" height="18.607" viewBox="0 0 20 18.607">
  <g id="Group_55908" data-name="Group 55908" transform="translate(-33 -1685.939)">
    <path id="ic_card_membership_24px" d="M20,2H4A1.993,1.993,0,0,0,2,4V15a1.993,1.993,0,0,0,2,2H20a1.993,1.993,0,0,0,2-2V4A1.993,1.993,0,0,0,20,2Zm0,13H4V10H20Zm0-5H4V4H20Z" transform="translate(31 1683.939)" fill="#7c8189"/>
    <g id="Rectangle_36397" data-name="Rectangle 36397" transform="translate(37 1702.547)" fill="#7c8189" stroke="#7c8189" stroke-width="1">
      <rect width="12" height="2" stroke="none"/>
      <rect x="0.5" y="0.5" width="11" height="1" fill="none"/>
    </g>
    <g id="Rectangle_36398" data-name="Rectangle 36398" transform="translate(42 1700.547)" fill="#7c8189" stroke="#7c8189" stroke-width="1">
      <rect width="2" height="2" stroke="none"/>
      <rect x="0.5" y="0.5" width="1" height="1" fill="none"/>
    </g>
  </g>
</svg>
