<svg width="16.625" height="15.886" xmlns="http://www.w3.org/2000/svg">
 <g>
  <title>Layer 1</title>
  <g id="Group_55177" data-name="Group 55177">
   <path id="Path_170633" data-name="Path 170633" d="m4.163,12.64301a0.874,0.874 0 1 1 -0.874,-0.874a0.874,0.874 0 0 1 0.874,0.874" fill="#fff"/>
   <path id="Path_170634" data-name="Path 170634" d="m16.079,9.532l-4.608,0l3.349,-3.2a0.525,0.525 0 0 0 0.166,-0.363a0.443,0.443 0 0 0 -0.166,-0.363l-3.915,-3.767a0.573,0.573 0 0 0 -0.38,-0.159a0.483,0.483 0 0 0 -0.38,0.159l-3.491,3.314l0,-4.63a0.443,0.443 0 0 0 -0.166,-0.363a0.626,0.626 0 0 0 -0.383,-0.157l-5.558,0a0.483,0.483 0 0 0 -0.38,0.159a0.573,0.573 0 0 0 -0.166,0.363l0,12.185a3.263,3.263 0 0 0 3.325,3.177l12.754,0a0.483,0.483 0 0 0 0.38,-0.159a0.573,0.573 0 0 0 0.166,-0.363l0,-5.311a1,1 0 0 0 -0.547,-0.522zm-10.545,4.312l0,0.976l-2.209,0a2.157,2.157 0 0 1 -2.209,-2.111l0,-2.106l4.441,0l-0.023,3.241zm0,-4.312l-4.418,0l0,-2.029l0.024,-6.437l4.418,0l0,8.465l-0.024,0.001zm0,-3.177zm-4.418,-5.288zm7.743,13.753l-2.209,0l0,-0.681l2.209,-2.111l0,2.792zm0.166,-4.448l-2.375,2.269l0,-5.991l3.871,-3.7l3.135,3l-4.631,4.422zm4.842,4.448l-3.892,0l0,-3.858l0.38,-0.363l3.512,0l0,4.221zm1.642,0l-1.642,0l0,-4.217l1.638,0l0.004,4.217z" fill="#fff"/>
  </g>
 </g>

</svg>