<svg xmlns="http://www.w3.org/2000/svg" width="17.029" height="16.668" viewBox="0 0 17.029 16.668">
  <g id="Group_56044" data-name="Group 56044" transform="translate(-34 -318.043)">
    <g id="Group_56043" data-name="Group 56043">
      <g id="Group_56040" data-name="Group 56040">
        <g id="Group_56039" data-name="Group 56039">
          <path id="Path_170046" data-name="Path 170046" d="M250.553,137.81v4.724a1.268,1.268,0,1,1-.362,0V137.81h-.423l-2.809,6.672,1.741,2.089a.181.181,0,0,1,.04.146l-.388,2.325h4.041L252,146.717a.181.181,0,0,1,.039-.146l1.741-2.089-2.809-6.672Z" transform="translate(-207.857 183.857)" fill="#7c8189"/>
        </g>
      </g>
      <path id="Path_170047" data-name="Path 170047" d="M280.132,487.81l-.242,1.449h4.645l-.241-1.449Z" transform="translate(-239.699 -154.549)" fill="#7c8189"/>
    </g>
    <path id="Path_170048" data-name="Path 170048" d="M107.637,30.974h2.174a.181.181,0,0,0,.181-.181V28.619a.181.181,0,0,0-.181-.181h-2.174a.181.181,0,0,0-.181.181v.906h-4.71v-.906a.181.181,0,0,0-.181-.181h-2.174a.181.181,0,0,0-.181.181v.906H95.5v-.906a.181.181,0,0,0-.181-.181H93.144a.181.181,0,0,0-.181.181v2.174a.181.181,0,0,0,.181.181h2.174a.181.181,0,0,0,.181-.181v-.906h3.678a7.443,7.443,0,0,0-5.019,5.8H93.144a.181.181,0,0,0-.181.181v2.174a.181.181,0,0,0,.181.181h2.174a.181.181,0,0,0,.181-.181V35.865a.181.181,0,0,0-.181-.181h-.792A7.113,7.113,0,0,1,100.209,30v.792a.181.181,0,0,0,.181.181h2.174a.181.181,0,0,0,.181-.181V30a7.113,7.113,0,0,1,5.683,5.683h-.792a.181.181,0,0,0-.181.181v2.174a.181.181,0,0,0,.181.181h2.174a.181.181,0,0,0,.181-.181V35.865a.181.181,0,0,0-.181-.181H108.8a7.443,7.443,0,0,0-5.019-5.8h3.678v.906a.181.181,0,0,0,.181.181Z" transform="translate(-58.963 289.605)" fill="#7c8189"/>
  </g>
</svg>
