<svg width="17.029" height="16.668" xmlns="http://www.w3.org/2000/svg">
 <g>
  <title>Layer 1</title>
  <g id="Group_56044" data-name="Group 56044">
   <g id="Group_56043" data-name="Group 56043">
    <g id="Group_56040" data-name="Group 56040">
     <g id="Group_56039" data-name="Group 56039">
      <path id="Path_170046" data-name="Path 170046" d="m8.69601,3.624l0,4.724a1.268,1.268 0 1 1 -0.362,0l0,-4.724l-0.423,0l-2.809,6.672l1.741,2.089a0.181,0.181 0 0 1 0.04,0.146l-0.388,2.325l4.041,0l-0.393,-2.325a0.181,0.181 0 0 1 0.039,-0.146l1.741,-2.089l-2.809,-6.672l-0.418,0z" fill="#fff"/>
     </g>
    </g>
    <path id="Path_170047" data-name="Path 170047" d="m6.43299,15.218l-0.242,1.449l4.645,0l-0.241,-1.449l-4.162,0z" fill="#fff"/>
   </g>
   <path id="Path_170048" data-name="Path 170048" d="m14.674,2.53601l2.174,0a0.181,0.181 0 0 0 0.181,-0.181l0,-2.174a0.181,0.181 0 0 0 -0.181,-0.181l-2.174,0a0.181,0.181 0 0 0 -0.181,0.181l0,0.906l-4.71,0l0,-0.906a0.181,0.181 0 0 0 -0.181,-0.181l-2.174,0a0.181,0.181 0 0 0 -0.181,0.181l0,0.906l-4.71,0l0,-0.906a0.181,0.181 0 0 0 -0.181,-0.181l-2.175,0a0.181,0.181 0 0 0 -0.181,0.181l0,2.174a0.181,0.181 0 0 0 0.181,0.181l2.174,0a0.181,0.181 0 0 0 0.181,-0.181l0,-0.906l3.678,0a7.443,7.443 0 0 0 -5.019,5.8l-1.014,0a0.181,0.181 0 0 0 -0.181,0.181l0,2.174a0.181,0.181 0 0 0 0.181,0.181l2.174,0a0.181,0.181 0 0 0 0.181,-0.181l0,-2.177a0.181,0.181 0 0 0 -0.181,-0.181l-0.792,0a7.113,7.113 0 0 1 5.683,-5.684l0,0.792a0.181,0.181 0 0 0 0.181,0.181l2.174,0a0.181,0.181 0 0 0 0.181,-0.181l0,-0.792a7.113,7.113 0 0 1 5.683,5.683l-0.792,0a0.181,0.181 0 0 0 -0.181,0.181l0,2.174a0.181,0.181 0 0 0 0.181,0.181l2.174,0a0.181,0.181 0 0 0 0.181,-0.181l0,-2.173a0.181,0.181 0 0 0 -0.181,-0.181l-1.01,0a7.443,7.443 0 0 0 -5.019,-5.8l3.678,0l0,0.906a0.181,0.181 0 0 0 0.181,0.181l-0.003,0.003z" fill="#fff"/>
  </g>
 </g>

</svg>