<svg width="18.092" height="18.092" xmlns="http://www.w3.org/2000/svg">
 <g>
  <title>Layer 1</title>
  <g id="Group_56048" data-name="Group 56048">
   <path id="Path_170251" data-name="Path 170251" d="m12.81401,6.65297a3.769,3.769 0 1 1 -3.769,-3.769a3.769,3.769 0 0 1 3.769,3.769" fill="#fff"/>
   <path id="Path_170252" data-name="Path 170252" d="m9.046,0.00001a9.046,9.046 0 1 0 9.046,9.046a9.046,9.046 0 0 0 -9.046,-9.046zm6.093,14.677l0,-0.276a3.2,3.2 0 0 0 -3.192,-3.192l-5.869,0a3.2,3.2 0 0 0 -3.192,3.192l0,0.224a8.3,8.3 0 1 1 14.448,-5.579a8.159,8.159 0 0 1 -2.194,5.63l-0.001,0.001z" fill="#fff"/>
  </g>
 </g>

</svg>