<svg xmlns="http://www.w3.org/2000/svg" width="24.679" height="19.872" viewBox="0 0 24.679 19.872">
  <g id="Group_53876" data-name="Group 53876" transform="translate(-40.936 -792.442)">
    <g id="noun-background-631760" transform="translate(40.936 792.441)">
      <path id="Path_169146" data-name="Path 169146" d="M138.457,127.394H154.49a2.946,2.946,0,0,0,2.936-2.936v-5.065a2.909,2.909,0,0,0,2.774-2.9v-6.032a2.946,2.946,0,0,0-2.936-2.936h-9.226a2.887,2.887,0,0,0-2.9,2.774h-6.678a2.946,2.946,0,0,0-2.936,2.936v11.226a2.968,2.968,0,0,0,2.936,2.936Zm8.065-15.678h8a1.515,1.515,0,0,1,1.516,1.516v4.774h-8a1.515,1.515,0,0,1-1.516-1.516Zm1.516-2.807h9.226a1.515,1.515,0,0,1,1.516,1.516v6.065a1.514,1.514,0,0,1-1.387,1.516v-4.774a2.946,2.946,0,0,0-2.936-2.936h-7.936a1.537,1.537,0,0,1,1.516-1.387Zm-11.1,4.323a1.515,1.515,0,0,1,1.516-1.516H145.1v4.774a2.946,2.946,0,0,0,2.936,2.936h8v5.065a1.515,1.515,0,0,1-1.516,1.516H138.457a1.515,1.515,0,0,1-1.516-1.516Z" transform="translate(-135.521 -107.522)" fill="#4b5161"/>
    </g>
    <rect id="Rectangle_35037" data-name="Rectangle 35037" width="11" height="8" rx="2" transform="translate(51 796)" fill="#4b5161"/>
  </g>
</svg>
