<svg width="21" height="22.477" xmlns="http://www.w3.org/2000/svg">
 <g>
  <title>Layer 1</title>
  <g id="noun-health-insurance-1893284">
   <path id="Path_169632" data-name="Path 169632" d="m8.286,22.33901l0.209,0.14l0.035,-0.035l0.035,0.035l0.209,-0.14a18.286,18.286 0 0 0 5.41,-5.445a18.771,18.771 0 0 0 2.967,-10.75l0,-0.314l-0.279,-0.035a11.443,11.443 0 0 1 -4.258,-1.326a11.685,11.685 0 0 1 -3.8,-3.351l-0.279,-0.314l-0.279,0.349a12.267,12.267 0 0 1 -7.923,4.642l-0.314,0.035l0,0.314a18.6,18.6 0 0 0 3,10.925a18.058,18.058 0 0 0 5.27,5.27l-0.003,0zm-4.363,-11.483a0.35,0.35 0 0 1 0.349,-0.349l3.141,0l0,-3.141a0.35,0.35 0 0 1 0.349,-0.349l1.745,0a0.35,0.35 0 0 1 0.349,0.349l0,3.141l3.142,0a0.35,0.35 0 0 1 0.349,0.349l0,1.745a0.35,0.35 0 0 1 -0.349,0.349l-3.141,0l0,3.141a0.35,0.35 0 0 1 -0.349,0.349l-1.745,0a0.35,0.35 0 0 1 -0.349,-0.349l0,-3.141l-3.141,0a0.35,0.35 0 0 1 -0.349,-0.349l-0.001,-1.745z" fill="#7c8189"/>
   <path id="Path_169633" data-name="Path 169633" d="m20.536,5.026l-0.279,-0.035a12.53,12.53 0 0 1 -4.293,-1.326a11.933,11.933 0 0 1 -3.281,-2.618l-0.768,-1.047l-1.815,1.815l0,0.384a11.757,11.757 0 0 0 2.653,2.059a10.888,10.888 0 0 0 4.153,1.291l0.593,0.07l0,0.593a19.216,19.216 0 0 1 -3.037,10.925a18.581,18.581 0 0 1 -3.455,3.944l0.838,0.558l0.035,-0.035l0.035,0.035l0.209,-0.14a18.286,18.286 0 0 0 5.41,-5.445a18.772,18.772 0 0 0 2.967,-10.75l0.035,-0.278z" fill="#4a5162"/>
   <path id="Path_169634" data-name="Path 169634" d="m29.82099,11.23901z"/>
  </g>
 </g>

</svg>