<svg xmlns="http://www.w3.org/2000/svg" width="22.183" height="21.295" viewBox="0 0 22.183 21.295">
  <g id="noun-text-3077363" transform="translate(-115.076 16.359)">
    <path id="Path_169248" data-name="Path 169248" d="M212.386,142.24H202.112a1.074,1.074,0,1,0,0,2.148h10.274a1.074,1.074,0,0,0,0-2.148Z" transform="translate(-81.21 -153.195)" fill="#4a5162"/>
    <path id="Path_169249" data-name="Path 169249" d="M212.386,254.24H202.112a1.074,1.074,0,0,0,0,2.148h10.274a1.074,1.074,0,0,0,0-2.148Z" transform="translate(-81.21 -260.525)" fill="#4a5162"/>
    <path id="Path_169250" data-name="Path 169250" d="M209.024,366.24h-6.912a1.074,1.074,0,1,0,0,2.148H209a1.087,1.087,0,0,0,1.074-1.074,1.038,1.038,0,0,0-1.051-1.074Z" transform="translate(-81.21 -367.855)" fill="#4a5162"/>
    <path id="Path_169251" data-name="Path 169251" d="M102.515,24.641H87.664A3.657,3.657,0,0,0,84,28.307V42.27a3.657,3.657,0,0,0,3.666,3.666h14.851a3.657,3.657,0,0,0,3.666-3.666V28.307a3.657,3.657,0,0,0-3.666-3.666Zm1.518,17.629a1.515,1.515,0,0,1-1.518,1.518H87.664a1.515,1.515,0,0,1-1.518-1.518V28.307a1.515,1.515,0,0,1,1.518-1.518h14.851a1.515,1.515,0,0,1,1.518,1.518Z" transform="translate(31.078 -41)" fill="#4a5162"/>
  </g>
</svg>
