<svg xmlns="http://www.w3.org/2000/svg" width="23.061" height="23.061" viewBox="0 0 23.061 23.061">
  <g id="noun-tablet-horizontal-layout-2346980" transform="translate(-69.996)">
    <path id="Path_170574" data-name="Path 170574" d="M158.719,192.5H141.463A1.462,1.462,0,0,0,140,193.961v12.21a1.462,1.462,0,0,0,1.461,1.462h17.255a1.462,1.462,0,0,0,1.462-1.461V193.961A1.462,1.462,0,0,0,158.719,192.5ZM142.5,200.8a1.045,1.045,0,1,1,1.045-1.047A1.045,1.045,0,0,1,142.5,200.8Zm14.8,4.671H144.326v-10.81H157.3Zm1.807-5.39a.355.355,0,1,1,.355-.355A.355.355,0,0,1,159.105,200.082Z" transform="translate(-67.124 -184.573)" fill="#4a5162"/>
    <path id="Path_170575" data-name="Path 170575" d="M123.941,53.221a.721.721,0,1,1-.721-.721.721.721,0,0,1,.721.721" transform="translate(-50.342 -50.338)" fill="#4a5162"/>
    <path id="Path_170576" data-name="Path 170576" d="M193.921,53.221a.721.721,0,1,1-.721-.721.721.721,0,0,1,.721.721" transform="translate(-117.44 -50.338)" fill="#4a5162"/>
    <path id="Path_170577" data-name="Path 170577" d="M87.291,6.486h1.441V1.441h0A1.442,1.442,0,0,0,87.291,0H71.437A1.442,1.442,0,0,0,70,1.441V16.575a1.442,1.442,0,0,0,1.441,1.441V5.765H87.29ZM71.437,4.324V1.441H87.291V4.324Z" fill="#4a5162"/>
  </g>
</svg>
