<svg xmlns="http://www.w3.org/2000/svg" width="26.577" height="21.666" viewBox="0 0 26.577 21.666">
  <g id="noun-cursor-button-3350300" transform="translate(-6 3.502)">
    <path id="Path_168993" data-name="Path 168993" d="M.163,56.252A.562.562,0,0,1,.544,56.1a.573.573,0,0,1,.228.048L5.737,58.3l.636.273.411.177.711.309L9.871,60.1a.557.557,0,0,1,.341.538.283.283,0,0,1-.006.07h0a.56.56,0,0,1-.505.476l-2.644.257L9.532,64.1a.887.887,0,0,1-.046,1.252l-.861.8a.882.882,0,0,1-.6.237.9.9,0,0,1-.177-.018q-.044-.009-.087-.023a.787.787,0,0,1-.125-.048c-.027-.014-.054-.028-.079-.044a.821.821,0,0,1-.147-.115L7.372,66.1,4.848,63.386l-.473,2.742h0a.558.558,0,0,1-.511.466h-.05a.526.526,0,0,1-.1-.009.384.384,0,0,1-.066-.015.557.557,0,0,1-.369-.356L2.187,63.08l-.355-1.016-.019-.052L1.422,60.89.013,56.855h0a.557.557,0,0,1,.15-.6Z" transform="translate(22.365 -48.431)" fill="#4a5162"/>
    <path id="Path_168994" data-name="Path 168994" d="M93.775,213.582h8.531a.31.31,0,0,0,.263-.154.409.409,0,0,0,.041-.334l-.313-1.024a.327.327,0,0,0-.3-.246H94.1a3.373,3.373,0,0,1-2.531-1.2,4.39,4.39,0,0,1-1.049-2.887v-4.014a4.391,4.391,0,0,1,1.049-2.887,3.374,3.374,0,0,1,2.531-1.2h12.542a3.374,3.374,0,0,1,2.532,1.2,4.39,4.39,0,0,1,1.049,2.887v2.656a.374.374,0,0,0,.193.337l.9.439h0a.288.288,0,0,0,.3-.03.383.383,0,0,0,.146-.307v-3.1a6.279,6.279,0,0,0-1.5-4.127,4.825,4.825,0,0,0-3.621-1.708H94.1a4.824,4.824,0,0,0-3.621,1.71,6.278,6.278,0,0,0-1.5,4.129v4.381a5.889,5.889,0,0,0,1.407,3.867,4.526,4.526,0,0,0,3.392,1.6Z" transform="translate(-82.976 -201.392)" fill="#4a5162"/>
  </g>
</svg>
