<svg xmlns="http://www.w3.org/2000/svg" width="24.769" height="22.106" viewBox="0 0 24.769 22.106">
  <g id="Group_53877" data-name="Group 53877" transform="translate(-40 -743.699)">
    <g id="Group_53874" data-name="Group 53874" transform="translate(0.272 0.503)">
      <g id="noun-website-1440662" transform="translate(-49.874 695.595)">
        <path id="Path_169139" data-name="Path 169139" d="M114.371,51.33a3.728,3.728,0,0,0-3.729-3.729H93.331A3.728,3.728,0,0,0,89.6,51.33V65.978a3.728,3.728,0,0,0,3.729,3.729h17.312a3.728,3.728,0,0,0,3.729-3.729Zm-1.6,14.649h0a2.131,2.131,0,0,1-2.131,2.131H93.331A2.131,2.131,0,0,1,91.2,65.978V55.058h21.573Zm0-12.518H91.2V51.33A2.131,2.131,0,0,1,93.331,49.2h17.312a2.131,2.131,0,0,1,2.131,2.131Z" transform="translate(0)" fill="#4b5161"/>
        <path id="Path_169140" data-name="Path 169140" d="M220.173,98.886a.886.886,0,1,1-.886-.886.886.886,0,0,1,.886.886" transform="translate(-123.83 -47.591)" fill="#4b5161"/>
        <path id="Path_169141" data-name="Path 169141" d="M292.973,98.886a.886.886,0,1,1-.886-.886.886.886,0,0,1,.886.886" transform="translate(-194.326 -47.591)" fill="#4b5161"/>
        <path id="Path_169142" data-name="Path 169142" d="M147.373,98.886a.886.886,0,1,1-.886-.886.886.886,0,0,1,.886.886" transform="translate(-53.335 -47.591)" fill="#4b5161"/>
      </g>
      <g id="noun-code-1703088" transform="translate(-367.804 473.334)">
        <path id="Path_169147" data-name="Path 169147" d="M100.635,139.74l-2.066,7.628,1.231.333,2.066-7.628Zm-3.168.76-3.814,2.7-.73.521.73.516,3.814,2.7L98.2,145.9l-3.079-2.18,3.079-2.185Zm5.5,0-.735,1.038,3.079,2.185-3.079,2.18.735,1.038,3.814-2.7.73-.516-.73-.521Z" transform="translate(320.446 139.451)" fill="#4b5161"/>
      </g>
    </g>
  </g>
</svg>
