<svg xmlns="http://www.w3.org/2000/svg" width="23.561" height="23.04" viewBox="0 0 23.561 23.04">
  <g id="noun-text-format-120481" transform="translate(178.003 -1036.2)">
    <path id="Path_169096" data-name="Path 169096" d="M93.558,11.635H89.567v.893l.647.044a.814.814,0,0,1,.436.128c.085.06.1.094.1.254a2.643,2.643,0,0,1-.074.425,4.314,4.314,0,0,1-.108.42L88.43,19.462l-2.6-5.627c-.106-.241-.177-.417-.214-.532a.781.781,0,0,1-.048-.273c0-.174.1-.3.37-.381l.011,0a3.732,3.732,0,0,1,1.113-.1v-.907H81.239v.881a1.648,1.648,0,0,1,1.033.335,3.953,3.953,0,0,1,.677,1.129l3.924,8.482c.025.071.046.145.069.239a.992.992,0,0,1,.027.207,7.354,7.354,0,0,1-.739,2.128c-.473,1.051-.906,1.521-1.2,1.521a2.484,2.484,0,0,1-.81-.223,3.479,3.479,0,0,0-1.048-.255,1.7,1.7,0,0,0-1.1.392,1.385,1.385,0,0,0-.459,1.031,1.52,1.52,0,0,0,.746,1.347,2.835,2.835,0,0,0,1.451.39A3.224,3.224,0,0,0,86.4,27.929a16.141,16.141,0,0,0,2-3.984l3.929-10.4a2.24,2.24,0,0,1,.392-.736c.161-.19.374-.259.835-.287ZM85.147,6.2H70.157L70,9.86h1.152c.479-1.595,1.449-2.038,3.8-2.038h1.154V20.305c0,1.074-.113,1.652-.319,1.863a3.8,3.8,0,0,1-2.1.468v1.012h8.006V22.634a4.584,4.584,0,0,1-2.13-.422c-.229-.177-.351-.659-.351-1.607V7.821h1.141c2.464,0,3.24.4,3.825,2.038h1.13Z" transform="translate(-248 1030)" fill="#4a5162"/>
  </g>
</svg>
