<svg xmlns="http://www.w3.org/2000/svg" width="20.16" height="18.714" viewBox="0 0 20.16 18.714">
  <g id="Group_55105" data-name="Group 55105" transform="translate(0 2.344)">
    <g id="Group_53875" data-name="Group 53875" transform="translate(0 -2.344)">
      <g id="Group_53874" data-name="Group 53874" transform="translate(0 0)">
        <g id="noun-website-1440662">
          <path id="Path_169139" data-name="Path 169139" d="M109.762,63.159a3.222,3.222,0,0,1-.889,2.232,2.977,2.977,0,0,1-2.146.924H92.637a2.977,2.977,0,0,1-2.146-.924,3.222,3.222,0,0,1-.889-2.232v-12.4a3.222,3.222,0,0,1,.889-2.232,2.977,2.977,0,0,1,2.146-.924h14.09a2.977,2.977,0,0,1,2.146.924,3.222,3.222,0,0,1,.889,2.232Zm-1.3-12.4h0a1.842,1.842,0,0,0-.508-1.276,1.7,1.7,0,0,0-1.226-.528H92.637a1.7,1.7,0,0,0-1.226.528,1.842,1.842,0,0,0-.508,1.276v8.1h17.559Zm0,9.454H90.9v2.947a1.842,1.842,0,0,0,.508,1.276,1.7,1.7,0,0,0,1.226.528h14.09a1.7,1.7,0,0,0,1.226-.528,1.842,1.842,0,0,0,.508-1.276Z" transform="translate(-89.602 -47.601)" fill="#4a5162"/>
        </g>
      </g>
    </g>
    <rect id="Rectangle_35089" data-name="Rectangle 35089" width="16.139" height="1.924" rx="0.962" transform="translate(2 12.334)" fill="#4a5162"/>
  </g>
</svg>
