<svg xmlns="http://www.w3.org/2000/svg" width="30.204" height="26.291" viewBox="0 0 30.204 26.291">
  <g id="noun-guide-4435112" transform="translate(-159.45 -28.378)">
    <path id="Path_169439" data-name="Path 169439" d="M336.444,48.669h-1.516c-.18,0-.325-.1-.325-.214v-24.9L335.4,22.5a.412.412,0,0,1,.581,0l.793,1.056v24.9c0,.118-.146.214-.325.214Z" transform="translate(-161.139 6)" fill="#7c8189"/>
    <path id="Path_169440" data-name="Path 169440" d="M387.083,112.9h-9.832a.649.649,0,0,1-.65-.65v-5.2a.65.65,0,0,1,.65-.65h9.832a.651.651,0,0,1,.542.29l1.865,2.779a.329.329,0,0,1,0,.36l-1.854,2.779a.649.649,0,0,1-.542.29Z" transform="translate(-199.889 -72.818)" fill="#7c8189"/>
    <path id="Path_169441" data-name="Path 169441" d="M155.9,210.9h9.834a.65.65,0,0,0,.65-.65v-5.2a.65.65,0,0,0-.65-.65H155.9a.65.65,0,0,0-.542.29L153.5,207.47a.329.329,0,0,0,0,.36l1.854,2.779a.649.649,0,0,0,.539.29Z" transform="translate(6 -165.826)" fill="#7c8189"/>
  </g>
</svg>
