<svg xmlns="http://www.w3.org/2000/svg" width="22.744" height="22.744" viewBox="0 0 22.744 22.744">
  <g id="noun-headline-3744119" transform="translate(-217.697 -147.698)">
    <path id="Path_169240" data-name="Path 169240" d="M240.441,150.135v17.87A2.437,2.437,0,0,1,238,170.442h-17.87a2.437,2.437,0,0,1-2.437-2.437v-17.87a2.437,2.437,0,0,1,2.437-2.437H238a2.437,2.437,0,0,1,2.437,2.437Zm-5.686,2.437H233.13a.812.812,0,0,0-.812.813v4.061h-6.5v-4.061a.813.813,0,0,0-.812-.813h-1.624a.813.813,0,0,0-.813.813v11.372a.813.813,0,0,0,.813.813h1.674a.813.813,0,0,0,.813-.813v-4.061h6.5v4.061h0a.812.812,0,0,0,.812.813H234.8a.812.812,0,0,0,.812-.813V153.384a.813.813,0,0,0-.863-.813Z" transform="translate(0 0)" fill="#4a5162"/>
  </g>
</svg>
