<svg xmlns="http://www.w3.org/2000/svg" width="23.049" height="19.455" viewBox="0 0 23.049 19.455">
  <g id="Group_53867" data-name="Group 53867" transform="translate(-42.221 -466.05)">
    <g id="Layer_2" data-name="Layer 2" transform="translate(42.221 466.05)">
      <g id="Layer_2-2" data-name="Layer 2" transform="translate(0 0)">
        <g id="Group_53866" data-name="Group 53866">
          <path id="Path_33104" data-name="Path 33104" d="M21.192,19.455H1.857A1.886,1.886,0,0,1,0,17.541V1.915A1.886,1.886,0,0,1,1.857,0H21.192a1.886,1.886,0,0,1,1.857,1.915V17.541a1.886,1.886,0,0,1-1.857,1.915ZM1.857,1.493a.416.416,0,0,0-.409.422V17.541a.416.416,0,0,0,.409.422H21.192a.416.416,0,0,0,.405-.422V1.915a.416.416,0,0,0-.405-.422Z" fill="#48a3d7"/>
          <path id="Path_33105" data-name="Path 33105" d="M10.906,30.481h12.75a.546.546,0,0,0,.5-.4.989.989,0,0,0-.044-.792l-1.759-3.281a.537.537,0,0,0-.4-.308.469.469,0,0,0-.428.21l-1.807,2.363-4.2-7.826a.512.512,0,0,0-.455-.306.536.536,0,0,0-.442.341l-4.2,8.842a.994.994,0,0,0-.019.774A.541.541,0,0,0,10.906,30.481Z" transform="translate(-5.759 -13.769)" fill="#48a3d7"/>
          <circle id="Ellipse_626" data-name="Ellipse 626" cx="2.63" cy="2.63" r="2.63" transform="translate(13.114 3.239)" fill="#48a3d7"/>
        </g>
      </g>
    </g>
  </g>
</svg>
