<svg xmlns="http://www.w3.org/2000/svg" width="19.068" height="24.001" viewBox="0 0 19.068 24.001">
  <g id="noun-processing-template-1021326" transform="translate(-131.622 -25.748)">
    <path id="Path_170791" data-name="Path 170791" d="M178.154,40a1.445,1.445,0,0,0,2.889,0,1.468,1.468,0,0,0-1.445-1.445A1.449,1.449,0,0,0,178.154,40Zm-1.445,0a1.449,1.449,0,0,0-1.445-1.445,1.445,1.445,0,1,0,0,2.889A1.449,1.449,0,0,0,176.71,40Zm-4.334,0a1.445,1.445,0,0,0-2.889,0,1.468,1.468,0,0,0,1.445,1.445A1.431,1.431,0,0,0,172.376,40Zm7.887-12h-14.5V52h19.068V32.565Zm3.12,22.557H167.2V29.445H179.4V33.72h3.987Zm-.924-18.281H180.87v-1.7Z" transform="translate(-34.138 -2.252)" fill="#4b5161"/>
  </g>
</svg>
