<svg xmlns="http://www.w3.org/2000/svg" width="21.922" height="18.635" viewBox="0 0 21.922 18.635">
  <g id="Group_54893" data-name="Group 54893" transform="translate(-30.26 -323.888)">
    <g id="Group_53875" data-name="Group 53875" transform="translate(30.26 323.888)">
      <g id="Group_53874" data-name="Group 53874">
        <g id="noun-website-1440662">
          <path id="Path_169139" data-name="Path 169139" d="M111.524,50.744a3.069,3.069,0,0,0-.966-2.223,3.385,3.385,0,0,0-2.334-.921H92.9a3.386,3.386,0,0,0-2.334.921,3.069,3.069,0,0,0-.966,2.223V63.093a3.069,3.069,0,0,0,.966,2.223,3.385,3.385,0,0,0,2.334.921h15.322a3.386,3.386,0,0,0,2.334-.921,3.069,3.069,0,0,0,.966-2.223ZM110.11,63.093h0a1.755,1.755,0,0,1-.552,1.27,1.935,1.935,0,0,1-1.334.526H92.9a1.935,1.935,0,0,1-1.334-.526,1.755,1.755,0,0,1-.552-1.27V53.887H110.11Zm0-10.552H91.016v-1.8a1.755,1.755,0,0,1,.552-1.27,1.935,1.935,0,0,1,1.334-.526h15.322a1.935,1.935,0,0,1,1.333.526,1.755,1.755,0,0,1,.552,1.27Z" transform="translate(-89.602 -47.601)" fill="#4b5161"/>
        </g>
      </g>
    </g>
    <rect id="Rectangle_35089" data-name="Rectangle 35089" width="15.9" height="8.924" rx="1" transform="translate(33.26 331.244)" fill="#7c8189"/>
  </g>
</svg>
