<svg width="26.9" height="25.5" xmlns="http://www.w3.org/2000/svg">
 <g>
  <title>Layer 1</title>
  <path fill="#7c8189" d="m24.96,47.04l0,0zm-22.08,-26.88a2.875,2.875 0 0 0 2.7,-1.92l4.02,0a0.96,0.96 0 0 0 0.96,-0.96l0,-2.88l1.92,0l0,4.977a2.88,2.88 0 1 0 1.92,0l0,-4.977l1.92,0l0,2.88a0.96,0.96 0 0 0 0.96,0.96l4.02,0a2.88,2.88 0 1 0 0,-1.92l-3.06,0l0,-1.92a5.76,5.76 0 0 0 0.19,-11.517a5.76,5.76 0 0 0 -9.98,0a5.76,5.76 0 0 0 0.19,11.517l0,1.92l-3.057,0a2.875,2.875 0 1 0 -2.7,3.84l-0.003,0z" data-name="Path 169437" id="Path_169437"/>
 </g>

</svg>