<svg xmlns="http://www.w3.org/2000/svg" width="26.698" height="22.67" viewBox="0 0 26.698 22.67">
  <g id="noun-testimonial-1065389" transform="translate(-73.647 -37.379)">
    <path id="Path_169430" data-name="Path 169430" d="M184.376,89.6a12.294,12.294,0,0,0-2.19.2.633.633,0,0,0,.227,1.245,11.026,11.026,0,0,1,1.964-.175c5.332,0,9.671,3.812,9.671,8.5a7.778,7.778,0,0,1-1.967,5.136.631.631,0,0,0-.143.531l.59,3.135-3.165-1.073a.63.63,0,0,0-.412,0,17.849,17.849,0,0,1-4.573.768c-5.332,0-9.67-3.812-9.67-8.5a.633.633,0,1,0-1.265,0c0,5.383,4.905,9.763,10.936,9.763a19.124,19.124,0,0,0,4.78-.768l3.99,1.354a.64.64,0,0,0,.2.033.632.632,0,0,0,.622-.75l-.735-3.9a8.987,8.987,0,0,0,2.077-5.727c0-5.383-4.907-9.762-10.937-9.762Z" transform="translate(-94.969 -49.7)" fill="#7c8189"/>
    <path id="Path_169431" data-name="Path 169431" d="M82.455,48.369a.506.506,0,0,0,.734-.533l-.578-3.368,2.448-2.386a.506.506,0,0,0-.281-.863L81.4,40.727l-1.514-3.066a.506.506,0,0,0-.908,0l-1.513,3.066-3.382.492a.506.506,0,0,0-.281.863l2.447,2.386-.577,3.368a.506.506,0,0,0,.734.533l3.024-1.589Z" fill="#7c8189"/>
    <path id="Path_169432" data-name="Path 169432" d="M299.29,209.74h-9.42a.633.633,0,0,0,0,1.265h9.42a.633.633,0,1,0,0-1.265Z" transform="translate(-205.165 -164.026)" fill="#7c8189"/>
    <path id="Path_169433" data-name="Path 169433" d="M299.931,278.257a.633.633,0,0,0-.633-.633h-9.42a.633.633,0,0,0,0,1.266h9.42a.632.632,0,0,0,.633-.633Z" transform="translate(-205.173 -228.627)" fill="#7c8189"/>
    <path id="Path_169434" data-name="Path 169434" d="M289.871,345.51a.633.633,0,0,0,0,1.266h3.812a.633.633,0,0,0,0-1.266Z" transform="translate(-205.165 -293.23)" fill="#7c8189"/>
  </g>
</svg>
