<svg xmlns="http://www.w3.org/2000/svg" width="21.79" height="14.526" viewBox="0 0 21.79 14.526">
  <g id="noun-video-1635751" transform="translate(-125.996 -130.66)">
    <path id="Path_169518" data-name="Path 169518" d="M213.375,130.66H202.48a1.822,1.822,0,0,0-1.816,1.816v10.895a1.822,1.822,0,0,0,1.816,1.816h10.895a1.822,1.822,0,0,0,1.816-1.816V132.476A1.822,1.822,0,0,0,213.375,130.66Zm-7.036,9.987V135.2l4.086,2.724Z" transform="translate(-71.036)" fill="#48a3d7"/>
    <path id="Path_169519" data-name="Path 169519" d="M128.266,168H126.9a.911.911,0,0,0-.908.908v9.079a.911.911,0,0,0,.908.908h1.362Z" transform="translate(0 -35.524)" fill="#48a3d7"/>
    <path id="Path_169520" data-name="Path 169520" d="M527.34,178.9H528.7a.911.911,0,0,0,.908-.908V168.91A.911.911,0,0,0,528.7,168H527.34Z" transform="translate(-381.824 -35.526)" fill="#48a3d7"/>
  </g>
</svg>
