<svg width="46.904" height="40.294" xmlns="http://www.w3.org/2000/svg" data-name="Group 55772">
 <g>
  <title>Layer 1</title>
  <g id="Group_55748" data-name="Group 55748">
   <g id="noun-folder-4684034_1_" data-name="noun-folder-4684034 (1)">
    <path id="Path_170887" data-name="Path 170887" d="m42.976,6.237l-22.108,0l-2.989,-4.487a3.911,3.911 0 0 0 -3.269,-1.75l-10.683,0a3.935,3.935 0 0 0 -3.927,3.927l0,32.438a3.934,3.934 0 0 0 3.927,3.927l39.049,0a3.935,3.935 0 0 0 3.927,-3.927l0,-26.2a3.935,3.935 0 0 0 -3.928,-3.928l0.001,0zm1.827,30.128a1.829,1.829 0 0 1 -1.827,1.827l-39.049,0a1.829,1.829 0 0 1 -1.824,-1.827l0,-28.027l40.876,0a1.829,1.829 0 0 1 1.824,1.827l0,26.2z" fill="#ffffff"/>
   </g>
  </g>
  <g id="Group_55747" data-name="Group 55747">
   <rect id="Rectangle_35937" data-name="Rectangle 35937" width="9.954" height="22.894" rx="2" fill="#ffffff" y="11.686" x="11.508"/>
   <rect id="Rectangle_35938" data-name="Rectangle 35938" width="11.945" height="6.968" rx="2" fill="#ffffff" y="11.686" x="23.453"/>
   <rect id="Rectangle_35939" data-name="Rectangle 35939" width="11.945" height="14.931" rx="2" fill="#ffffff" y="19.649" x="23.453"/>
  </g>
 </g>

</svg>