<svg xmlns="http://www.w3.org/2000/svg" width="44.608" height="28.764" viewBox="0 0 44.608 28.764">
  <g id="noun-cursor-button-3350300" transform="translate(0)">
    <path id="Path_168993" data-name="Path 168993" d="M.241,56.316A.8.8,0,0,1,.785,56.1a.817.817,0,0,1,.326.068l7.083,3.073.907.39.587.253,1.014.441L14.089,61.8a.794.794,0,0,1,.486.767.4.4,0,0,1-.008.1h0a.8.8,0,0,1-.721.679l-3.772.366,3.531,3.8a1.266,1.266,0,0,1-.066,1.785l-1.228,1.14a1.258,1.258,0,0,1-.859.338,1.282,1.282,0,0,1-.253-.025q-.063-.013-.124-.032a1.122,1.122,0,0,1-.179-.068c-.039-.02-.077-.04-.113-.063a1.171,1.171,0,0,1-.21-.163l-.05-.053-3.6-3.878L6.25,70.4h0a.8.8,0,0,1-.729.665H5.449a.748.748,0,0,1-.14-.012.548.548,0,0,1-.094-.021.794.794,0,0,1-.527-.508l-1.562-4.47-.506-1.449L2.6,64.534l-.559-1.6L.028,57.176h0a.8.8,0,0,1,.214-.861Z" transform="translate(30.032 -42.306)" fill="#4ba4da"/>
    <path id="Path_168994" data-name="Path 168994" d="M90.781,220.275h18.87a.522.522,0,0,0,.495-.7l-.509-1.461a.522.522,0,0,0-.493-.351H91.3a5.825,5.825,0,0,1-5.822-5.824v-5.726a5.824,5.824,0,0,1,5.822-5.824H116.7a5.825,5.825,0,0,1,5.824,5.824v3.789a.526.526,0,0,0,.313.48l1.461.626h0a.524.524,0,0,0,.733-.48v-4.419a8.33,8.33,0,0,0-8.332-8.323H91.3a8.327,8.327,0,0,0-8.327,8.329v6.25a7.814,7.814,0,0,0,7.805,7.805Z" transform="translate(-82.976 -197.89)" fill="#4ba4da"/>
  </g>
</svg>
