<svg xmlns="http://www.w3.org/2000/svg" width="34.63" height="34.629" viewBox="0 0 34.63 34.629">
  <g id="noun-copyright-137046" transform="translate(-270.664 -390.66)">
    <path id="Path_169002" data-name="Path 169002" d="M287.979,200.66a17.315,17.315,0,1,0,17.315,17.315A17.334,17.334,0,0,0,287.979,200.66Zm0,30.962a13.648,13.648,0,1,1,13.649-13.648A13.663,13.663,0,0,1,287.979,231.622Zm0-20.182a6.492,6.492,0,0,1,4.621,1.915,1.833,1.833,0,1,0,2.592-2.593,10.194,10.194,0,1,0,0,14.426,1.833,1.833,0,0,0-2.592-2.593,6.535,6.535,0,1,1-4.622-11.155Z" transform="translate(0 190)" fill="#61a7db"/>
  </g>
</svg>
