<svg xmlns="http://www.w3.org/2000/svg" width="35.178" height="27.954" viewBox="0 0 35.178 27.954">
  <g id="noun-google-map-1485230" transform="translate(-63.003 -2392.82)">
    <path id="Path_168995" data-name="Path 168995" d="M80.5,44.211h-8.48l-.875,5.878H80.5Zm0,7.434H70.916L70,57.774H80.5Zm1.75-7.434v5.878h10.68V44.211H91.367c-1.224,1.316-2.514,2.6-3.775,3.885-1.261-1.289-2.552-2.57-3.775-3.885Zm10.68,7.434H82.252v6.128h10.68ZM87.592,39.918A4.184,4.184,0,0,1,83.188,36,4.435,4.435,0,0,1,92,36,4.184,4.184,0,0,1,87.592,39.918Zm0,6.273c2.48-2.538,6.577-6.45,7.108-9.762.654-4.078-2.849-6.608-7.108-6.608s-7.762,2.53-7.108,6.608C81.015,39.74,85.112,43.652,87.592,46.19Zm8.593-10.707c-.008,2.6-1.571,4.921-3.252,6.955v.218h10l-1.067-7.173Zm6.977,8.729h-8.48V50.09h9.354Zm1.107,7.434H94.682v6.128h10.5ZM73.322,35.483l-1.068,7.173h10v-.218C80.57,40.4,79.008,38.081,79,35.483Z" transform="translate(-7 2363)" fill="#4ba4da" fill-rule="evenodd"/>
  </g>
</svg>
