<svg id="Group_54075" data-name="Group 54075" xmlns="http://www.w3.org/2000/svg" width="41.782" height="29.17" viewBox="0 0 41.782 29.17">
  <path id="Path_167709" data-name="Path 167709" d="M42.921,52.3a3.612,3.612,0,1,1,3.612-3.612A3.612,3.612,0,0,1,42.921,52.3ZM26.667,47.783H37.5V49.45H26.667Zm21.672,0H59.175V49.45H48.339Z" transform="translate(-22.023 -39.626)" fill="#4ba4da"/>
  <text id="H" transform="translate(20.415 21.452)" fill="#4ba4da" font-size="9" font-family="SegoeUI-Semibold, Segoe UI" font-weight="600"><tspan x="-3.309" y="0">H</tspan></text>
  <path id="Path_33104" data-name="Path 33104" d="M34.865,29.17H-1.083a3,3,0,0,1-2.824-2.25A2.683,2.683,0,0,1-4,26.163V3.008A2.963,2.963,0,0,1-1.083,0H34.865a2.963,2.963,0,0,1,2.917,3.008V26.163a2.963,2.963,0,0,1-2.917,3.008ZM-1.083,2.345c-.355,0-.643.663-.643.663V26.163c0,.366,1.681.663,2.036.663H34.865a.653.653,0,0,0,.637-.663V3.008a.653.653,0,0,0-.637-.663Z" transform="translate(4)" fill="#4ba4da"/>
</svg>
