<svg xmlns="http://www.w3.org/2000/svg" width="29.639" height="21.732" viewBox="0 0 29.639 21.732">
  <g id="Group_54152" data-name="Group 54152" transform="translate(-61.186 -1142)">
    <path id="Path_169355" data-name="Path 169355" d="M30.382,9.5H18.258a.85.85,0,0,0,0,1.69H30.382a.85.85,0,0,0,0-1.69Z" transform="translate(43.686 1132.5)" fill="#4ba4da"/>
    <path id="Path_169356" data-name="Path 169356" d="M30.382,13.5H18.258a.874.874,0,0,0,0,1.732H30.382a.874.874,0,0,0,0-1.732Z" transform="translate(43.686 1133.5)" fill="#4ba4da"/>
    <path id="Path_169357" data-name="Path 169357" d="M30.382,9.5H18.258a.85.85,0,0,0,0,1.69H30.382a.85.85,0,0,0,0-1.69Z" transform="translate(43.686 1142.5)" fill="#4ba4da"/>
    <path id="Path_169358" data-name="Path 169358" d="M30.382,13.5H18.258a.874.874,0,0,0,0,1.732H30.382a.874.874,0,0,0,0-1.732Z" transform="translate(43.686 1143.5)" fill="#4ba4da"/>
    <path id="Path_169359" data-name="Path 169359" d="M30.382,13.5H18.258a.874.874,0,0,0,0,1.732H30.382a.874.874,0,0,0,0-1.732Z" transform="translate(43.686 1148.5)" fill="#4ba4da"/>
    <path id="Path_169360" data-name="Path 169360" d="M30.382,9.5H18.258a.85.85,0,0,0,0,1.69H30.382a.85.85,0,0,0,0-1.69Z" transform="translate(59.686 1132.5)" fill="#4ba4da"/>
    <path id="Path_169361" data-name="Path 169361" d="M30.382,13.5H18.258a.874.874,0,0,0,0,1.732H30.382a.874.874,0,0,0,0-1.732Z" transform="translate(59.686 1133.5)" fill="#4ba4da"/>
    <path id="Path_169362" data-name="Path 169362" d="M30.382,9.5H18.258a.85.85,0,0,0,0,1.69H30.382a.85.85,0,0,0,0-1.69Z" transform="translate(59.686 1142.5)" fill="#4ba4da"/>
    <path id="Path_169363" data-name="Path 169363" d="M30.382,13.5H18.258a.874.874,0,0,0,0,1.732H30.382a.874.874,0,0,0,0-1.732Z" transform="translate(59.686 1143.5)" fill="#4ba4da"/>
    <path id="Path_169364" data-name="Path 169364" d="M30.382,13.5H18.258a.874.874,0,0,0,0,1.732H30.382a.874.874,0,0,0,0-1.732Z" transform="translate(59.686 1148.5)" fill="#4ba4da"/>
  </g>
</svg>
