<svg xmlns="http://www.w3.org/2000/svg" width="29.907" height="34.345" viewBox="0 0 29.907 34.345">
  <g id="noun-anchor-3547679" transform="translate(-1096.799 394.672)">
    <path id="Path_169067" data-name="Path 169067" d="M219.845,112.427a6.092,6.092,0,1,0-7.754,5.854V122.4h-6.646v3.323h6.646v6.646a4.984,4.984,0,0,1-9.969,0v-3.877H198.8v3.877a8.308,8.308,0,0,0,14.953,4.984,8.307,8.307,0,0,0,14.953-4.984v-3.877h-3.323v3.877a4.985,4.985,0,0,1-9.969,0v-6.646h6.646V122.4h-6.646v-4.115a6.093,6.093,0,0,0,4.431-5.854Zm-8.862,0a2.769,2.769,0,1,1,.811,1.958A2.77,2.77,0,0,1,210.983,112.427Z" transform="translate(898 -501)" fill="#4ba4da"/>
  </g>
</svg>
