<svg xmlns="http://www.w3.org/2000/svg" width="25.416" height="32.678" viewBox="0 0 25.416 32.678">
  <g id="Group_54107" data-name="Group 54107" transform="translate(-448.01 -1784.366)">
    <g id="noun-title-page-192325_1_" data-name="noun-title-page-192325 (1)" transform="translate(448.01 1784.366)">
      <path id="Path_169051" data-name="Path 169051" d="M179.416,59.77V33.446a1.042,1.042,0,0,0-.254-.653l-4.539-4.539A1.042,1.042,0,0,0,173.97,28H154.908a.9.9,0,0,0-.908.908V59.77a.9.9,0,0,0,.908.908h23.6a.9.9,0,0,0,.908-.908ZM173.97,30.179l3.268,3.268H173.97ZM177.6,58.862H155.816V29.816h16.339v4.539a.9.9,0,0,0,.908.908H177.6Z" transform="translate(-154 -28)" fill="#4ba4da"/>
      <path id="Path_169052" data-name="Path 169052" d="M238.908,224a.908.908,0,1,0,0,1.815h12.708a.908.908,0,0,0,0-1.815Z" transform="translate(-232.554 -211.292)" fill="#4ba4da"/>
      <path id="Path_169053" data-name="Path 169053" d="M300.354,280h-5.446a.908.908,0,1,0,0,1.815h5.446a.908.908,0,0,0,0-1.815Z" transform="translate(-284.923 -263.661)" fill="#4ba4da"/>
    </g>
    <path id="Path_169057" data-name="Path 169057" d="M-13957.3-12576.426v5.154h4.986Z" transform="translate(14424.544 14361.815)" fill="#4ba4da"/>
  </g>
</svg>
