<svg xmlns="http://www.w3.org/2000/svg" width="31.825" height="31.825" viewBox="0 0 31.825 31.825">
  <g id="Group_54077" data-name="Group 54077" transform="translate(-278 -1096.573)">
    <path id="Path_167728" data-name="Path 167728" d="M30.382,9.5H18.258a.85.85,0,0,0,0,1.69H30.382a.85.85,0,0,0,0-1.69Z" transform="translate(278.686 1093.135)" fill="#4ba4da"/>
    <path id="Path_167729" data-name="Path 167729" d="M30.382,13.5H18.258a.874.874,0,0,0,0,1.732H30.382a.874.874,0,0,0,0-1.732Z" transform="translate(278.686 1094.98)" fill="#4ba4da"/>
    <path id="Path_167730" data-name="Path 167730" d="M36.567,17.5H6.258a.947.947,0,0,0,0,1.856h30.31a.947.947,0,0,0,0-1.856Z" transform="translate(272.5 1096.918)" fill="#4ba4da"/>
    <path id="Path_167731" data-name="Path 167731" d="M36.567,21.5H6.258a.887.887,0,0,0,0,1.755h30.31a.887.887,0,0,0,0-1.755Z" transform="translate(272.5 1099.082)" fill="#4ba4da"/>
    <path id="Path_167732" data-name="Path 167732" d="M21.413,25.5H6.258c-.418,0-.758.453-.758,1.012s.339,1.012.758,1.012H21.413c.418,0,.758-.453.758-1.012S21.831,25.5,21.413,25.5Z" transform="translate(272.5 1100.874)" fill="#4ba4da"/>
    <path id="Path_167733" data-name="Path 167733" d="M6.258,19.139H18.382a.758.758,0,0,0,.758-.758V6.258a.758.758,0,0,0-.758-.758H6.258a.758.758,0,0,0-.758.758V18.382A.758.758,0,0,0,6.258,19.139ZM7.015,7.015H17.624V17.624H7.015Z" transform="translate(272.5 1091.073)" fill="#4ba4da"/>
    <path id="Path_167734" data-name="Path 167734" d="M.207,9.275a.35.35,0,0,0,.462-.182L1.8,6.5H3.791l1.134,2.59a.35.35,0,1,0,.641-.28l-2.45-5.6a.35.35,0,0,0-.641,0l-2.45,5.6a.35.35,0,0,0,.182.462ZM2.8,4.227,3.5,5.8H2.1Z" transform="translate(282.027 1096.796)" fill="#4ba4da"/>
  </g>
</svg>
