<svg id="icon_search" xmlns="http://www.w3.org/2000/svg" width="33.056" height="33.056" viewBox="0 0 33.056 33.056">
  <path id="icon_search-2" data-name="icon_search" d="M26.238,23.2a14,14,0,0,0,2.892-8.623A14.5,14.5,0,0,0,14.668,0,14.679,14.679,0,0,0,0,14.577,14.679,14.679,0,0,0,14.668,29.155a13.773,13.773,0,0,0,8.677-2.874l6.2,6.159a2.006,2.006,0,0,0,2.892,0,1.976,1.976,0,0,0,0-2.874Zm-11.57,1.643A10.375,10.375,0,0,1,4.132,14.577a10.537,10.537,0,0,1,21.073,0A10.375,10.375,0,0,1,14.668,24.843Z" fill="#4ba4da"/>
</svg>
