<svg xmlns="http://www.w3.org/2000/svg" width="36.059" height="35.682" viewBox="0 0 36.059 35.682">
  <g id="Group_54109" data-name="Group 54109" transform="translate(-76.969 -1950)">
    <g id="Group_53827" data-name="Group 53827" transform="translate(76.969 1950)">
      <g id="linkedin-svgrepo-com" transform="translate(18.494)">
        <ellipse id="Ellipse_8527" data-name="Ellipse 8527" cx="8.752" cy="8.729" rx="8.752" ry="8.729" transform="translate(0 0)" fill="#4ba4da"/>
        <g id="Group_53825" data-name="Group 53825" transform="translate(4.116 3.633)">
          <path id="Path_169061" data-name="Path 169061" d="M37.022,29.8v3.681H34.888V30.047c0-.862-.308-1.451-1.081-1.451a1.167,1.167,0,0,0-1.095.78,1.461,1.461,0,0,0-.071.52v3.584H30.508s.029-5.816,0-6.418h2.134v.909c0,.007-.01.014-.014.021h.014v-.021a2.119,2.119,0,0,1,1.923-1.06c1.4,0,2.456.917,2.456,2.888Zm-8.746-5.831a1.112,1.112,0,1,0-.028,2.218h.014a1.112,1.112,0,1,0,.014-2.218Zm-1.081,9.512h2.133V27.063H27.195Z" transform="translate(-27.068 -23.969)" fill="#f1f2f2"/>
        </g>
      </g>
      <g id="facebook-svgrepo-com_1_" data-name="facebook-svgrepo-com (1)">
        <path id="Path_169058" data-name="Path 169058" d="M8.893,0A8.893,8.893,0,1,1,0,8.893,8.893,8.893,0,0,1,8.893,0Z" transform="translate(0 0)" fill="#4ba4da"/>
        <path id="Path_169059" data-name="Path 169059" d="M112.449,74.24h1.146V72.547h-1.347v.006c-1.632.058-1.967.975-2,1.939h0v.845h-1.112V77h1.112V81.44h1.675V77H113.3l.265-1.658h-1.637v-.511A.546.546,0,0,1,112.449,74.24Z" transform="translate(-102.473 -68.118)" fill="#fff"/>
      </g>
      <g id="twitter-svgrepo-com_1_" data-name="twitter-svgrepo-com (1)" transform="translate(0.26 18.234)">
        <ellipse id="Ellipse_8526" data-name="Ellipse 8526" cx="8.724" cy="8.724" rx="8.724" ry="8.724" transform="translate(0 0)" fill="#4ba4da"/>
        <g id="Group_53824" data-name="Group 53824" transform="translate(3.903 5.292)">
          <path id="Path_169060" data-name="Path 169060" d="M35.267,35.006a4.16,4.16,0,0,1-1.2.328,2.091,2.091,0,0,0,.917-1.153,4.174,4.174,0,0,1-1.324.506,2.087,2.087,0,0,0-3.553,1.9,5.919,5.919,0,0,1-4.3-2.179,2.088,2.088,0,0,0,.645,2.784,2.071,2.071,0,0,1-.944-.261c0,.009,0,.018,0,.026A2.086,2.086,0,0,0,27.184,39a2.093,2.093,0,0,1-.942.036,2.087,2.087,0,0,0,1.948,1.448,4.209,4.209,0,0,1-3.087.863,5.93,5.93,0,0,0,9.129-5c0-.09,0-.18-.006-.27a4.229,4.229,0,0,0,1.041-1.079Z" transform="translate(-25.103 -34.028)" fill="#f1f2f2"/>
        </g>
      </g>
    </g>
    <g id="Group_53826" data-name="Group 53826" transform="translate(95.463 1967.897)">
      <g id="linkedin-svgrepo-com-2" data-name="linkedin-svgrepo-com">
        <ellipse id="Ellipse_8527-2" data-name="Ellipse 8527" cx="8.782" cy="8.782" rx="8.782" ry="8.782" transform="translate(0 0)" fill="#4ba4da"/>
      </g>
      <path id="Path_169064" data-name="Path 169064" d="M21.714,17c-1.28,0-1.441.006-1.943.028a3.459,3.459,0,0,0-1.144.219,2.411,2.411,0,0,0-1.379,1.378,3.443,3.443,0,0,0-.219,1.144c-.022.5-.028.663-.028,1.944s.006,1.44.028,1.943a3.464,3.464,0,0,0,.219,1.144,2.412,2.412,0,0,0,1.378,1.379,3.462,3.462,0,0,0,1.144.219c.5.023.663.028,1.943.028s1.44-.006,1.943-.028a3.464,3.464,0,0,0,1.145-.219A2.415,2.415,0,0,0,26.179,24.8a3.494,3.494,0,0,0,.219-1.144c.023-.5.028-.663.028-1.943s-.006-1.441-.028-1.943a3.492,3.492,0,0,0-.219-1.144A2.411,2.411,0,0,0,24.8,17.247a3.47,3.47,0,0,0-1.145-.219c-.5-.023-.663-.028-1.943-.028Zm-.423.849h.423c1.258,0,1.408,0,1.9.027a2.609,2.609,0,0,1,.875.162,1.562,1.562,0,0,1,.894.895,2.6,2.6,0,0,1,.162.875c.023.5.027.646.027,1.9s0,1.407-.027,1.9a2.607,2.607,0,0,1-.162.875,1.563,1.563,0,0,1-.894.894,2.6,2.6,0,0,1-.875.162c-.5.023-.646.027-1.9.027s-1.408,0-1.9-.027a2.615,2.615,0,0,1-.875-.163,1.562,1.562,0,0,1-.895-.894,2.6,2.6,0,0,1-.162-.875c-.023-.5-.027-.646-.027-1.9s0-1.407.027-1.9a2.609,2.609,0,0,1,.162-.875,1.562,1.562,0,0,1,.895-.895,2.6,2.6,0,0,1,.875-.163c.435-.02.6-.026,1.482-.027Zm2.939.783a.566.566,0,1,0,.566.566.566.566,0,0,0-.566-.566Zm-2.516.661a2.42,2.42,0,1,0,2.42,2.42,2.421,2.421,0,0,0-2.42-2.42Zm0,.849a1.571,1.571,0,1,1-1.571,1.571A1.571,1.571,0,0,1,21.714,20.142Z" transform="translate(-12.792 -12.95)" fill="#fff"/>
    </g>
  </g>
</svg>
