<svg xmlns="http://www.w3.org/2000/svg" width="36.253" height="35.9" viewBox="0 0 36.253 35.9">
  <g id="Group_54086" data-name="Group 54086" transform="translate(-7.372 -7.763)">
    <g id="Group_54520" data-name="Group 54520">
      <circle id="Ellipse_8499" data-name="Ellipse 8499" cx="2.78" cy="2.78" r="2.78" transform="translate(11.07 38.103)" fill="#4ba4da"/>
      <path id="Path_167833" data-name="Path 167833" d="M53.747,77.831H28.514a3.365,3.365,0,0,1,0,2.939H53.747a1.47,1.47,0,1,0,0-2.939Z" transform="translate(-11.592 -38.417)" fill="#4ba4da"/>
      <path id="Path_167834" data-name="Path 167834" d="M8.842,77.831a1.47,1.47,0,1,0,0,2.939h1.936a3.365,3.365,0,0,1,0-2.939Z" transform="translate(0 -38.417)" fill="#4ba4da"/>
      <path id="Path_167835" data-name="Path 167835" d="M39.426,7.763H11.571a4.2,4.2,0,0,0-4.2,4.2v21a4.2,4.2,0,0,0,4.2,4.2H39.426a4.2,4.2,0,0,0,4.2-4.2v-21A4.2,4.2,0,0,0,39.426,7.763ZM32.677,24.4,21.8,30.683a2.135,2.135,0,0,1-1.062.3,1.915,1.915,0,0,1-1.9-2.007V16.41a1.914,1.914,0,0,1,1.9-2.007A2.139,2.139,0,0,1,21.8,14.7l10.879,6.281a1.928,1.928,0,0,1,0,3.424Z" fill="#4ba4da"/>
    </g>
  </g>
</svg>
