<svg xmlns="http://www.w3.org/2000/svg" width="24.363" height="16.236" viewBox="0 0 24.363 16.236">
  <g id="Group_55325" data-name="Group 55325" transform="translate(-4.27 -232.51)">
    <path id="Path_170708" data-name="Path 170708" d="M80.309,102.084H70.546a.542.542,0,0,1-.541-.541V93.951a.542.542,0,0,1,.541-.541h9.763a.542.542,0,0,1,.541.541v7.591a.542.542,0,0,1-.541.542Z" transform="translate(-65.734 139.1)" fill="#222e43"/>
    <path id="Path_170709" data-name="Path 170709" d="M371.592,95.153H360.946a.541.541,0,0,1,0-1.083h10.646a.541.541,0,1,1,0,1.083Z" transform="translate(-343.5 138.468)" fill="#222e43"/>
    <path id="Path_170710" data-name="Path 170710" d="M371.592,182.063H360.946a.541.541,0,0,1,0-1.083h10.646a.541.541,0,1,1,0,1.083Z" transform="translate(-343.5 55.339)" fill="#222e43"/>
    <path id="Path_170711" data-name="Path 170711" d="M371.592,268.963H360.946a.541.541,0,0,1,0-1.083h10.646a.541.541,0,1,1,0,1.083Z" transform="translate(-343.5 -27.78)" fill="#222e43"/>
    <path id="Path_170712" data-name="Path 170712" d="M93.817,355.883H70.536a.541.541,0,1,1,0-1.083h23.28a.541.541,0,1,1,0,1.083Z" transform="translate(-65.725 -110.918)" fill="#222e43"/>
    <path id="Path_170713" data-name="Path 170713" d="M93.817,442.783H70.536a.541.541,0,1,1,0-1.083h23.28a.541.541,0,1,1,0,1.083Z" transform="translate(-65.725 -194.038)" fill="#222e43"/>
  </g>
</svg>
