<svg xmlns="http://www.w3.org/2000/svg" width="24.363" height="16.236"><g data-name="Group 55325" fill="#222e43"><path data-name="Path 170708" d="M10.305 8.674H.542a.542.542 0 01-.541-.541V.541A.542.542 0 01.542 0h9.763a.542.542 0 01.541.541v7.591a.542.542 0 01-.541.542z"/><path data-name="Path 170709" d="M23.822 1.111H13.176a.541.541 0 010-1.083h10.646a.541.541 0 110 1.083z"/><path data-name="Path 170710" d="M23.822 4.892H13.176a.541.541 0 010-1.083h10.646a.541.541 0 110 1.083z"/><path data-name="Path 170711" d="M23.822 8.673H13.176a.541.541 0 010-1.083h10.646a.541.541 0 110 1.083z"/><path data-name="Path 170712" d="M23.822 12.455H.541a.541.541 0 110-1.083h23.28a.541.541 0 110 1.083z"/><path data-name="Path 170713" d="M23.822 16.235H.541a.541.541 0 110-1.083h23.28a.541.541 0 110 1.083z"/></g></svg>