<svg width="17.029" height="16.668" xmlns="http://www.w3.org/2000/svg"><g data-name="Group 56044"><g data-name="Group 56043"><g data-name="Group 56040"><g data-name="Group 56039"><path data-name="Path 170046" d="M8.696 3.624v4.724a1.268 1.268 0 11-.362 0V3.624h-.423l-2.809 6.672 1.741 2.089a.181.181 0 01.04.146l-.388 2.325h4.041l-.393-2.325a.181.181 0 01.039-.146l1.741-2.089-2.809-6.672h-.418z" fill="#222e43"/></g></g><path data-name="Path 170047" d="M6.433 15.218l-.242 1.449h4.645l-.241-1.449H6.433z" fill="#222e43"/></g><path data-name="Path 170048" d="M14.674 2.536h2.174a.181.181 0 00.181-.181V.181A.181.181 0 0016.848 0h-2.174a.181.181 0 00-.181.181v.906h-4.71V.181A.181.181 0 009.602 0H7.428a.181.181 0 00-.181.181v.906h-4.71V.181A.181.181 0 002.356 0H.181A.181.181 0 000 .181v2.174a.181.181 0 00.181.181h2.174a.181.181 0 00.181-.181v-.906h3.678a7.443 7.443 0 00-5.019 5.8H.181A.181.181 0 000 7.43v2.174a.181.181 0 00.181.181h2.174a.181.181 0 00.181-.181V7.427a.181.181 0 00-.181-.181h-.792a7.113 7.113 0 015.683-5.684v.792a.181.181 0 00.181.181h2.174a.181.181 0 00.181-.181v-.792a7.113 7.113 0 015.683 5.683h-.792a.181.181 0 00-.181.181V9.6a.181.181 0 00.181.181h2.174a.181.181 0 00.181-.181V7.427a.181.181 0 00-.181-.181h-1.01a7.443 7.443 0 00-5.019-5.8h3.678v.906a.181.181 0 00.181.181l-.003.003z" fill="#222e43"/></g></svg>