<svg xmlns="http://www.w3.org/2000/svg" xmlns:xlink="http://www.w3.org/1999/xlink" width="461" height="332" viewBox="0 0 461 332">
  <defs>
    <filter id="Rectangle_33814" x="0" y="0" width="461" height="332" filterUnits="userSpaceOnUse">
      <feOffset dy="3" input="SourceAlpha"/>
      <feGaussianBlur stdDeviation="3" result="blur"/>
      <feFlood flood-opacity="0.161"/>
      <feComposite operator="in" in2="blur"/>
      <feComposite in="SourceGraphic"/>
    </filter>
    <linearGradient id="linear-gradient" x1="0.5" x2="0.5" y2="1" gradientUnits="objectBoundingBox">
      <stop offset="0" stop-color="#eaecee"/>
      <stop offset="1" stop-color="#e8eaec"/>
    </linearGradient>
  </defs>
  <g id="Group_56080" data-name="Group 56080" transform="translate(-272 -820.824)">
    <g id="Group_50661" data-name="Group 50661" transform="translate(281 826.824)">
      <g transform="matrix(1, 0, 0, 1, -9, -6)" filter="url(#Rectangle_33814)">
        <g id="Rectangle_33814-2" data-name="Rectangle 33814" transform="translate(9 6)" fill="#fff" stroke="#d3dbe2" stroke-width="1" opacity="0.44">
          <rect width="443" height="314" rx="8" stroke="none"/>
          <rect x="0.5" y="0.5" width="442" height="313" rx="7.5" fill="none"/>
        </g>
      </g>
      <path id="Rectangle_33815" data-name="Rectangle 33815" d="M7,0H436a7,7,0,0,1,7,7V22a0,0,0,0,1,0,0H0a0,0,0,0,1,0,0V7A7,7,0,0,1,7,0Z" fill="url(#linear-gradient)"/>
      <circle id="Ellipse_8468" data-name="Ellipse 8468" cx="4.5" cy="4.5" r="4.5" transform="translate(16 8)" fill="#fff"/>
      <circle id="Ellipse_8469" data-name="Ellipse 8469" cx="4.5" cy="4.5" r="4.5" transform="translate(28 8)" fill="#fff"/>
      <circle id="Ellipse_8470" data-name="Ellipse 8470" cx="4.5" cy="4.5" r="4.5" transform="translate(40 8)" fill="#fff"/>
      <path id="Path_170651" data-name="Path 170651" d="M0,0H443V45.154H0Z" transform="translate(0 49)" fill="#a0c9ea"/>
      <rect id="Rectangle_33818" data-name="Rectangle 33818" width="19" height="5" rx="2.5" transform="translate(327 35)" fill="#d1dbe3" opacity="0.797"/>
      <rect id="Rectangle_33819" data-name="Rectangle 33819" width="19" height="5" rx="2.5" transform="translate(354 35)" fill="#d1dbe3" opacity="0.797"/>
      <rect id="Rectangle_33820" data-name="Rectangle 33820" width="19" height="5" rx="2.5" transform="translate(382 35)" fill="#d1dbe3" opacity="0.797"/>
      <rect id="Rectangle_33859" data-name="Rectangle 33859" width="53" height="11" rx="5.5" transform="translate(40 30)" fill="#d3dbe2" opacity="0.803"/>
    </g>
    <g id="Group_56079" data-name="Group 56079">
      <g id="Group_56078" data-name="Group 56078">
        <g id="Group_56076" data-name="Group 56076">
          <rect id="Rectangle_35998" data-name="Rectangle 35998" width="255" height="7" rx="3.5" transform="translate(425 1017.824)" fill="#d1dbe3"/>
          <rect id="Rectangle_35999" data-name="Rectangle 35999" width="255" height="7" rx="3.5" transform="translate(425 1030.824)" fill="#d1dbe3"/>
          <rect id="Rectangle_36000" data-name="Rectangle 36000" width="119" height="7" rx="3.5" transform="translate(426 1045.824)" fill="#d1dbe3"/>
          <rect id="Rectangle_36004" data-name="Rectangle 36004" width="89" height="42" rx="6" transform="translate(315 1015.824)" fill="#d1dbe3" opacity="0.783"/>
        </g>
        <g id="Group_56077" data-name="Group 56077">
          <rect id="Rectangle_36001" data-name="Rectangle 36001" width="255" height="7" rx="3.5" transform="translate(425 1069.824)" fill="#d1dbe3"/>
          <rect id="Rectangle_36002" data-name="Rectangle 36002" width="255" height="7" rx="3.5" transform="translate(425 1082.824)" fill="#d1dbe3"/>
          <rect id="Rectangle_36003" data-name="Rectangle 36003" width="119" height="7" rx="3.5" transform="translate(425 1097.824)" fill="#d1dbe3"/>
          <rect id="Rectangle_36005" data-name="Rectangle 36005" width="89" height="42" rx="6" transform="translate(316 1069.824)" fill="#d1dbe3" opacity="0.783"/>
        </g>
      </g>
      <g id="Group_56075" data-name="Group 56075">
        <g id="Group_56074" data-name="Group 56074">
          <rect id="Rectangle_35996" data-name="Rectangle 35996" width="368" height="42" rx="5" transform="translate(312 956.824)" fill="#c9b1d0" opacity="0.722"/>
          <g id="Rectangle_36006" data-name="Rectangle 36006" transform="translate(407 967.824)" fill="#fff" stroke="#d1dbe3" stroke-width="1">
            <rect width="189" height="20" rx="3" stroke="none"/>
            <rect x="0.5" y="0.5" width="188" height="19" rx="2.5" fill="none"/>
          </g>
        </g>
        <path id="Rectangle_36109" data-name="Rectangle 36109" d="M0,0H34a3,3,0,0,1,3,3V17a3,3,0,0,1-3,3H0a0,0,0,0,1,0,0V0A0,0,0,0,1,0,0Z" transform="translate(559 967.824)" fill="#86c2e6"/>
      </g>
    </g>
  </g>
</svg>
