<svg width="20.758" height="20.619" xmlns="http://www.w3.org/2000/svg">
 <g>
  <title>Layer 1</title>
  <g id="noun-color-picker-601138">
   <path id="Path_169090" data-name="Path 169090" d="m10.61801,6.69801a3.893,3.893 0 0 0 -0.475,0.416l-7.784,7.784a4.78,4.78 0 0 0 -1.307,2.08a5.4,5.4 0 0 1 -0.654,1.307c-0.059,0.059 -0.119,0.119 -0.119,0.178a1.28,1.28 0 0 0 0.119,1.723l0.059,0.059a1.268,1.268 0 0 0 1.664,0.119a3.166,3.166 0 0 1 1.188,-0.713a4.576,4.576 0 0 0 2.377,-1.367c2.674,-2.555 5.229,-5.169 7.9,-7.784a2.7,2.7 0 0 0 0.416,-0.416a2.525,2.525 0 0 0 0.3,0.416a1.038,1.038 0 0 0 1.6,0l0.832,-0.832c0.653,-0.654 0.832,-1.01 0.237,-1.783c0.535,-0.535 1.129,-1.069 1.664,-1.6a6.563,6.563 0 0 0 2.028,-2.56a1.334,1.334 0 0 0 0.059,-0.832a3.538,3.538 0 0 0 -1.485,-2.436a2.359,2.359 0 0 0 -2.258,-0.3a5.376,5.376 0 0 0 -1.961,1.485l-2.139,2.139a1.1,1.1 0 0 0 -1.664,0.119c-0.356,0.356 -0.713,0.654 -1.01,1.01a0.934,0.934 0 0 0 -0.059,1.307c0,0.178 0.238,0.3 0.476,0.475l-0.004,0.006zm0.535,0.773l2.02,2.02a0.842,0.842 0 0 1 -0.119,0.178c-2.674,2.674 -5.348,5.348 -8.081,8.022a3.792,3.792 0 0 1 -1.783,1.01a5.073,5.073 0 0 0 -1.486,0.773a0.128,0.128 0 0 0 -0.119,0.119a0.336,0.336 0 0 1 -0.475,-0.475c0.178,-0.178 0.3,-0.416 0.475,-0.594a3.037,3.037 0 0 0 0.416,-1.01a3.058,3.058 0 0 1 0.891,-1.664c2.734,-2.852 5.526,-5.645 8.26,-8.378l0.001,-0.001z" fill="#4ba4da"/>
  </g>
 </g>

</svg>