<svg xmlns="http://www.w3.org/2000/svg" width="20.758" height="20.619" viewBox="0 0 20.758 20.619">
  <g id="noun-color-picker-601138" transform="translate(-105.266 -35.291)">
    <path id="Path_169090" data-name="Path 169090" d="M263.355,189.973a3.893,3.893,0,0,0-.475.416l-7.784,7.784a4.78,4.78,0,0,0-1.307,2.08,5.4,5.4,0,0,1-.654,1.307c-.059.059-.119.119-.119.178a1.28,1.28,0,0,0,.119,1.723l.059.059a1.268,1.268,0,0,0,1.664.119,3.166,3.166,0,0,1,1.188-.713,4.576,4.576,0,0,0,2.377-1.367c2.674-2.555,5.229-5.169,7.9-7.784a2.7,2.7,0,0,0,.416-.416,2.525,2.525,0,0,0,.3.416,1.038,1.038,0,0,0,1.6,0l.832-.832c.653-.654.832-1.01.237-1.783.535-.535,1.129-1.069,1.664-1.6A6.563,6.563,0,0,0,273.4,187a1.334,1.334,0,0,0,.059-.832,3.538,3.538,0,0,0-1.485-2.436,2.359,2.359,0,0,0-2.258-.3,5.376,5.376,0,0,0-1.961,1.485l-2.139,2.139a1.1,1.1,0,0,0-1.664.119c-.356.356-.713.654-1.01,1.01a.934.934,0,0,0-.059,1.307c0,.178.238.3.476.475Zm.535.773,2.02,2.02a.842.842,0,0,1-.119.178c-2.674,2.674-5.348,5.348-8.081,8.022a3.792,3.792,0,0,1-1.783,1.01,5.073,5.073,0,0,0-1.486.773.128.128,0,0,0-.119.119.336.336,0,0,1-.475-.475c.178-.178.3-.416.475-.594a3.037,3.037,0,0,0,.416-1.01,3.058,3.058,0,0,1,.891-1.664c2.734-2.852,5.526-5.645,8.26-8.378Z" transform="translate(-147.471 -147.984)" fill="#a0a8b7"/>
  </g>
</svg>
