<svg xmlns="http://www.w3.org/2000/svg" width="97.313" height="100.06" viewBox="0 0 97.313 100.06">
  <g id="Group_54973" data-name="Group 54973" transform="translate(-382.999 -471.346)">
    <g id="noun-external-3377064" transform="translate(411.757 508.742) rotate(-43)">
      <path id="Path_170337" data-name="Path 170337" d="M2.9,22.895H47.914L32.549,38.26a1.967,1.967,0,0,0,0,2.849,1.967,1.967,0,0,0,2.849,0L54.223,22.285a1.967,1.967,0,0,0,0-2.849L35.4.611a1.967,1.967,0,0,0-2.849,0,1.967,1.967,0,0,0,0,2.849L47.914,18.825H1.9A2.3,2.3,0,0,0,.013,21.268C.211,23.308,2.9,22.895,2.9,22.895Z" transform="translate(0 0)" fill="#4ba4da"/>
    </g>
    <path id="noun-external-link-3579264" d="M227.886,158.444a5.687,5.687,0,0,1-5.678,5.681l-62.342.036a5.691,5.691,0,0,1-5.686-5.674L154.1,96a5.677,5.677,0,0,1,5.67-5.685h36.876c1.568,0,2.7.18,2.7,1.748a2.9,2.9,0,0,1-2.7,3.031H158.87l-.012,64.263,64.247-.014v-37.8a2.288,2.288,0,0,1,2.594-2.391c1.568,0,2.184.823,2.184,2.391Z" transform="translate(228.902 407.245)" fill="#4ba4da" fill-rule="evenodd"/>
  </g>
</svg>
