<svg xmlns="http://www.w3.org/2000/svg" width="84.443" height="84.444" viewBox="0 0 84.443 84.444">
  <path id="Path_170337" data-name="Path 170337" d="M203.056,56H133.389A7.343,7.343,0,0,0,126,63.389V83.655a2.111,2.111,0,0,0,4.222,0V63.389a3.111,3.111,0,0,1,3.167-3.167h69.666a3.111,3.111,0,0,1,3.167,3.167v69.666a3.111,3.111,0,0,1-3.167,3.167H133.389a3.111,3.111,0,0,1-3.167-3.167V103.5a3.111,3.111,0,0,1,3.167-3.167h49.294l-15.939,15.939a2.041,2.041,0,0,0,0,2.956,2.041,2.041,0,0,0,2.955,0L189.228,99.7a2.041,2.041,0,0,0,0-2.956L169.7,77.217a2.09,2.09,0,0,0-2.956,2.956l15.939,15.939H133.389A7.343,7.343,0,0,0,126,103.5v29.555a7.343,7.343,0,0,0,7.389,7.389h69.666a7.343,7.343,0,0,0,7.389-7.389V63.389A7.343,7.343,0,0,0,203.055,56Z" transform="translate(-126.001 -56)" fill="#4ba4da"/>
</svg>
