<svg id="noun-color-palette-1649300" xmlns="http://www.w3.org/2000/svg" width="16.625" height="15.886" viewBox="0 0 16.625 15.886">
  <g id="Group_55177" data-name="Group 55177" transform="translate(0 0)">
    <path id="Path_170633" data-name="Path 170633" d="M207.829,372.154a.874.874,0,1,1-.874-.874.874.874,0,0,1,.874.874" transform="translate(-203.666 -359.511)" fill="#7c8189"/>
    <path id="Path_170634" data-name="Path 170634" d="M170.074,93.529h-4.608l3.349-3.2a.525.525,0,0,0,.166-.363.443.443,0,0,0-.166-.363L164.9,85.836a.573.573,0,0,0-.38-.159.483.483,0,0,0-.38.159l-3.491,3.314V84.52a.443.443,0,0,0-.166-.363A.626.626,0,0,0,160.1,84h-5.558a.483.483,0,0,0-.38.159.573.573,0,0,0-.166.363V96.707a3.263,3.263,0,0,0,3.325,3.177h12.754a.483.483,0,0,0,.38-.159.573.573,0,0,0,.166-.363V94.051A1,1,0,0,0,170.074,93.529Zm-10.545,4.312v.976H157.32a2.157,2.157,0,0,1-2.209-2.111V94.6h4.441Zm0-4.312h-4.418V91.5l.024-6.437h4.418v8.465Zm0-3.177Zm-4.418-5.288Zm7.743,13.753h-2.209v-.681l2.209-2.111Zm.166-4.448-2.375,2.269V90.647l3.871-3.7,3.135,3Zm4.842,4.448H163.97V94.959l.38-.363h3.512Zm1.642,0h-1.642V94.6H169.5Z" transform="translate(-153.995 -83.997)" fill="#7c8189"/>
  </g>
</svg>
