<svg xmlns="http://www.w3.org/2000/svg" width="18.092" height="18.092" viewBox="0 0 18.092 18.092">
  <g id="Group_56048" data-name="Group 56048" transform="translate(-34.001 -691.911)">
    <path id="Path_170251" data-name="Path 170251" d="M278.245,154.162a3.769,3.769,0,1,1-3.769-3.769,3.769,3.769,0,0,1,3.769,3.769" transform="translate(-231.43 544.402)" fill="#7c8189"/>
    <path id="Path_170252" data-name="Path 170252" d="M168.736,89.688a9.046,9.046,0,1,0,9.046,9.046A9.046,9.046,0,0,0,168.736,89.688Zm6.093,14.677v-.276a3.2,3.2,0,0,0-3.192-3.192h-5.869a3.2,3.2,0,0,0-3.192,3.192v.224a8.3,8.3,0,1,1,14.448-5.579,8.159,8.159,0,0,1-2.194,5.63Z" transform="translate(-125.689 602.223)" fill="#7c8189"/>
  </g>
</svg>
