<svg width="44.534" height="55.892" xmlns="http://www.w3.org/2000/svg" data-name="Group 26409">
 <defs>
  <clipPath id="clip-path">
   <rect id="Rectangle_12803" data-name="Rectangle 12803" width="44.534" height="55.892" fill="#3074a4"/>
  </clipPath>
 </defs>
 <g>
  <title>Layer 1</title>
  <g id="Group_21530" data-name="Group 21530">
   <g id="Group_21523" data-name="Group 21523">
    <g id="Group_21522" data-name="Group 21522" clip-path="url(#clip-path)">
     <path id="Path_17308" data-name="Path 17308" d="m38.53899,6.75799c-3.108,-3.468 -7.212,-6.68 -17.36,-6.758a19.7,19.7 0 0 0 -14.724,5.884a15.312,15.312 0 0 0 -4.351,13.023c0.132,1.344 2.052,2.9 0.7,5.511c0,0 -2.9,5.1 -2.8,5.956c0,0 -0.045,1.554 2.35,1.605c0,0 0.6,0.071 0.427,1.4l-0.027,1.932s0.081,0.574 1.136,0.926c0,0 0.192,0.2 -0.105,0.574c0,0 -0.559,0.622 0.4,1.956a2.364,2.364 0 0 1 0.568,2.359s-0.445,2.419 0.508,3c0,0 1.073,1.283 5.43,0.751c1.52,-0.192 4.333,-0.926 6.009,1.178c0,0 4.009,7.608 4.313,9.414c0,0 6.839,-12.173 15.18,-14.051c0,0 -2.037,-4.585 2.1,-10.514c0,0 5.178,-6.839 5.337,-10.6c0,0 1.37,-6.322 -5.093,-13.546l0.002,0zm0,0" fill="#3074a4"/>
    </g>
   </g>
  </g>
  <g id="Group_21531" data-name="Group 21531">
   <path id="Path_17135" data-name="Path 17135" d="m27.472,10.357a0.434,0.434 0 0 0 0.433,-0.432l0,-2.59a0.433,0.433 0 1 0 -0.865,0l0,2.59a0.434,0.434 0 0 0 0.432,0.432zm0,0" fill="#fff"/>
   <path id="Path_17136" data-name="Path 17136" d="m25.11499,10.357a0.434,0.434 0 0 0 0.433,-0.432l0,-2.59a0.433,0.433 0 1 0 -0.865,0l0,2.59a0.433,0.433 0 0 0 0.432,0.432zm0,0" fill="#fff"/>
   <path id="Path_17137" data-name="Path 17137" d="m22.71299,10.357a0.432,0.432 0 0 0 0.432,-0.432l0,-2.59a0.432,0.432 0 1 0 -0.865,0l0,2.59a0.433,0.433 0 0 0 0.432,0.432l0.001,0zm0,0" fill="#fff"/>
   <path id="Path_17138" data-name="Path 17138" d="m20.356,10.357a0.433,0.433 0 0 0 0.432,-0.432l0,-2.59a0.432,0.432 0 1 0 -0.865,0l0,2.59a0.433,0.433 0 0 0 0.432,0.432l0.001,0zm0,0" fill="#fff"/>
   <path id="Path_17139" data-name="Path 17139" d="m18.182,10.357a0.433,0.433 0 0 0 0.43,-0.432l0,-2.59a0.432,0.432 0 1 0 -0.865,0l0,2.59a0.434,0.434 0 0 0 0.435,0.432zm0,0" fill="#fff"/>
   <path id="Path_17140" data-name="Path 17140" d="m15.822,10.357a0.433,0.433 0 0 0 0.432,-0.432l0,-2.59a0.432,0.432 0 1 0 -0.865,0l0,2.59a0.433,0.433 0 0 0 0.432,0.432l0.001,0zm0,0" fill="#fff"/>
   <path id="Path_17141" data-name="Path 17141" d="m9.872,14.823l-2.587,0a0.432,0.432 0 1 0 0,0.865l2.587,0a0.432,0.432 0 1 0 0,-0.865zm0,0" fill="#fff"/>
   <path id="Path_17142" data-name="Path 17142" d="m9.872,17.18201l-2.587,0a0.431,0.431 0 1 0 0,0.862l2.587,0a0.431,0.431 0 1 0 0,-0.862zm0,0" fill="#fff"/>
   <path id="Path_17143" data-name="Path 17143" d="m9.872,19.58499l-2.587,0a0.432,0.432 0 1 0 0,0.865l2.587,0a0.432,0.432 0 1 0 0,-0.865zm0,0" fill="#fff"/>
   <path id="Path_17144" data-name="Path 17144" d="m9.872,21.93899l-2.587,0a0.433,0.433 0 0 0 0,0.865l2.587,0a0.433,0.433 0 1 0 0,-0.865zm0,0" fill="#fff"/>
   <path id="Path_17145" data-name="Path 17145" d="m9.872,24.11401l-2.587,0a0.434,0.434 0 0 0 0,0.867l2.587,0a0.434,0.434 0 1 0 0,-0.867zm0,0" fill="#fff"/>
   <path id="Path_17146" data-name="Path 17146" d="m9.872,26.47299l-2.587,0a0.433,0.433 0 0 0 0,0.865l2.587,0a0.433,0.433 0 1 0 0,-0.865zm0,0" fill="#fff"/>
   <path id="Path_17147" data-name="Path 17147" d="m27.472,32.46501a0.433,0.433 0 0 0 -0.432,0.432l0,2.587a0.433,0.433 0 1 0 0.865,0l0,-2.587a0.432,0.432 0 0 0 -0.433,-0.432zm0,0" fill="#fff"/>
   <path id="Path_17148" data-name="Path 17148" d="m25.11499,32.46501a0.433,0.433 0 0 0 -0.432,0.432l0,2.587a0.433,0.433 0 1 0 0.865,0l0,-2.587a0.432,0.432 0 0 0 -0.433,-0.432zm0,0" fill="#fff"/>
   <path id="Path_17149" data-name="Path 17149" d="m22.71299,32.46501a0.433,0.433 0 0 0 -0.432,0.432l0,2.587a0.432,0.432 0 1 0 0.865,0l0,-2.587a0.431,0.431 0 0 0 -0.432,-0.432l-0.001,0zm0,0" fill="#fff"/>
   <path id="Path_17150" data-name="Path 17150" d="m20.356,32.46501a0.433,0.433 0 0 0 -0.432,0.432l0,2.587a0.432,0.432 0 1 0 0.865,0l0,-2.587a0.431,0.431 0 0 0 -0.432,-0.432l-0.001,0zm0,0" fill="#fff"/>
   <path id="Path_17151" data-name="Path 17151" d="m18.182,32.46501a0.433,0.433 0 0 0 -0.435,0.432l0,2.587a0.432,0.432 0 1 0 0.865,0l0,-2.587a0.431,0.431 0 0 0 -0.43,-0.432zm0,0" fill="#fff"/>
   <path id="Path_17152" data-name="Path 17152" d="m15.822,32.46501a0.433,0.433 0 0 0 -0.432,0.432l0,2.587a0.432,0.432 0 1 0 0.865,0l0,-2.587a0.431,0.431 0 0 0 -0.432,-0.432l-0.001,0zm0,0" fill="#fff"/>
   <path id="Path_17153" data-name="Path 17153" d="m28.675,11.48901l-14.056,0a2.682,2.682 0 0 0 -2.677,2.678l0,14.056a2.682,2.682 0 0 0 2.677,2.679l14.056,0a2.683,2.683 0 0 0 2.678,-2.679l0,-14.056a2.683,2.683 0 0 0 -2.678,-2.678zm-12.7,4.271a0.853,0.853 0 1 1 0.853,-0.853a0.852,0.852 0 0 1 -0.853,0.853zm10.193,9.678l-8.949,0l0,-9.033l8.949,0l0,9.033zm0,0" fill="#fff"/>
   <path id="Path_17154" data-name="Path 17154" d="m32.847,15.688l2.59,0a0.432,0.432 0 1 0 0,-0.865l-2.59,0a0.432,0.432 0 0 0 0,0.865zm0,0" fill="#fff"/>
   <path id="Path_17155" data-name="Path 17155" d="m35.437,17.18201l-2.59,0a0.431,0.431 0 1 0 0,0.862l2.59,0a0.431,0.431 0 1 0 0,-0.862zm0,0" fill="#fff"/>
   <path id="Path_17156" data-name="Path 17156" d="m35.437,19.58499l-2.59,0a0.432,0.432 0 0 0 0,0.865l2.59,0a0.432,0.432 0 1 0 0,-0.865zm0,0" fill="#fff"/>
   <path id="Path_17157" data-name="Path 17157" d="m35.437,21.93899l-2.59,0a0.433,0.433 0 0 0 0,0.865l2.59,0a0.433,0.433 0 0 0 0,-0.865zm0,0" fill="#fff"/>
   <path id="Path_17158" data-name="Path 17158" d="m35.437,24.11401l-2.59,0a0.434,0.434 0 0 0 0,0.867l2.59,0a0.434,0.434 0 0 0 0,-0.867zm0,0" fill="#fff"/>
   <path id="Path_17159" data-name="Path 17159" d="m35.437,26.47299l-2.59,0a0.433,0.433 0 0 0 0,0.865l2.59,0a0.433,0.433 0 0 0 0,-0.865zm0,0" fill="#fff"/>
  </g>
 </g>
</svg>