<svg id="Group_26397" data-name="Group 26397" xmlns="http://www.w3.org/2000/svg" xmlns:xlink="http://www.w3.org/1999/xlink" width="56.33" height="54.648" viewBox="0 0 56.33 54.648">
  <defs>
    <clipPath id="clip-path">
      <rect id="Rectangle_12756" data-name="Rectangle 12756" width="56.33" height="54.648" fill="#43964f"/>
    </clipPath>
    <clipPath id="clip-path-2">
      <rect id="Rectangle_12756-2" data-name="Rectangle 12756" width="56.33" height="54.648" fill="#3074a4"/>
    </clipPath>
  </defs>
  <g id="Group_21340" data-name="Group 21340" transform="translate(0 0)">
    <g id="Group_21339" data-name="Group 21339" transform="translate(0 0)" clip-path="url(#clip-path)">
      <path id="Path_16985" data-name="Path 16985" d="M156.472,261.26l-4.517-5.8-1.344-7.141a5.322,5.322,0,0,0-4.56-4.235l-7.445-1.02-6.181-4.13a5.542,5.542,0,0,0-5.246-.492,5.464,5.464,0,0,0-1.082.611l-6.011,4.36-7.4,1.3a5.489,5.489,0,0,0-1.2.354,5.28,5.28,0,0,0-3.189,4.048l-1.054,7.186-4.282,5.969a5.065,5.065,0,0,0,.122,6.105l4.519,5.8,1.344,7.141a5.319,5.319,0,0,0,4.561,4.235l7.445,1.02,6.181,4.13a5.611,5.611,0,0,0,5.246.492,5.45,5.45,0,0,0,1.082-.612l6.011-4.36,7.4-1.3a5.654,5.654,0,0,0,1.2-.352,5.292,5.292,0,0,0,3.189-4.05l1.054-7.185,4.281-5.966a5.066,5.066,0,0,0-.124-6.108Zm-26.693,22.631c-10.9,0-19.768-8.56-19.768-19.08s8.869-19.082,19.768-19.082,19.771,8.56,19.771,19.082-8.868,19.08-19.771,19.08Zm0,0" transform="translate(-102.344 -237.669)" fill="#43964f"/>
    </g>
  </g>
  <path id="Path_16986" data-name="Path 16986" d="M132.076,252.926c-8.351,0-15.146,6.358-15.146,14.175s6.794,14.175,15.146,14.175,15.149-6.36,15.149-14.175-6.8-14.175-15.149-14.175Zm-4.027,4.281,0,3.376-.9.814-3.548,0Zm9.1,20.264h-2.377c-1.458,0-3.279-.641-3.279-3.134s3.481-2.473,3.481-2.473v1.606a6.718,6.718,0,0,0-.787-.047c-.433,0-.8.207-.8.97a1.89,1.89,0,0,0,.757,1.316h2.306c1.08,0,1.147-1.18,1.147-1.18v-1.882c0-1.017-1.069-2-2.905-2s-3.054-2.177-3.054-2.177-.024,1.387-.024,2.3c0,.217-.712,2.023-4.866,1.42-3.514-.508-4.036-6-4.036-7.58a2.788,2.788,0,0,1,1.178-2.307h4.185l.907-.9v-2.876c0-.714-.135-1.546,1.865-1.546a3.341,3.341,0,0,1,2.847,1.44h2.647c1.025,0,3.006.7,3.384,1.313s1.719,1.348,1.719,9.283-4.292,8.451-4.292,8.451Zm0,0" transform="translate(-104.694 -240.019)" fill="#3074a4"/>
  <path id="Path_16987" data-name="Path 16987" d="M151.565,277.008c-1.222,0-1.534,2.107-1.534,2.107.609,0,4.434.707,4.434.707s-1.678-2.813-2.9-2.813Zm0,0" transform="translate(-119.178 -252.098)" fill="#43964f"/>
  <g id="Group_26289" data-name="Group 26289" transform="translate(0 0)">
    <g id="Group_21339-2" data-name="Group 21339" transform="translate(0 0)" clip-path="url(#clip-path-2)">
      <path id="Path_16985-2" data-name="Path 16985" d="M156.472,261.26l-4.517-5.8-1.344-7.141a5.322,5.322,0,0,0-4.56-4.235l-7.445-1.02-6.181-4.13a5.542,5.542,0,0,0-5.246-.492,5.464,5.464,0,0,0-1.082.611l-6.011,4.36-7.4,1.3a5.489,5.489,0,0,0-1.2.354,5.28,5.28,0,0,0-3.189,4.048l-1.054,7.186-4.282,5.969a5.065,5.065,0,0,0,.122,6.105l4.519,5.8,1.344,7.141a5.319,5.319,0,0,0,4.561,4.235l7.445,1.02,6.181,4.13a5.611,5.611,0,0,0,5.246.492,5.45,5.45,0,0,0,1.082-.612l6.011-4.36,7.4-1.3a5.654,5.654,0,0,0,1.2-.352,5.292,5.292,0,0,0,3.189-4.05l1.054-7.185,4.281-5.966a5.066,5.066,0,0,0-.124-6.108Zm-26.693,22.631c-10.9,0-19.768-8.56-19.768-19.08s8.869-19.082,19.768-19.082,19.771,8.56,19.771,19.082-8.868,19.08-19.771,19.08Zm0,0" transform="translate(-102.344 -237.669)" fill="#3074a4"/>
    </g>
  </g>
</svg>
