<svg id="Group_26419" data-name="Group 26419" xmlns="http://www.w3.org/2000/svg" xmlns:xlink="http://www.w3.org/1999/xlink" width="54.117" height="52.052" viewBox="0 0 54.117 52.052">
  <defs>
    <clipPath id="clip-path">
      <rect id="Rectangle_12757" data-name="Rectangle 12757" width="54.117" height="52.052" fill="#3074a4"/>
    </clipPath>
  </defs>
  <g id="Group_21349" data-name="Group 21349" transform="translate(0 0)">
    <g id="Group_21348" data-name="Group 21348" clip-path="url(#clip-path)">
      <path id="Path_17003" data-name="Path 17003" d="M157.622,273.568a.585.585,0,0,0,.014-.118.573.573,0,0,0-.324-.493l-6.493-3.087V257.844a.568.568,0,0,0-.345-.522l-9.21-3.957v-6.216a.589.589,0,0,0-.013-.094.6.6,0,0,0,.013-.118.577.577,0,0,0-.324-.493L131.6,242a.553.553,0,0,0-.487,0l-9.346,4.441-.021.016-.024.008c-.016.011-.029.025-.046.038a.411.411,0,0,0-.053.043.557.557,0,0,0-.053.061.279.279,0,0,0-.04.054.475.475,0,0,0-.037.075c-.008.019-.016.038-.025.059a.562.562,0,0,0-.013.088.374.374,0,0,0-.011.053l0,.008,0,.01v6.286l-9.675,4.077a.567.567,0,0,0-.348.522v11.74l-7.092,3.373c-.008.005-.014.011-.022.016l-.024.008a.533.533,0,0,0-.045.038c-.019.013-.038.027-.053.04a.572.572,0,0,0-.053.062c-.014.019-.029.035-.04.054a.453.453,0,0,0-.038.078c-.008.018-.016.037-.024.059s-.01.058-.016.088a.37.37,0,0,0-.008.054v11.129a.57.57,0,0,0,.286.493l9.268,5.271a.585.585,0,0,0,.282.075.625.625,0,0,0,.075-.01c.027,0,.051.01.075.01a.593.593,0,0,0,.284-.075l4.252-2.42a.52.52,0,0,0,.169.121l12.677,5.863a.558.558,0,0,0,.238.053.551.551,0,0,0,.244-.056l11.793-5.678,3.724,2.118a.593.593,0,0,0,.282.075.766.766,0,0,0,.077-.01.624.624,0,0,0,.075.01.589.589,0,0,0,.281-.075l9.269-5.271a.57.57,0,0,0,.286-.493V273.658a.506.506,0,0,0-.014-.09Zm-17.493-20.029a.568.568,0,0,0,0,.372v3.829L132,262.366V252.75l8.133-4.626Zm-17.554-5.612,8.133,4.573v9.863l-8.133-4.626ZM114.1,278.05l-8.285-4.543,8.1-3.853,8.122,3.863Zm.455,1.212,8.137-4.629v9.616l-8.137,4.626Zm17.047,13.5-11.908-5.5,3.847-2.187a.57.57,0,0,0,.286-.493V273.658a.47.47,0,0,0-.014-.09.432.432,0,0,0,.011-.118.57.57,0,0,0-.321-.493l-9.346-4.444a.573.573,0,0,0-.487,0l-1.116.533V258.222l8.888-3.746v3.593a.569.569,0,0,0,.286.493l9.269,5.271a.583.583,0,0,0,.281.075.7.7,0,0,0,.075-.011.737.737,0,0,0,.078.011.556.556,0,0,0,.281-.075l9.268-5.271a.569.569,0,0,0,.286-.493V254.6l8.42,3.619v11.113l-1.719-.819a.571.571,0,0,0-.487,0l-9.344,4.444c-.008.005-.014.011-.022.016l-.024.008a.294.294,0,0,0-.045.038c-.019.013-.038.027-.053.04a.6.6,0,0,0-.056.062c-.014.019-.027.035-.038.054a.457.457,0,0,0-.038.078.419.419,0,0,0-.024.059c-.008.029-.01.058-.016.088a.371.371,0,0,0-.008.054v11.129a.57.57,0,0,0,.286.493l4.345,2.471Zm15.479-3.89-2.789-1.587,0,0a.561.561,0,0,0-.562-.316l-4.779-2.72V274.44l8.133,4.573Zm.83-10.826-8.285-4.543,8.1-3.853,8.12,3.863Zm0,0" transform="translate(-104 -241.983)" fill="#3074a4"/>
    </g>
  </g>
</svg>
