<svg id="Group_26399" data-name="Group 26399" xmlns="http://www.w3.org/2000/svg" width="58.908" height="37.533" viewBox="0 0 58.908 37.533">
  <path id="Path_17113" data-name="Path 17113" d="M135,301.813a10.827,10.827,0,0,0,9.2,10.575l1.844.144h36.813l1.844-.144a10.656,10.656,0,0,0,1.827-20.7A17.244,17.244,0,0,0,169.056,275a17.54,17.54,0,0,0-15.716,9.5,7.411,7.411,0,0,0-5.462-2.353,7.118,7.118,0,0,0-6.734,10.04A10.71,10.71,0,0,0,135,301.813Zm9.361-8.654-.89-2.316a3.338,3.338,0,0,1-.311-1.412,5.186,5.186,0,0,1,4.993-4.782,4.419,4.419,0,0,1,2.979,1.268l2.878,2,2.443-3.266a15.438,15.438,0,0,1,12.721-6.968c7.44,0,14.772,7.085,14.889,14.17v2.51l2.59.693a7.01,7.01,0,0,1,4.876,6.576c0,3.41-3.5,7.7-7.035,8.263H172.479v2.587h-2.7V300.438h5.385l-10.706-12.051-10.706,12.051h5.331v12.041h-2.667v-2.587H146.335l-1.228-.094c-3.531-.562-7.426-4.746-7.426-8.169,0-2.667,2.272-6.954,6.68-8.47Zm0,0" transform="translate(-135 -275)" fill="#3074a4" fill-rule="evenodd"/>
</svg>
