<svg id="Group_26420" data-name="Group 26420" xmlns="http://www.w3.org/2000/svg" width="43.198" height="47.325" viewBox="0 0 43.198 47.325">
  <path id="Path_17065" data-name="Path 17065" d="M146.274,275.3a6.053,6.053,0,0,0-12.107,0,5.955,5.955,0,0,0,3.988,5.64l-7.566,20.087h9.632V275.3l-.552,1.514a1.828,1.828,0,0,1-1.1-1.514,1.651,1.651,0,0,1,3.3,0,1.611,1.611,0,0,1-1.1,1.514l1.514,4.265a6.28,6.28,0,0,0,3.989-5.778Zm0,0" transform="translate(-118.622 -253.704)" fill="#3074a4"/>
  <path id="Path_17066" data-name="Path 17066" d="M152.825,272.929a13.895,13.895,0,0,0-27.79,0,13.772,13.772,0,0,0,8.943,12.931l1.514-4.261a9.243,9.243,0,0,1-6.054-8.667,9.355,9.355,0,1,1,18.71,0A9.111,9.111,0,0,1,142.1,281.6l1.514,4.261a13.828,13.828,0,0,0,9.215-12.931Zm0,0" transform="translate(-117.331 -251.331)" fill="#3074a4"/>
  <path id="Path_17067" data-name="Path 17067" d="M136.6,249a21.595,21.595,0,0,0-7.566,41.822l1.515-4.265A17.063,17.063,0,1,1,153.657,270.6a17.257,17.257,0,0,1-11,15.957l1.511,4.265A21.594,21.594,0,0,0,136.6,249Zm0,0" transform="translate(-115 -249)" fill="#3074a4"/>
</svg>
