<svg id="noun_Robot_1870012" xmlns="http://www.w3.org/2000/svg" width="56.542" height="56.988" viewBox="0 0 56.542 56.988">
  <g id="Group_21985" data-name="Group 21985" transform="translate(0 0)">
    <g id="Group_21984" data-name="Group 21984">
      <g id="Group_21974" data-name="Group 21974" transform="translate(47.638 49.33)">
        <path id="Path_18341" data-name="Path 18341" d="M55.958,56.4a1.158,1.158,0,1,0,1.158,1.158A1.179,1.179,0,0,0,55.958,56.4Z" transform="translate(-54.8 -56.4)" fill="#3074a4"/>
      </g>
      <g id="Group_21975" data-name="Group 21975" transform="translate(27.069 49.33)">
        <path id="Path_18342" data-name="Path 18342" d="M32.858,56.4a1.158,1.158,0,1,0,1.158,1.158A1.179,1.179,0,0,0,32.858,56.4Z" transform="translate(-31.7 -56.4)" fill="#3074a4"/>
      </g>
      <g id="Group_21976" data-name="Group 21976" transform="translate(0 43.987)">
        <path id="Path_18343" data-name="Path 18343" d="M51.253,50.4H7.8a6.5,6.5,0,1,0,0,13H51.342a6.5,6.5,0,1,0-.089-13Zm-42.3,9.439A2.938,2.938,0,1,1,11.9,56.9,2.965,2.965,0,0,1,8.958,59.839Zm10.24,0A2.938,2.938,0,1,1,22.136,56.9,2.907,2.907,0,0,1,19.2,59.839Zm10.329,0A2.938,2.938,0,1,1,32.465,56.9,2.965,2.965,0,0,1,29.527,59.839Zm10.329,0A2.938,2.938,0,1,1,42.794,56.9,2.965,2.965,0,0,1,39.856,59.839Zm10.24,0A2.938,2.938,0,1,1,53.034,56.9,2.965,2.965,0,0,1,50.1,59.839Z" transform="translate(-1.3 -50.4)" fill="#3074a4"/>
      </g>
      <g id="Group_21977" data-name="Group 21977" transform="translate(37.398 49.33)">
        <path id="Path_18344" data-name="Path 18344" d="M44.458,56.4a1.158,1.158,0,1,0,1.158,1.158A1.179,1.179,0,0,0,44.458,56.4Z" transform="translate(-43.3 -56.4)" fill="#3074a4"/>
      </g>
      <g id="Group_21978" data-name="Group 21978" transform="translate(6.5 49.33)">
        <path id="Path_18345" data-name="Path 18345" d="M9.758,56.4a1.158,1.158,0,1,0,1.158,1.158A1.179,1.179,0,0,0,9.758,56.4Z" transform="translate(-8.6 -56.4)" fill="#3074a4"/>
      </g>
      <g id="Group_21979" data-name="Group 21979" transform="translate(16.74 49.33)">
        <path id="Path_18346" data-name="Path 18346" d="M21.258,56.4a1.158,1.158,0,1,0,1.158,1.158A1.122,1.122,0,0,0,21.258,56.4Z" transform="translate(-20.1 -56.4)" fill="#3074a4"/>
      </g>
      <g id="Group_21980" data-name="Group 21980" transform="translate(32.857 22.706)">
        <ellipse id="Ellipse_338" data-name="Ellipse 338" cx="1.692" cy="1.692" rx="1.692" ry="1.692" fill="#3074a4"/>
      </g>
      <g id="Group_21981" data-name="Group 21981" transform="translate(17.007 20.302)">
        <path id="Path_18347" data-name="Path 18347" d="M21.112,32.17H42.127a.7.7,0,0,0,.712-.712V24.512a.7.7,0,0,0-.712-.712H21.112a.7.7,0,0,0-.712.712v6.945A.7.7,0,0,0,21.112,32.17Zm16.829-7.747A3.477,3.477,0,0,1,41.414,27.9a3.536,3.536,0,0,1-3.473,3.473,3.473,3.473,0,0,1,0-6.945Zm-12.644,0A3.477,3.477,0,0,1,28.77,27.9,3.536,3.536,0,0,1,25.3,31.369,3.477,3.477,0,0,1,21.825,27.9,3.421,3.421,0,0,1,25.3,24.423Z" transform="translate(-20.4 -23.8)" fill="#3074a4"/>
      </g>
      <g id="Group_21982" data-name="Group 21982" transform="translate(20.213 22.706)">
        <ellipse id="Ellipse_339" data-name="Ellipse 339" cx="1.692" cy="1.692" rx="1.692" ry="1.692" fill="#3074a4"/>
      </g>
      <g id="Group_21983" data-name="Group 21983" transform="translate(1.514)">
        <path id="Path_18348" data-name="Path 18348" d="M5.849,21.836V33.857A2.489,2.489,0,0,0,8.343,36.35H12.35v6.856H47.076V36.35h4.007a2.489,2.489,0,0,0,2.493-2.493V21.836a3.741,3.741,0,0,0,2.849-3.651.89.89,0,0,0-1.781,0,1.959,1.959,0,0,1-3.918,0,.958.958,0,0,0-.89-.89.892.892,0,0,0-.89.89A3.721,3.721,0,0,0,51.8,21.836V33.857a.7.7,0,0,1-.712.712H47.076V15.514a3.8,3.8,0,0,0-3.829-3.829H30.6V8.3a3.741,3.741,0,0,0,2.849-3.651,3.74,3.74,0,0,0-7.48.089,3.819,3.819,0,0,0,2.849,3.651v3.295H16.178a3.8,3.8,0,0,0-3.829,3.829V34.569H8.343a.766.766,0,0,1-.712-.712V21.836a3.741,3.741,0,0,0,2.849-3.651.89.89,0,1,0-1.781,0,1.959,1.959,0,0,1-3.918,0,.892.892,0,0,0-.89-.89.958.958,0,0,0-.89.89A3.819,3.819,0,0,0,5.849,21.836Zm33.391,17.72H20.185a3.155,3.155,0,0,1-3.117-3.116.89.89,0,1,1,1.781,0,1.369,1.369,0,0,0,1.336,1.336H39.151a1.369,1.369,0,0,0,1.336-1.336.958.958,0,0,1,.89-.89.892.892,0,0,1,.89.89A3.022,3.022,0,0,1,39.241,39.556ZM16.713,21.925a2.489,2.489,0,0,1,2.493-2.493H40.22a2.548,2.548,0,0,1,2.493,2.493V28.87a2.548,2.548,0,0,1-2.493,2.493H19.206a2.489,2.489,0,0,1-2.493-2.493V21.925Z" transform="translate(-3 -1)" fill="#3074a4"/>
      </g>
    </g>
  </g>
</svg>
