<svg xmlns="http://www.w3.org/2000/svg" width="16.273" height="16.273" viewBox="0 0 16.273 16.273">
  <g id="noun-gear-716655_1_" data-name="noun-gear-716655 (1)" transform="translate(-97.996 -28)">
    <path id="Path_170073" data-name="Path 170073" d="M104.687,28a.6.6,0,0,0-.531.441l-.294,1.61c-.143.054-.281.112-.418.175l-1.356-.932a.56.56,0,0,0-.689.068l-2.046,2.046a.56.56,0,0,0-.062.689l.932,1.345c-.062.136-.117.277-.17.418l-1.61.294A.56.56,0,0,0,98,34.69v2.893a.561.561,0,0,0,.446.531l1.61.294c.054.142.112.283.175.418l-.938,1.345a.56.56,0,0,0,.062.689l2.046,2.046a.56.56,0,0,0,.695.068l1.35-.932c.138.063.275.122.418.175l.294,1.61a.56.56,0,0,0,.531.446h2.893a.561.561,0,0,0,.531-.446l.294-1.61c.143-.053.281-.112.418-.175l1.345.932a.56.56,0,0,0,.695-.068l2.046-2.046a.56.56,0,0,0,.062-.689l-.932-1.345c.062-.134.117-.273.17-.412l1.616-.3a.56.56,0,0,0,.446-.531V34.69a.56.56,0,0,0-.446-.537l-1.61-.294c-.052-.14-.114-.277-.175-.412l.932-1.35a.56.56,0,0,0-.062-.689l-2.046-2.046a.56.56,0,0,0-.695-.062l-1.345.927c-.138-.063-.275-.122-.418-.175l-.294-1.61a.56.56,0,0,0-.531-.441h-2.893Zm.452,1.085h1.989l.266,1.452a.554.554,0,0,0,.367.418,5.431,5.431,0,0,1,.881.367.554.554,0,0,0,.559-.034l1.215-.842,1.407,1.407-.842,1.221a.554.554,0,0,0-.034.559,5.332,5.332,0,0,1,.356.87.555.555,0,0,0,.424.373l1.458.266v1.989l-1.458.266a.555.555,0,0,0-.424.373,5.342,5.342,0,0,1-.362.87.554.554,0,0,0,.034.559l.848,1.215-1.407,1.407-1.215-.836a.554.554,0,0,0-.559-.04,5.431,5.431,0,0,1-.881.367.554.554,0,0,0-.367.418l-.266,1.458h-1.989l-.266-1.458a.554.554,0,0,0-.367-.418,5.467,5.467,0,0,1-.887-.362.554.554,0,0,0-.559.034l-1.215.836-1.4-1.4.848-1.215a.555.555,0,0,0,.034-.565,5.346,5.346,0,0,1-.367-.876.555.555,0,0,0-.424-.373l-1.452-.266V35.142l1.452-.266a.555.555,0,0,0,.424-.373,5.349,5.349,0,0,1,.362-.876.554.554,0,0,0-.034-.559l-.848-1.215,1.407-1.407,1.226.842a.554.554,0,0,0,.554.034,5.466,5.466,0,0,1,.882-.367.554.554,0,0,0,.367-.418Zm.995,3.255a3.8,3.8,0,1,0,3.8,3.8A3.805,3.805,0,0,0,106.133,32.34Zm0,1.085a2.712,2.712,0,1,1-2.712,2.712A2.7,2.7,0,0,1,106.133,33.425Z" fill="#a0a8b7"/>
  </g>
</svg>
