<svg xmlns="http://www.w3.org/2000/svg" width="14.177" height="14.449" viewBox="0 0 14.177 14.449">
  <g id="noun-data-3074936" transform="translate(-193.196 -128.802)">
    <path id="Path_170066" data-name="Path 170066" d="M200.285,313.832c4.586,0,7.088-1.17,7.088-1.772v-3.948c-1.491.894-4.3,1.358-7.088,1.358s-5.6-.463-7.088-1.358v3.948c0,.6,2.5,1.772,7.088,1.772Z" transform="translate(0 -170.58)" fill="#a0a8b7"/>
    <path id="Path_170067" data-name="Path 170067" d="M207.377,130.574c0,.979-3.174,1.772-7.088,1.772s-7.088-.793-7.088-1.772,3.174-1.772,7.088-1.772,7.088.793,7.088,1.772" transform="translate(-0.004)" fill="#a0a8b7"/>
    <path id="Path_170068" data-name="Path 170068" d="M200.285,201.832c4.586,0,7.088-1.17,7.088-1.772v-3.948c-1.491.894-4.3,1.358-7.088,1.358s-5.6-.463-7.088-1.358v3.948c0,.6,2.5,1.772,7.088,1.772Z" transform="translate(0 -64.033)" fill="#a0a8b7"/>
  </g>
</svg>
