<svg xmlns="http://www.w3.org/2000/svg" width="20.081" height="20.101" viewBox="0 0 20.081 20.101">
  <g id="noun-unlink-1656771" transform="translate(-101.826 -52.663)">
    <path id="Path_169308" data-name="Path 169308" d="M274.643,199.5a.926.926,0,0,0-1.332,0l-5.329,5.354a.949.949,0,0,0,.05,1.332.96.96,0,0,0,1.282,0l5.329-5.354a.973.973,0,0,0,0-1.332Z" transform="translate(-159.597 -139.98)" fill="#fff"/>
    <path id="Path_169312" data-name="Path 169312" d="M327.6,58.192l2.664-2.664a2.826,2.826,0,1,1,4,4L331.6,62.189a.943.943,0,0,0,1.282,1.383l.05-.05,2.664-2.664a4.715,4.715,0,1,0-6.359-6.962l-2.966,2.966a.943.943,0,1,0,1.282,1.382c.025,0,.025-.025.05-.05Z" transform="translate(-215.222 0)" fill="#fff"/>
    <path id="Path_169313" data-name="Path 169313" d="M135.032,269.014l2.664-2.664a.949.949,0,0,0-.05-1.332.961.961,0,0,0-1.282,0l-2.664,2.664a2.826,2.826,0,1,1-4-4l2.664-2.69a.949.949,0,0,0-.05-1.332.961.961,0,0,0-1.282,0l-2.664,2.69a4.715,4.715,0,0,0,6.661,6.661Z" transform="translate(-25.315 -197.475)" fill="#fff"/>
  </g>
</svg>
