<svg id="Group_55772" data-name="Group 55772" xmlns="http://www.w3.org/2000/svg" width="46.904" height="40.294" viewBox="0 0 46.904 40.294">
  <g id="Group_55748" data-name="Group 55748" transform="translate(0 0)">
    <g id="noun-folder-4684034_1_" data-name="noun-folder-4684034 (1)" transform="translate(0)">
      <path id="Path_170887" data-name="Path 170887" d="M205.373,125.072H183.265l-2.989-4.487a3.911,3.911,0,0,0-3.269-1.75H166.324a3.935,3.935,0,0,0-3.927,3.927V155.2a3.934,3.934,0,0,0,3.927,3.927h39.049A3.935,3.935,0,0,0,209.3,155.2V129a3.935,3.935,0,0,0-3.928-3.928ZM207.2,155.2a1.829,1.829,0,0,1-1.827,1.827H166.324A1.829,1.829,0,0,1,164.5,155.2V127.173h40.876A1.829,1.829,0,0,1,207.2,129Z" transform="translate(-162.397 -118.835)" fill="#4ba4da"/>
    </g>
  </g>
  <g id="Group_55747" data-name="Group 55747" transform="translate(11.508 11.686)">
    <rect id="Rectangle_35937" data-name="Rectangle 35937" width="9.954" height="22.894" rx="2" transform="translate(0 0)" fill="#4ba4da"/>
    <rect id="Rectangle_35938" data-name="Rectangle 35938" width="11.945" height="6.968" rx="2" transform="translate(11.945 0)" fill="#4ba4da"/>
    <rect id="Rectangle_35939" data-name="Rectangle 35939" width="11.945" height="14.931" rx="2" transform="translate(11.945 7.963)" fill="#4ba4da"/>
  </g>
</svg>
