<svg xmlns="http://www.w3.org/2000/svg" width="30.382" height="30.382" viewBox="0 0 30.382 30.382">
  <path id="iconmonstr-user-20_1_" data-name="iconmonstr-user-20 (1)" d="M15.191,0A15.191,15.191,0,1,0,30.382,15.191,15.192,15.192,0,0,0,15.191,0Zm9.815,23.172A3,3,0,0,0,22.637,21.6c-2.9-.67-5.605-1.257-4.3-3.728C22.323,10.351,19.4,6.33,15.191,6.33c-4.289,0-7.145,4.176-3.151,11.544,1.349,2.486-1.453,3.072-4.3,3.728a2.981,2.981,0,0,0-2.363,1.577,12.659,12.659,0,1,1,19.624-.006Z" fill="#a1a5ad"/>
</svg>
