<svg width="20" height="18.607" xmlns="http://www.w3.org/2000/svg">
 <g>
  <title>Layer 1</title>
  <g id="Group_55566" data-name="Group 55566">
   <path id="ic_card_membership_24px" d="m18,0l-16,0a1.993,1.993 0 0 0 -2,2l0,11a1.993,1.993 0 0 0 2,2l16,0a1.993,1.993 0 0 0 2,-2l0,-11a1.993,1.993 0 0 0 -2,-2zm0,13l-16,0l0,-5l16,0l0,5zm0,-5l-16,0l0,-6l16,0l0,6z" fill="#4ba4da"/>
   <g id="Rectangle_36202" data-name="Rectangle 36202" fill="#4ba4da" stroke="#4ba4da">
    <rect width="12" height="2" y="16.60693" x="4" id="svg_1"/>
    <rect x="4.5" y="17.10693" width="11" height="1" fill="none" id="svg_2"/>
   </g>
   <g id="Rectangle_36203" data-name="Rectangle 36203" fill="#4ba4da" stroke="#4ba4da">
    <rect width="2" height="2" y="14.60693" x="9" id="svg_3"/>
    <rect x="9.5" y="15.10693" width="1" height="1" fill="none" id="svg_4"/>
   </g>
  </g>
 </g>

</svg>