<svg width="19.454" height="20" xmlns="http://www.w3.org/2000/svg">
 <g>
  <title>Layer 1</title>
  <path id="ic_settings_24px" d="m17.159,10.98a7.793,7.793 0 0 0 0.07,-0.98a7.793,7.793 0 0 0 -0.07,-0.98l2.11,-1.65a0.5,0.5 0 0 0 0.12,-0.64l-2,-3.46a0.5,0.5 0 0 0 -0.61,-0.22l-2.49,1a7.306,7.306 0 0 0 -1.69,-0.98l-0.38,-2.65a0.488,0.488 0 0 0 -0.49,-0.42l-4,0a0.488,0.488 0 0 0 -0.49,0.42l-0.38,2.65a7.683,7.683 0 0 0 -1.69,0.98l-2.49,-1a0.488,0.488 0 0 0 -0.61,0.22l-2,3.46a0.493,0.493 0 0 0 0.12,0.64l2.11,1.65a7.931,7.931 0 0 0 -0.07,0.98a7.931,7.931 0 0 0 0.07,0.98l-2.11,1.65a0.5,0.5 0 0 0 -0.12,0.64l2,3.46a0.5,0.5 0 0 0 0.61,0.22l2.49,-1a7.306,7.306 0 0 0 1.69,0.98l0.38,2.65a0.488,0.488 0 0 0 0.49,0.42l4,0a0.488,0.488 0 0 0 0.49,-0.42l0.38,-2.65a7.683,7.683 0 0 0 1.69,-0.98l2.49,1a0.488,0.488 0 0 0 0.61,-0.22l2,-3.46a0.5,0.5 0 0 0 -0.12,-0.64l-2.11,-1.65zm-7.43,2.52a3.5,3.5 0 1 1 3.5,-3.5a3.5,3.5 0 0 1 -3.5,3.5z" fill="#4ba4da"/>
 </g>

</svg>