<svg id="Group_26409" data-name="Group 26409" xmlns="http://www.w3.org/2000/svg" xmlns:xlink="http://www.w3.org/1999/xlink" width="44.534" height="55.892" viewBox="0 0 44.534 55.892">
  <defs>
    <clipPath id="clip-path">
      <rect id="Rectangle_12803" data-name="Rectangle 12803" width="44.534" height="55.892" fill="#fff"/>
    </clipPath>
  </defs>
  <g id="Group_21530" data-name="Group 21530" transform="translate(0 0)">
    <g id="Group_21523" data-name="Group 21523">
      <g id="Group_21522" data-name="Group 21522" clip-path="url(#clip-path)">
        <path id="Path_17308" data-name="Path 17308" d="M172.54,274.759c-3.108-3.468-7.212-6.68-17.36-6.758a19.7,19.7,0,0,0-14.724,5.884,15.312,15.312,0,0,0-4.351,13.023c.132,1.344,2.052,2.9.7,5.511,0,0-2.9,5.1-2.8,5.956,0,0-.045,1.554,2.35,1.605,0,0,.6.071.427,1.4l-.027,1.932s.081.574,1.136.926c0,0,.192.2-.105.574,0,0-.559.622.4,1.956a2.364,2.364,0,0,1,.568,2.359s-.445,2.419.508,3c0,0,1.073,1.283,5.43.751,1.52-.192,4.333-.926,6.009,1.178,0,0,4.009,7.608,4.313,9.414,0,0,6.839-12.173,15.18-14.051,0,0-2.037-4.585,2.1-10.514,0,0,5.178-6.839,5.337-10.6,0,0,1.37-6.322-5.093-13.546Zm0,0" transform="translate(-134.001 -268.001)" fill="#fff"/>
      </g>
    </g>
  </g>
  <g id="Group_21531" data-name="Group 21531" transform="translate(6.852 6.902)">
    <path id="Path_17135" data-name="Path 17135" d="M152.889,260.455a.434.434,0,0,0,.433-.432v-2.59a.433.433,0,1,0-.865,0v2.59a.434.434,0,0,0,.432.432Zm0,0" transform="translate(-132.269 -257)" fill="#0f9576"/>
    <path id="Path_17136" data-name="Path 17136" d="M149.1,260.455a.434.434,0,0,0,.433-.432v-2.59a.433.433,0,1,0-.865,0v2.59a.433.433,0,0,0,.432.432Zm0,0" transform="translate(-130.837 -257)" fill="#0f9576"/>
    <path id="Path_17137" data-name="Path 17137" d="M145.237,260.455a.432.432,0,0,0,.432-.432v-2.59a.432.432,0,1,0-.865,0v2.59a.433.433,0,0,0,.432.432Zm0,0" transform="translate(-129.376 -257)" fill="#0f9576"/>
    <path id="Path_17138" data-name="Path 17138" d="M141.448,260.455a.433.433,0,0,0,.432-.432v-2.59a.432.432,0,1,0-.865,0v2.59a.433.433,0,0,0,.432.432Zm0,0" transform="translate(-127.944 -257)" fill="#0f9576"/>
    <path id="Path_17139" data-name="Path 17139" d="M137.951,260.455a.433.433,0,0,0,.43-.432v-2.59a.432.432,0,1,0-.865,0v2.59a.434.434,0,0,0,.435.432Zm0,0" transform="translate(-126.621 -257)" fill="#0f9576"/>
    <path id="Path_17140" data-name="Path 17140" d="M134.159,260.455a.433.433,0,0,0,.432-.432v-2.59a.432.432,0,1,0-.865,0v2.59a.433.433,0,0,0,.432.432Zm0,0" transform="translate(-125.189 -257)" fill="#0f9576"/>
    <path id="Path_17141" data-name="Path 17141" d="M123.02,269.735h-2.587a.432.432,0,1,0,0,.865h2.587a.432.432,0,1,0,0-.865Zm0,0" transform="translate(-120 -261.814)" fill="#0f9576"/>
    <path id="Path_17142" data-name="Path 17142" d="M123.02,273.528h-2.587a.431.431,0,1,0,0,.862h2.587a.431.431,0,1,0,0-.862Zm0,0" transform="translate(-120 -263.248)" fill="#0f9576"/>
    <path id="Path_17143" data-name="Path 17143" d="M123.02,277.391h-2.587a.432.432,0,1,0,0,.865h2.587a.432.432,0,1,0,0-.865Zm0,0" transform="translate(-120 -264.708)" fill="#0f9576"/>
    <path id="Path_17144" data-name="Path 17144" d="M123.02,281.176h-2.587a.433.433,0,0,0,0,.865h2.587a.433.433,0,1,0,0-.865Zm0,0" transform="translate(-120 -266.139)" fill="#0f9576"/>
    <path id="Path_17145" data-name="Path 17145" d="M123.02,284.672h-2.587a.434.434,0,0,0,0,.867h2.587a.434.434,0,1,0,0-.867Zm0,0" transform="translate(-120 -267.46)" fill="#0f9576"/>
    <path id="Path_17146" data-name="Path 17146" d="M123.02,288.465h-2.587a.433.433,0,0,0,0,.865h2.587a.433.433,0,1,0,0-.865Zm0,0" transform="translate(-120 -268.894)" fill="#0f9576"/>
    <path id="Path_17147" data-name="Path 17147" d="M152.889,298.1a.433.433,0,0,0-.432.432v2.587a.433.433,0,1,0,.865,0v-2.587a.432.432,0,0,0-.433-.432Zm0,0" transform="translate(-132.269 -272.537)" fill="#0f9576"/>
    <path id="Path_17148" data-name="Path 17148" d="M149.1,298.1a.433.433,0,0,0-.432.432v2.587a.433.433,0,1,0,.865,0v-2.587a.432.432,0,0,0-.433-.432Zm0,0" transform="translate(-130.837 -272.537)" fill="#0f9576"/>
    <path id="Path_17149" data-name="Path 17149" d="M145.237,298.1a.433.433,0,0,0-.432.432v2.587a.432.432,0,1,0,.865,0v-2.587a.431.431,0,0,0-.432-.432Zm0,0" transform="translate(-129.376 -272.537)" fill="#0f9576"/>
    <path id="Path_17150" data-name="Path 17150" d="M141.448,298.1a.433.433,0,0,0-.432.432v2.587a.432.432,0,1,0,.865,0v-2.587a.431.431,0,0,0-.432-.432Zm0,0" transform="translate(-127.944 -272.537)" fill="#0f9576"/>
    <path id="Path_17151" data-name="Path 17151" d="M137.951,298.1a.433.433,0,0,0-.435.432v2.587a.432.432,0,1,0,.865,0v-2.587a.431.431,0,0,0-.43-.432Zm0,0" transform="translate(-126.621 -272.537)" fill="#0f9576"/>
    <path id="Path_17152" data-name="Path 17152" d="M134.159,298.1a.433.433,0,0,0-.432.432v2.587a.432.432,0,1,0,.865,0v-2.587a.431.431,0,0,0-.432-.432Zm0,0" transform="translate(-125.189 -272.537)" fill="#0f9576"/>
    <path id="Path_17153" data-name="Path 17153" d="M144.917,264.375H130.861a2.682,2.682,0,0,0-2.677,2.678v14.056a2.682,2.682,0,0,0,2.677,2.679h14.056a2.683,2.683,0,0,0,2.678-2.679V267.053a2.683,2.683,0,0,0-2.678-2.678Zm-12.7,4.271a.853.853,0,1,1,.853-.853.852.852,0,0,1-.853.853Zm10.193,9.678h-8.949v-9.033h8.949Zm0,0" transform="translate(-123.094 -259.788)" fill="#0f9576"/>
    <path id="Path_17154" data-name="Path 17154" d="M161.53,270.6h2.59a.432.432,0,1,0,0-.865h-2.59a.432.432,0,0,0,0,.865Zm0,0" transform="translate(-135.535 -261.814)" fill="#0f9576"/>
    <path id="Path_17155" data-name="Path 17155" d="M164.12,273.528h-2.59a.431.431,0,1,0,0,.862h2.59a.431.431,0,1,0,0-.862Zm0,0" transform="translate(-135.535 -263.248)" fill="#0f9576"/>
    <path id="Path_17156" data-name="Path 17156" d="M164.12,277.391h-2.59a.432.432,0,0,0,0,.865h2.59a.432.432,0,1,0,0-.865Zm0,0" transform="translate(-135.535 -264.708)" fill="#0f9576"/>
    <path id="Path_17157" data-name="Path 17157" d="M164.12,281.176h-2.59a.433.433,0,0,0,0,.865h2.59a.433.433,0,0,0,0-.865Zm0,0" transform="translate(-135.535 -266.139)" fill="#0f9576"/>
    <path id="Path_17158" data-name="Path 17158" d="M164.12,284.672h-2.59a.434.434,0,0,0,0,.867h2.59a.434.434,0,0,0,0-.867Zm0,0" transform="translate(-135.535 -267.46)" fill="#0f9576"/>
    <path id="Path_17159" data-name="Path 17159" d="M164.12,288.465h-2.59a.433.433,0,0,0,0,.865h2.59a.433.433,0,0,0,0-.865Zm0,0" transform="translate(-135.535 -268.894)" fill="#0f9576"/>
  </g>
</svg>
