<svg xmlns="http://www.w3.org/2000/svg" width="41.588" height="60.194" viewBox="0 0 41.588 60.194">
  <g id="Group_26300" data-name="Group 26300" transform="translate(0 0)">
    <g id="Group_21510" data-name="Group 21510" transform="translate(5.465 5.417)">
      <path id="Path_17093" data-name="Path 17093" d="M-46.478,91.783l7.653,13.257a15.252,15.252,0,0,1-6.823,1.615A15.353,15.353,0,0,1-61,91.3,15.34,15.34,0,0,1-46.608,76V91.3a.958.958,0,0,0,.129.48Zm16.133-1.439H-44.689V76A15.329,15.329,0,0,1-30.345,90.344ZM-42.77,88.425h10.225A13.436,13.436,0,0,0-42.77,78.2Zm5.611,15.665a15.324,15.324,0,0,0,6.814-11.827H-43.986Zm0,0" transform="translate(61 -76)" fill="#3074a4"/>
    </g>
    <g id="Group_21482" data-name="Group 21482" transform="translate(0 0)">
      <path id="Path_17246" data-name="Path 17246" d="M207.822,200.1a20.795,20.795,0,1,0-20.794-20.794A20.818,20.818,0,0,0,207.822,200.1Zm0-38.575a17.78,17.78,0,1,1-17.78,17.78A17.8,17.8,0,0,1,207.822,161.527Z" transform="translate(-187.028 -158.512)" fill="#3074a4"/>
      <path id="Path_17248" data-name="Path 17248" d="M319.846,603.572a23.956,23.956,0,0,1-15.008,0A1.507,1.507,0,0,0,302.857,605v5.754a9.485,9.485,0,1,0,18.97,0V605a1.507,1.507,0,0,0-1.981-1.431Zm-1.034,7.185a6.47,6.47,0,1,1-12.941,0v-3.75a26.95,26.95,0,0,0,12.94,0v3.75Z" transform="translate(-291.548 -560.048)" fill="#3074a4"/>
    </g>
  </g>
</svg>
