<svg id="Group_26421" data-name="Group 26421" xmlns="http://www.w3.org/2000/svg" width="40.835" height="49.653" viewBox="0 0 40.835 49.653">
  <g id="noun_security_protection_3347010" data-name="noun_security protection_3347010" transform="translate(0 0)">
    <g id="Group_26312" data-name="Group 26312" transform="translate(0 0)">
      <path id="Path_26240" data-name="Path 26240" d="M54.4,32.671V12.494c0-.169,0-.225-.056-.282a.807.807,0,0,0-.564-.169h-.169a25.484,25.484,0,0,1-2.987.113A25.239,25.239,0,0,1,34.453,6.013a1.747,1.747,0,0,0-.395-.113c-.169,0-.282.056-.395.056a24.04,24.04,0,0,1-16.175,6.2,20.119,20.119,0,0,1-3.1-.169H14.22c-.225,0-.395,0-.451.056-.056.169-.169.225-.169.395V32.277c0,4.96,2.142,9.919,6.143,14.2L21.66,48.4a49.95,49.95,0,0,0,12.287,7.158H34.4a40.9,40.9,0,0,0,12.117-7.27l.056-.056a21.519,21.519,0,0,0,3.382-3.494l.056-.056C55.081,38.42,54.4,32.727,54.4,32.671Zm-3.269-.225v.789a14.9,14.9,0,0,1-3.551,9.243l-.113.113-.169.225a17.649,17.649,0,0,1-2.931,2.931l-.056.056-.056.113a35.769,35.769,0,0,1-10.032,6.143A46.7,46.7,0,0,1,23.97,45.916l-1.747-1.747c-3.382-3.607-5.242-7.778-5.242-11.892v-16.8h.507a28.077,28.077,0,0,0,16.57-5.467,28.512,28.512,0,0,0,16.57,5.523h.507Z" transform="translate(-13.6 -5.9)" fill="#3074a4"/>
    </g>
  </g>
  <g id="noun_End_to_End_encryption_1372107" data-name="noun_End to End encryption_1372107" transform="translate(11.641 14.048)">
    <g id="Group_1" data-name="Group 1" transform="translate(0 0)">
      <path id="Path_1" data-name="Path 1" d="M252.8,249.264h-.483v-1.139a6.38,6.38,0,0,0-12.76,0v1.139h-.478a1.578,1.578,0,0,0-1.576,1.575v4.118a8.438,8.438,0,1,0,16.875,0V250.84a1.584,1.584,0,0,0-1.578-1.576Zm-8.2,9.369.555-2.21a.214.214,0,0,0,0-.029.2.2,0,0,0-.108-.2,1.8,1.8,0,0,1-.277-.18,1.871,1.871,0,0,1-.724-1.481c0-.053,0-.106.006-.158a1.885,1.885,0,1,1,2.768,1.818.205.205,0,0,0-.1.23l.443,1.786.106.425a1.513,1.513,0,0,1-.45.171l-.02,0-.027.006a4.51,4.51,0,0,1-1.681,0l-.024-.005-.023-.006A1.5,1.5,0,0,1,244.6,258.634Zm-2.23-10.508a3.568,3.568,0,1,1,7.135,0v1.138H242.37Z" transform="translate(-237.499 -241.745)" fill="#3074a4"/>
    </g>
  </g>
</svg>
