<svg id="Group_26418" data-name="Group 26418" xmlns="http://www.w3.org/2000/svg" width="52.431" height="50.058" viewBox="0 0 52.431 50.058">
  <g id="Group_22004" data-name="Group 22004" transform="translate(0 3.411)">
    <path id="Path_18373" data-name="Path 18373" d="M323.431,404.67v13.169H271V404.67h3.57v-14.8l10.066-7.438v7.438l10.061-7.438v7.438l10.064-7.438v14.622h3.473l1.888-25.866h5.755l1.65,25.866H321.4v7.612Zm-35.995-5.687h-7.914v7.7h7.914Zm13.634,0h-7.915v7.7h7.915Zm13.806,0h-7.915v7.7h7.915Zm0,0" transform="translate(-271 -371.192)" fill="#3074a4"/>
  </g>
  <path id="ic_wifi_24px" d="M1,7.553,2.364,8.917a8.683,8.683,0,0,1,12.279,0l1.364-1.364A10.618,10.618,0,0,0,1,7.553ZM6.457,13.01,8.5,15.057,10.55,13.01A2.89,2.89,0,0,0,6.457,13.01ZM3.729,10.282l1.364,1.364a4.825,4.825,0,0,1,6.821,0l1.364-1.364A6.76,6.76,0,0,0,3.729,10.282Z" transform="translate(15.259 -4.448)" fill="#3074a4"/>
</svg>
