<svg id="Group_26415" data-name="Group 26415" xmlns="http://www.w3.org/2000/svg" xmlns:xlink="http://www.w3.org/1999/xlink" width="32.233" height="53.419" viewBox="0 0 32.233 53.419">
  <defs>
    <clipPath id="clip-path">
      <rect id="Rectangle_12779" data-name="Rectangle 12779" width="32.233" height="53.419" fill="#3074a4"/>
    </clipPath>
  </defs>
  <g id="Group_21410" data-name="Group 21410" transform="translate(0 0)">
    <g id="Group_21409" data-name="Group 21409" clip-path="url(#clip-path)">
      <path id="Path_17091" data-name="Path 17091" d="M162.58,265.842H138.628A3.635,3.635,0,0,0,135,269.468v46.468a3.646,3.646,0,0,0,3.628,3.628H162.58a3.647,3.647,0,0,0,3.628-3.628V269.468a3.635,3.635,0,0,0-3.628-3.626Zm-15.806,2.615h7.659a.438.438,0,1,1,0,.877h-7.659a.438.438,0,0,1-.443-.435.443.443,0,0,1,.443-.441Zm3.83,49.292a1.817,1.817,0,1,1,1.813-1.813,1.809,1.809,0,0,1-1.813,1.813Zm13.077-4.9H137.525V271.6h26.157Zm-5.936-27.266a10.127,10.127,0,0,1,0,14.292,1.218,1.218,0,0,1-.127.111l1.073,1.08h-3.837v-3.837l1,1a.941.941,0,0,0,.129-.119,7.614,7.614,0,0,0-8.649-12.262V283.6H146.3a10.117,10.117,0,0,1,11.443,1.986ZM154.021,301.9h.817a10.1,10.1,0,0,1-11.378-16.309c.038-.038.09-.075.129-.113l-1.08-1.08h3.845v3.837l-1-1a.911.911,0,0,0-.129.113,7.611,7.611,0,0,0,8.8,12.185Zm0,0" transform="translate(-135 -266.145)" fill="#3074a4"/>
    </g>
  </g>
</svg>
