<svg xmlns="http://www.w3.org/2000/svg" xmlns:xlink="http://www.w3.org/1999/xlink" width="45.203" height="45.203" viewBox="0 0 45.203 45.203">
  <defs>
    <clipPath id="clip-path">
      <rect id="Rectangle_12809" data-name="Rectangle 12809" width="24.403" height="25.192" fill="#3074a4"/>
    </clipPath>
    <clipPath id="clip-path-2">
      <rect id="Rectangle_12804" data-name="Rectangle 12804" width="12.012" height="8.794" fill="#3074a4"/>
    </clipPath>
  </defs>
  <g id="Group_26414" data-name="Group 26414" transform="translate(0 0)">
    <g id="Group_21999" data-name="Group 21999" transform="translate(0 0)">
      <g id="Group_21961" data-name="Group 21961" transform="translate(11.281 14.129)">
        <g id="Group_21956" data-name="Group 21956" transform="translate(0 0)">
          <g id="Group_21543" data-name="Group 21543" transform="translate(0 0)">
            <g id="Group_21542" data-name="Group 21542" clip-path="url(#clip-path)">
              <path id="Path_17333" data-name="Path 17333" d="M-27.046,103.423a9.767,9.767,0,0,0,2.612-6.64A9.8,9.8,0,0,0-34.217,87,9.8,9.8,0,0,0-44,96.783a9.8,9.8,0,0,0,9.783,9.783,9.735,9.735,0,0,0,5.858-1.948l7.274,7.274a.874.874,0,0,0,.62.265.85.85,0,0,0,.62-.265.9.9,0,0,0,0-1.254Zm-15.183-6.64a8.02,8.02,0,0,1,8.012-8.012,8.019,8.019,0,0,1,8.012,8.012,8.01,8.01,0,0,1-8.012,8.012,8.019,8.019,0,0,1-8.012-8.012Zm0,0" transform="translate(44 -87)" fill="#3074a4"/>
            </g>
          </g>
        </g>
      </g>
      <g id="Group_21958" data-name="Group 21958">
        <path id="Path_16968" data-name="Path 16968" d="M162.772,258H124.431A3.434,3.434,0,0,0,121,261.431v38.338a3.437,3.437,0,0,0,3.431,3.435h38.342a3.437,3.437,0,0,0,3.431-3.435V261.431A3.434,3.434,0,0,0,162.772,258Zm-4.166,3.228h2.569V263.8h-2.569Zm-5.947,0h2.569V263.8h-2.569Zm11.378,38.544a1.268,1.268,0,0,1-1.264,1.268H124.431a1.269,1.269,0,0,1-1.268-1.268v-32.12h40.874Zm0,0" transform="translate(-121 -258)" fill="#3074a4"/>
      </g>
    </g>
    <g id="Group_22008" data-name="Group 22008" transform="translate(14.708 19.961)">
      <g id="Group_21535" data-name="Group 21535" transform="translate(0 0)">
        <g id="Group_21534" data-name="Group 21534" clip-path="url(#clip-path-2)">
          <path id="Path_17328" data-name="Path 17328" d="M142.836,272.778l-6.861,6.859a.473.473,0,0,1-.666,0l-4.171-4.2a.471.471,0,0,1,0-.665l1-1a.472.472,0,0,1,.665,0l2.845,2.866,5.527-5.527a.473.473,0,0,1,.666,0l1,1a.47.47,0,0,1,0,.666Zm0,0" transform="translate(-131 -270.988)" fill="#3074a4"/>
        </g>
      </g>
    </g>
  </g>
</svg>
