<svg xmlns="http://www.w3.org/2000/svg" width="39.006" height="49.1" viewBox="0 0 39.006 49.1">
  <g id="Group_26413" data-name="Group 26413" transform="translate(0 0)">
    <path id="Path_16977" data-name="Path 16977" d="M152.006,242.5a1.5,1.5,0,0,0-1.5-1.5H120.914a1.5,1.5,0,0,0-1.5,1.5v7.287H114.5a1.5,1.5,0,0,0-1.5,1.5V288.6a1.5,1.5,0,0,0,1.5,1.5h24.183a.36.36,0,0,1,0-.052h5.411a1.5,1.5,0,0,0,1.5-1.5v-7.287H150.5a1.505,1.505,0,0,0,1.5-1.5V252.545h0Zm-3.013.237a.979.979,0,1,1-.979.979.978.978,0,0,1,.979-.979Zm-4.313,0a.979.979,0,1,1-.978.979.979.979,0,0,1,.978-.979Zm-4.288,0a.979.979,0,1,1-.979.979.979.979,0,0,1,.979-.979Zm3.915,45.81a.215.215,0,0,1-.215.212h-24.1c0,.018,0,.035-.005.052H114.5a.215.215,0,0,1-.213-.215V255.363h29.8a.771.771,0,0,0,.215-.032v.025l0,.008V265.39h0ZM133,252.5a.979.979,0,1,1,.979.979A.978.978,0,0,1,133,252.5Zm4.289,0a.98.98,0,1,1,.981.979.978.978,0,0,1-.981-.979Zm4.315,0a.979.979,0,1,1,.979.979.978.978,0,0,1-.979-.979Zm9.115,27.257a.213.213,0,0,1-.213.213h-4.913V251.287a1.5,1.5,0,0,0-1.5-1.5H120.7v-3.213h29.8a.754.754,0,0,0,.215-.03v.025l0,.005V256.6h.005v23.157Zm0,0" transform="translate(-113 -241)" fill="#3074a4"/>
    <path id="Path_16978" data-name="Path 16978" d="M118.406,285.909l9.136,4.706v-2.264l-6.387-3.2,6.387-3.2v-2.262l-9.136,4.7Zm0,0" transform="translate(-114.985 -255.208)" fill="#3074a4"/>
    <path id="Path_16979" data-name="Path 16979" d="M138.161,275.875l-5.294,13.752h2.175l5.311-13.752Zm0,0" transform="translate(-120.296 -253.808)" fill="#3074a4"/>
    <path id="Path_16980" data-name="Path 16980" d="M144.668,281.949l6.436,3.2-6.436,3.2v2.264l9.135-4.686v-1.557l-9.135-4.684Zm0,0" transform="translate(-124.63 -255.208)" fill="#3074a4"/>
  </g>
</svg>
