<svg id="noun_UX_Wireframe_615287" data-name="noun_UX Wireframe_615287" xmlns="http://www.w3.org/2000/svg" width="45.877" height="45.877" viewBox="0 0 45.877 45.877">
  <g id="Group_22021" data-name="Group 22021" transform="translate(0 0)">
    <g id="Group_22020" data-name="Group 22020">
      <g id="Group_22019" data-name="Group 22019">
        <path id="Path_18398" data-name="Path 18398" d="M11.034,4.5A6.534,6.534,0,0,0,4.5,11.034V50.377H43.843a6.534,6.534,0,0,0,6.534-6.534V4.5Zm9.723,35.951H10.752V33.11H20.757Zm0-9.342H10.752v-7.34H20.757Zm11.779,9.342H22.331V33.11H32.536Zm0-9.342H22.331v-7.34H32.536Zm11.58,9.342H34.107V33.11H44.116Zm0-9.342H34.107v-7.34H44.116Zm0-9.342H10.752v-7.34H44.116Z" transform="translate(-4.5 -4.5)" fill="#3074a4"/>
      </g>
    </g>
  </g>
</svg>
