<svg xmlns="http://www.w3.org/2000/svg" width="42.824" height="35.14" viewBox="0 0 42.824 35.14">
  <g id="Group_54112" data-name="Group 54112" transform="translate(-276 -1349.496)">
    <g id="Group_54111" data-name="Group 54111">
      <g id="Group_54091" data-name="Group 54091" transform="translate(161 -73)">
        <path id="Path_168996" data-name="Path 168996" d="M47.3,17.5H6.52A1.174,1.174,0,0,0,5.5,18.782a1.174,1.174,0,0,0,1.02,1.282H47.3a1.174,1.174,0,0,0,1.02-1.282A1.174,1.174,0,0,0,47.3,17.5Z" transform="translate(109.5 1414.569)" fill="#4ba4da"/>
        <path id="Path_168997" data-name="Path 168997" d="M47.3,21.5H6.52a1.23,1.23,0,0,0,0,2.425H47.3a1.23,1.23,0,0,0,0-2.425Z" transform="translate(109.5 1424.139)" fill="#4ba4da"/>
        <path id="Triangle" d="M5.423,7.23,10.845,0H0Z" transform="translate(131.171 1450.406)" fill="#4ba4da"/>
        <path id="Triangle-2" data-name="Triangle" d="M5.423,0l5.423,7.23H0Z" transform="translate(131.171 1422.496)" fill="#4ba4da"/>
      </g>
    </g>
  </g>
</svg>
