<svg xmlns="http://www.w3.org/2000/svg" width="33.533" height="21.977" viewBox="0 0 33.533 21.977">
  <g id="noun-list-4040021" transform="translate(-77.788 -111.296)">
    <path id="Path_169068" data-name="Path 169068" d="M82.786,113.708a2.5,2.5,0,1,1-2.5-2.412,2.456,2.456,0,0,1,2.5,2.412" transform="translate(0 0)" fill="#4ba4da"/>
    <path id="Path_169069" data-name="Path 169069" d="M82.786,251.088a2.5,2.5,0,1,1-2.5-2.412,2.456,2.456,0,0,1,2.5,2.412" transform="translate(0 -128.803)" fill="#4ba4da"/>
    <path id="Path_169070" data-name="Path 169070" d="M82.786,388.468a2.5,2.5,0,1,1-2.5-2.412,2.456,2.456,0,0,1,2.5,2.412" transform="translate(0 -257.606)" fill="#4ba4da"/>
    <path id="Path_169071" data-name="Path 169071" d="M171.327,117.25h23.8c.726,0,1.315.956,1.315,1.731v.2a1.567,1.567,0,0,1-1.315,1.731h-23.8c-.726,0-1.315-.956-1.315-1.731v-.2A1.567,1.567,0,0,1,171.327,117.25Z" transform="translate(-85.124 -5.495)" fill="#4ba4da"/>
    <path id="Path_169072" data-name="Path 169072" d="M171.237,256.2h23.8c.726,0,1.315.956,1.315,1.731v.2a1.567,1.567,0,0,1-1.315,1.731h-23.8c-.726,0-1.315-.956-1.315-1.731v-.2a1.567,1.567,0,0,1,1.315-1.731Z" transform="translate(-85.041 -135.747)" fill="#4ba4da"/>
    <path id="Path_169073" data-name="Path 169073" d="M171.067,395.15h23.8c.726,0,1.315.956,1.315,1.731v.2a1.567,1.567,0,0,1-1.315,1.731h-23.8c-.726,0-1.315-.956-1.315-1.731v-.2A1.567,1.567,0,0,1,171.067,395.15Z" transform="translate(-84.884 -266)" fill="#4ba4da"/>
  </g>
</svg>
