<svg xmlns="http://www.w3.org/2000/svg" width="36.915" height="31.16" viewBox="0 0 36.915 31.16">
  <g id="Group_56044" data-name="Group 56044" transform="translate(-274 -1141.573)">
    <path id="Path_33104" data-name="Path 33104" d="M33.941,31.16H2.974A3.021,3.021,0,0,1,0,28.093V3.066A3.021,3.021,0,0,1,2.974,0H33.941a3.021,3.021,0,0,1,2.974,3.066V28.093a3.021,3.021,0,0,1-2.974,3.066ZM2.974,2.391a.665.665,0,0,0-.655.675V28.093a.665.665,0,0,0,.655.675H33.941a.666.666,0,0,0,.649-.675V3.066a.666.666,0,0,0-.649-.675Z" transform="translate(274 1141.573)" fill="#4ba4da"/>
    <g id="Group_56043" data-name="Group 56043">
      <path id="Path_33105" data-name="Path 33105" d="M11.243,36.7H31.664a.875.875,0,0,0,.8-.643,1.584,1.584,0,0,0-.07-1.268l-2.817-5.255a.86.86,0,0,0-.633-.493.751.751,0,0,0-.685.337l-2.894,3.785L18.644,20.63a.82.82,0,0,0-.729-.49.859.859,0,0,0-.708.546L10.488,34.848a1.592,1.592,0,0,0-.03,1.24A.866.866,0,0,0,11.243,36.7Z" transform="translate(271 1131.639)" fill="#4ba4da"/>
      <circle id="Ellipse_626" data-name="Ellipse 626" cx="4.211" cy="4.211" r="4.211" transform="translate(295.002 1146.762)" fill="#4ba4da"/>
    </g>
  </g>
</svg>
