<svg xmlns="http://www.w3.org/2000/svg" width="34.618" height="34.65" viewBox="0 0 34.618 34.65">
  <g id="Group_54100" data-name="Group 54100" transform="translate(-84.005 -14.632)">
    <path id="Path_169004" data-name="Path 169004" d="M117.568,29.989l-2.657-1.784,1.42-2.876a2.278,2.278,0,0,0-.073-2.111,2.212,2.212,0,0,0-1.82-1.128l-3.2-.218-.218-3.167a2.257,2.257,0,0,0-3.24-1.893l-2.839,1.42-1.784-2.657a2.337,2.337,0,0,0-3.749,0l-1.747,2.657-2.876-1.42a2.278,2.278,0,0,0-2.111.073A2.212,2.212,0,0,0,91.54,18.7l-.218,3.2-3.167.218a2.264,2.264,0,0,0-1.82,1.128,2.352,2.352,0,0,0-.073,2.148l1.42,2.876-2.657,1.784A2.332,2.332,0,0,0,84,31.955a2.242,2.242,0,0,0,1.019,1.893l2.657,1.784-1.42,2.876a2.274,2.274,0,0,0,.073,2.111,2.3,2.3,0,0,0,1.82,1.128l3.2.218.218,3.167a2.257,2.257,0,0,0,3.24,1.893l2.876-1.42,1.784,2.657a2.332,2.332,0,0,0,1.893,1.019,2.242,2.242,0,0,0,1.893-1.019l1.784-2.657,2.876,1.42a2.278,2.278,0,0,0,2.111-.073,2.212,2.212,0,0,0,1.128-1.82l.218-3.2,3.2-.218a2.257,2.257,0,0,0,1.893-3.24l-1.529-2.949,2.657-1.784a2.332,2.332,0,0,0,1.019-1.893,2.253,2.253,0,0,0-1.056-1.856Zm-4.514,3.458a2.238,2.238,0,0,0-.765,2.876l1.274,2.585-2.876.182a2.271,2.271,0,0,0-2.111,2.111l-.182,2.876L105.81,42.8a2.237,2.237,0,0,0-2.876.765L101.3,46.007l-1.6-2.4a2.283,2.283,0,0,0-2.876-.8l-2.585,1.274L94.015,41.2A2.271,2.271,0,0,0,91.9,39.09l-2.876-.182L90.3,36.323a2.237,2.237,0,0,0-.765-2.876l-2.4-1.6,2.4-1.6a2.238,2.238,0,0,0,.765-2.876l-1.274-2.585L91.9,24.6a2.271,2.271,0,0,0,2.111-2.111l.182-2.876,2.585,1.274a2.237,2.237,0,0,0,2.876-.765l1.6-2.4,1.6,2.4a2.238,2.238,0,0,0,2.876.765l2.585-1.274.182,2.876a2.271,2.271,0,0,0,2.111,2.111l2.876.182-1.274,2.585a2.237,2.237,0,0,0,.765,2.876l2.4,1.6Z" transform="translate(0 0)" fill="#4ba4da"/>
    <path id="Path_169005" data-name="Path 169005" d="M255.264,228.7a.819.819,0,0,0-1.31,0l-1.238,1.82-2.33-3.385a.819.819,0,0,0-1.31,0l-4.15,6.043a.773.773,0,0,0-.036.837.815.815,0,0,0,.692.437h12.049a.714.714,0,0,0,.692-.437.86.86,0,0,0-.036-.837Z" transform="translate(-150.329 -198.378)" fill="#4ba4da"/>
    <path id="Path_169006" data-name="Path 169006" d="M362.942,173.071a1.711,1.711,0,1,1-1.711-1.711,1.711,1.711,0,0,1,1.711,1.711" transform="translate(-257.606 -146.54)" fill="#4ba4da"/>
  </g>
</svg>
