<svg xmlns="http://www.w3.org/2000/svg" width="32.242" height="25.666" viewBox="0 0 32.242 25.666">
  <g id="Group_54101" data-name="Group 54101" transform="translate(-516.698 -1582.892)">
    <g id="noun-heading-website-4373078" transform="translate(516.698 1582.892)">
      <path id="Path_169047" data-name="Path 169047" d="M115.158,90.8a.967.967,0,0,1-.288.687.99.99,0,0,1-1.39,0,.964.964,0,0,1,0-1.375.99.99,0,0,1,1.39,0,.968.968,0,0,1,.288.687Zm1.769-.972a.989.989,0,0,0-.7.285.965.965,0,0,0,0,1.375.99.99,0,0,0,1.39,0,.964.964,0,0,0,0-1.374.99.99,0,0,0-.695-.285Zm2.752,0a.989.989,0,0,0-.7.285.965.965,0,0,0,0,1.375.99.99,0,0,0,1.39,0,.964.964,0,0,0,0-1.374.99.99,0,0,0-.695-.285Zm15.531,11.278h4.325l-4.325-4.278Zm-14.941,0h14.155V96.832H120.269Zm22.805-12.445V112a1.161,1.161,0,0,1-.346.824,1.187,1.187,0,0,1-.834.342H112.012a1.187,1.187,0,0,1-.834-.342,1.161,1.161,0,0,1-.346-.824V88.665a1.161,1.161,0,0,1,.346-.824,1.187,1.187,0,0,1,.834-.342h29.883a1.187,1.187,0,0,1,.834.342,1.162,1.162,0,0,1,.346.824ZM116.73,94.109h-5.111V112a.391.391,0,0,0,.393.389h4.718ZM140.321,108.5a.387.387,0,0,0-.115-.275.4.4,0,0,0-.278-.114H119.876a.4.4,0,0,0-.278.114.387.387,0,0,0-.115.275v1.555a.387.387,0,0,0,.115.275.4.4,0,0,0,.278.114h20.053a.4.4,0,0,0,.278-.114.387.387,0,0,0,.115-.275Zm0-3.889a.387.387,0,0,0-.115-.275.4.4,0,0,0-.278-.114H119.876a.4.4,0,0,0-.278.114.387.387,0,0,0-.115.275v1.555a.387.387,0,0,0,.115.275.4.4,0,0,0,.278.114h20.053a.4.4,0,0,0,.278-.114.387.387,0,0,0,.115-.275Zm0-8.167a.387.387,0,0,0-.115-.275.4.4,0,0,0-.278-.114H119.876a.391.391,0,0,0-.393.389V101.5a.387.387,0,0,0,.115.275c.074.073.174.114,20.331.114a.4.4,0,0,0,.278-.114.387.387,0,0,0,.115-.275Zm1.966-7.778a.391.391,0,0,0-.393-.389H112.012a.391.391,0,0,0-.393.389v4.667h30.669Z" transform="translate(-110.832 -87.498)" fill="#4ba4da"/>
    </g>
    <g id="Group_54103" data-name="Group 54103" transform="translate(517.201 1588.126)">
      <g id="Group_54102" data-name="Group 54102">
        <g id="Group_54101-2" data-name="Group 54101">
          <rect id="Rectangle_35003" data-name="Rectangle 35003" width="30.907" height="19.956" fill="#4ba4da"/>
          <rect id="Rectangle_35004" data-name="Rectangle 35004" width="24.255" height="2.494" rx="1.247" transform="translate(3.326 4.157)" fill="#fff"/>
          <rect id="Rectangle_35005" data-name="Rectangle 35005" width="24.255" height="2.494" rx="1.247" transform="translate(3.326 8.315)" fill="#fff"/>
        </g>
      </g>
    </g>
  </g>
</svg>
